<svg width="74" height="75" viewBox="0 0 74 75" fill="none" xmlns="http://www.w3.org/2000/svg">
<path d="M53.1875 27.875C55.1289 26.4189 56.563 24.3889 57.2866 22.0726C58.0101 19.7562 57.9866 17.2709 57.2191 14.9686C56.4517 12.6664 54.9794 10.664 53.0107 9.24501C51.042 7.82606 48.6768 7.0625 46.25 7.0625H25.4375C23.0107 7.0625 20.6455 7.82606 18.6768 9.24501C16.7081 10.664 15.2358 12.6664 14.4683 14.9686C13.7009 17.2709 13.6773 19.7562 14.4009 22.0726C15.1245 24.3889 16.5586 26.4189 18.5 27.875C17.0301 28.9766 15.8437 30.4126 15.0393 32.064C14.2349 33.7154 13.8354 35.5347 13.8741 37.3712C13.9129 39.2077 14.3886 41.0086 15.2619 42.6246C16.1352 44.2407 17.381 45.6254 18.896 46.6641C17.1727 47.9743 15.8124 49.7026 14.9438 51.6855C14.0751 53.6684 13.727 55.8402 13.9323 57.9952C14.1377 60.1502 14.8896 62.2172 16.1171 64.0004C17.3445 65.7835 19.0067 67.2239 20.9464 68.1851C22.8861 69.1463 25.0391 69.5965 27.2014 69.4931C29.3637 69.3897 31.4638 68.736 33.3029 67.5941C35.142 66.4522 36.6592 64.8597 37.7109 62.9675C38.7625 61.0753 39.3138 58.946 39.3125 56.7812V46.375C40.5272 47.286 41.9095 47.9489 43.3804 48.3258C44.8513 48.7026 46.382 48.786 47.8852 48.5713C49.3883 48.3566 50.8345 47.8479 52.141 47.0742C53.4476 46.3006 54.5889 45.2772 55.5 44.0625C56.411 42.8478 57.0739 41.4655 57.4507 39.9946C57.8276 38.5237 57.911 36.993 57.6963 35.4898C57.4815 33.9867 56.9728 32.5405 56.1992 31.234C55.4256 29.9274 54.4022 28.786 53.1875 27.875ZM53.1875 18.625C53.1875 20.4649 52.4566 22.2295 51.1555 23.5306C49.8545 24.8316 48.0899 25.5625 46.25 25.5625H39.3125V11.6875H46.25C48.0899 11.6875 49.8545 12.4184 51.1555 13.7194C52.4566 15.0205 53.1875 16.7851 53.1875 18.625ZM18.5 18.625C18.5 16.7851 19.2309 15.0205 20.5319 13.7194C21.833 12.4184 23.5976 11.6875 25.4375 11.6875H34.6875V25.5625H25.4375C23.5976 25.5625 21.833 24.8316 20.5319 23.5306C19.2309 22.2295 18.5 20.4649 18.5 18.625ZM25.4375 44.0625C23.5976 44.0625 21.833 43.3316 20.5319 42.0306C19.2309 40.7295 18.5 38.9649 18.5 37.125C18.5 35.2851 19.2309 33.5205 20.5319 32.2194C21.833 30.9184 23.5976 30.1875 25.4375 30.1875H34.6875V44.0625H25.4375ZM34.6875 56.7812C34.6875 58.382 34.2128 59.9469 33.3235 61.2779C32.4341 62.6089 31.17 63.6463 29.6911 64.2589C28.2121 64.8715 26.5848 65.0318 25.0147 64.7195C23.4447 64.4072 22.0025 63.6363 20.8706 62.5044C19.7387 61.3725 18.9678 59.9303 18.6555 58.3603C18.3432 56.7902 18.5035 55.1628 19.1161 53.6839C19.7287 52.205 20.7661 50.9409 22.0971 50.0515C23.4281 49.1622 24.9929 48.6875 26.5937 48.6875H34.6875V56.7812ZM46.25 44.0625C44.8779 44.0625 43.5366 43.6556 42.3957 42.8933C41.2549 42.131 40.3657 41.0475 39.8406 39.7799C39.3155 38.5122 39.1781 37.1173 39.4458 35.7716C39.7135 34.4258 40.3742 33.1897 41.3444 32.2194C42.3147 31.2492 43.5508 30.5885 44.8966 30.3208C46.2423 30.0531 47.6372 30.1905 48.9049 30.7156C50.1725 31.2407 51.256 32.1299 52.0183 33.2707C52.7806 34.4116 53.1875 35.7529 53.1875 37.125C53.1875 38.9649 52.4566 40.7295 51.1555 42.0306C49.8545 43.3316 48.0899 44.0625 46.25 44.0625Z" fill="#343330"/>
</svg>
