<svg width="60" height="61" viewBox="0 0 60 61" fill="none" xmlns="http://www.w3.org/2000/svg">
<path d="M30 0.125C37.9565 0.125 45.5871 3.28571 51.2132 8.9118C56.8393 14.5379 60 22.1685 60 30.125C60 38.0815 56.8393 45.7121 51.2132 51.3382C45.5871 56.9643 37.9565 60.125 30 60.125C22.0435 60.125 14.4129 56.9643 8.7868 51.3382C3.16071 45.7121 0 38.0815 0 30.125C0 22.1685 3.16071 14.5379 8.7868 8.9118C14.4129 3.28571 22.0435 0.125 30 0.125ZM16.875 28.25C16.3777 28.25 15.9008 28.4475 15.5492 28.7992C15.1975 29.1508 15 29.6277 15 30.125C15 30.6223 15.1975 31.0992 15.5492 31.4508C15.9008 31.8025 16.3777 32 16.875 32H38.5988L30.5475 40.0475C30.3732 40.2218 30.2349 40.4288 30.1405 40.6566C30.0462 40.8843 29.9976 41.1285 29.9976 41.375C29.9976 41.6215 30.0462 41.8657 30.1405 42.0934C30.2349 42.3212 30.3732 42.5282 30.5475 42.7025C30.7218 42.8768 30.9288 43.0151 31.1566 43.1095C31.3843 43.2038 31.6285 43.2524 31.875 43.2524C32.1215 43.2524 32.3657 43.2038 32.5934 43.1095C32.8212 43.0151 33.0282 42.8768 33.2025 42.7025L44.4525 31.4525C44.6271 31.2783 44.7656 31.0714 44.8602 30.8436C44.9547 30.6158 45.0033 30.3716 45.0033 30.125C45.0033 29.8784 44.9547 29.6342 44.8602 29.4064C44.7656 29.1786 44.6271 28.9717 44.4525 28.7975L33.2025 17.5475C33.0282 17.3732 32.8212 17.2349 32.5934 17.1405C32.3657 17.0462 32.1215 16.9976 31.875 16.9976C31.6285 16.9976 31.3843 17.0462 31.1566 17.1405C30.9288 17.2349 30.7218 17.3732 30.5475 17.5475C30.3732 17.7218 30.2349 17.9288 30.1405 18.1566C30.0462 18.3843 29.9976 18.6285 29.9976 18.875C29.9976 19.1215 30.0462 19.3657 30.1405 19.5934C30.2349 19.8212 30.3732 20.0282 30.5475 20.2025L38.5988 28.25H16.875Z" fill="#1065DC"/>
</svg>
