<svg width="16" height="17" viewBox="0 0 16 17" fill="none" xmlns="http://www.w3.org/2000/svg">
<path fill-rule="evenodd" clip-rule="evenodd" d="M8 0.125C3.584 0.125 0 3.709 0 8.125C0 12.541 3.584 16.125 8 16.125C12.408 16.125 16 12.541 16 8.125C16 3.709 12.408 0.125 8 0.125ZM13.284 3.813C14.2688 5.01227 14.814 6.51225 14.829 8.064C14.603 8.021 12.347 7.561 10.074 7.847C10.022 7.735 9.978 7.613 9.926 7.492C9.787 7.162 9.631 6.824 9.475 6.502C11.991 5.479 13.137 4.004 13.285 3.812L13.284 3.813ZM8 1.305C9.735 1.305 11.323 1.955 12.53 3.023C12.408 3.197 11.375 4.576 8.946 5.487C7.826 3.431 6.586 1.747 6.395 1.487C6.92111 1.36416 7.45974 1.30308 8 1.305ZM5.093 1.947C6.00868 3.21605 6.85459 4.534 7.627 5.895C4.434 6.745 1.614 6.728 1.31 6.728C1.52986 5.69373 1.98565 4.72422 2.64185 3.89508C3.29805 3.06595 4.1369 2.3986 5.093 1.947ZM1.163 8.135V7.925C1.458 7.935 4.773 7.978 8.183 6.954C8.382 7.335 8.564 7.726 8.738 8.116L8.468 8.194C4.946 9.331 3.072 12.437 2.915 12.698C1.78682 11.4456 1.16265 9.81962 1.163 8.134V8.135ZM8 14.962C6.48155 14.9644 5.00619 14.4573 3.81 13.522C3.93 13.27 5.319 10.598 9.171 9.253C9.189 9.244 9.197 9.244 9.215 9.236C9.8644 10.9124 10.3523 12.6469 10.672 14.416C9.828 14.7787 8.91862 14.9645 8 14.962ZM11.81 13.791C11.74 13.374 11.375 11.379 10.482 8.923C12.625 8.585 14.499 9.14 14.733 9.218C14.5872 10.1407 14.2523 11.0232 13.7491 11.8102C13.2459 12.5971 12.5853 13.2715 11.809 13.791H11.81Z" fill="white"/>
</svg>
