<svg width="148" height="63" viewBox="0 0 148 63" fill="none" xmlns="http://www.w3.org/2000/svg">
<path d="M74.2301 20.5794C74.8346 20.5709 75.3486 20.4579 75.3402 19.8365V19.7433C75.3486 19.1247 74.8346 19.0117 74.2301 19.0033C73.6229 19.0117 73.1088 19.1247 73.1173 19.7433V19.8365C73.1088 20.4579 73.6229 20.5709 74.2301 20.5794Z" fill="#394149"/>
<path d="M52.1297 19.3309C52.1297 19.1501 51.9857 19.0061 51.8049 19.0061H50V19.6529H51.8049C51.8953 19.6529 51.9715 19.6218 52.0337 19.5597C52.0986 19.4947 52.1297 19.4185 52.1297 19.3309Z" fill="#394149"/>
<path d="M62.292 18.9976L62.8118 20.119H61.7695L62.292 18.9976Z" fill="#394149"/>
<path d="M85.4795 18.9976L85.9994 20.119H84.957L85.4795 18.9976Z" fill="#394149"/>
<path d="M48.5563 42.6105L47.7881 40.9529L47.0156 42.6105H48.5563Z" fill="#394149"/>
<path d="M66.6883 42.1345C66.6883 42.6982 66.3668 43.1617 65.799 43.1617H63.4023V41.1074H65.799C66.3668 41.1074 66.6883 41.5667 66.6883 42.1345Z" fill="#394149"/>
<path d="M72.7569 40.9529L73.5252 42.6105H71.9844L72.7569 40.9529Z" fill="#394149"/>
<path d="M82.0939 40.9655C82.3611 40.9655 82.574 41.1785 82.574 41.4457C82.574 41.5751 82.5281 41.6879 82.4321 41.7839C82.3402 41.8758 82.2275 41.9217 82.0939 41.9217H79.4258V40.9655H82.0939Z" fill="#394149"/>
<path d="M90.9198 42.1345C90.9198 42.6982 90.5978 43.1617 90.0298 43.1617H87.6328V41.1074H90.0298C90.5978 41.1074 90.9198 41.5667 90.9198 42.1345Z" fill="#394149"/>
<path d="M38.4137 31.6721L35.6291 25.2429H30.8516V35.9582H34.3323V30.1706L36.8439 35.9582H39.9562L42.4951 30.1706V35.9582H45.9622V25.2429H41.3348L38.4137 31.6721Z" fill="#394149"/>
<path d="M60.1675 35.9582V33.2964H52.4825V31.9041H59.8536V29.297H52.4825V27.9183H60.072V25.2429H48.8789V35.9582H60.1675Z" fill="#394149"/>
<path d="M63.1039 34.061C64.1686 35.4397 66.0658 36.1222 68.3454 36.1222C70.0573 36.1222 71.3122 35.7745 72.1864 35.2231C72.3368 35.1282 72.476 35.0272 72.6043 34.921L72.6998 35.9584H75.6345V29.6111H68.5093V31.918H72.3177C72.3009 32.0272 72.2426 32.1986 72.1589 32.3619C72.1067 32.4639 72.0446 32.5627 71.9764 32.6414C71.5806 33.1055 70.5294 33.515 69.1644 33.515C67.7448 33.515 66.8302 33.1465 66.3388 32.5732C66.0112 32.15 65.8201 31.5494 65.8201 30.6485C65.8201 29.7067 66.0112 29.0651 66.3798 28.642C66.9121 28.0414 67.813 27.782 69.1371 27.782C70.3247 27.782 71.1438 28.055 71.526 28.3963C71.7717 28.601 71.9628 28.8877 72.0037 29.0788H75.5391C75.5341 28.9528 75.5159 28.7988 75.4855 28.6349C75.4335 28.3548 75.3456 28.0453 75.225 27.7957C74.3787 26.0757 72.4132 25.052 69.069 25.052C66.1615 25.052 64.2094 25.9392 63.1311 27.277C62.4213 28.1915 62.0938 29.3381 62.0938 30.6212C62.0938 32.0408 62.476 33.2557 63.1039 34.061Z" fill="#394149"/>
<path d="M66.2617 30.6484C66.2617 29.7577 66.4438 29.2426 66.711 28.9349C67.1129 28.4826 67.8462 28.2258 69.1348 28.2258C70.2806 28.2258 70.9662 28.4936 71.2279 28.7273L71.2336 28.7323L71.2394 28.7372C71.3294 28.8122 71.4117 28.9046 71.4739 28.9947C71.5354 29.0837 71.56 29.1455 71.5661 29.1671H68.063V32.3618H71.6289C71.5012 32.5061 71.2271 32.6862 70.7916 32.8309C70.3581 32.9749 69.8018 33.071 69.1621 33.071C67.8133 33.071 67.0547 32.7219 66.6808 32.2925C66.4364 31.9721 66.2617 31.4807 66.2617 30.6484Z" fill="#394149"/>
<path d="M84.9076 29.1912L83.8906 31.1328H85.8684L84.9076 29.1912Z" fill="#394149"/>
<path fill-rule="evenodd" clip-rule="evenodd" d="M87.7408 33.9789L88.6828 35.9582H92.6278L87.2218 25.2429H82.8131L77.0938 35.9582H80.9567L81.9531 33.9789H87.7408ZM83.1544 31.5765L84.5057 28.9967L84.9152 28.0139L85.2974 28.983L86.5808 31.5765H83.1544Z" fill="#394149"/>
<path fill-rule="evenodd" clip-rule="evenodd" d="M116.226 54.5122H116.22C116.144 54.5122 116.068 54.5118 115.992 54.511V54.5122H32.5004C25.1328 54.5122 18.5609 51.1053 14.2742 45.7811H26.5756V44.2219H13.1216C11.1145 41.2579 9.76958 37.809 9.29918 34.0875H26.5756V32.5284H9.15468C9.12718 32.0641 9.11328 31.5962 9.11328 31.1251C9.11328 28.0385 9.71118 25.0917 10.7976 22.3939H26.5756V20.8348H11.493C13.1458 17.467 15.5845 14.5548 18.5702 12.3375H102.295C103.339 11.5623 104.45 10.872 105.617 10.2768C105.302 10.4372 104.992 10.6044 104.686 10.7783H20.9609C24.3658 8.84314 28.304 7.73804 32.5003 7.73804H115.992V7.73914C116.07 7.73837 116.148 7.73804 116.226 7.73804C129.142 7.73804 139.613 18.2087 139.613 31.1251C139.613 44.0414 129.142 54.5122 116.226 54.5122ZM124.922 42.0939C125.969 38.9393 126.594 35.1924 126.594 31.1251C126.594 27.3334 126.05 23.8201 125.129 20.8055C125.016 20.4374 124.898 20.0768 124.775 19.724C124.569 19.1364 124.348 18.5706 124.114 18.0284C123.798 17.2962 123.458 16.607 123.097 15.9654C121.391 12.9381 119.445 11.3077 117.629 10.7588V18.0284H122.405C122.809 18.8905 123.178 19.8292 123.504 20.8348H117.629V29.7218H125.009C125.026 30.1843 125.035 30.6522 125.035 31.1251C125.035 31.598 125.026 32.0659 125.009 32.5283H117.629V41.4154H123.503C123.178 42.421 122.809 43.3597 122.405 44.2218H117.629V51.4915C119.445 50.9427 121.391 49.3122 123.097 46.2848C123.458 45.6432 123.799 44.954 124.114 44.2218C124.405 43.5478 124.675 42.8373 124.922 42.0939ZM128.06 20.8348C128.809 23.5438 129.272 26.5476 129.377 29.7218H136.759C136.542 26.4998 135.583 23.4811 134.053 20.8348H128.06ZM132.102 18.0284H127.143C126.243 15.67 125.107 13.6186 123.795 11.9812C127.055 13.2711 129.906 15.3692 132.102 18.0284ZM114.823 10.7585V18.0284H108.337C108.653 17.2962 108.993 16.607 109.355 15.9654C111.06 12.9376 113.007 11.307 114.823 10.7585ZM108.656 11.9811C107.344 13.6185 106.209 15.6699 105.309 18.0284H100.349C102.545 15.3691 105.397 13.2709 108.656 11.9811ZM104.391 20.8348H95.4114V22.3939H97.5844C96.5283 24.644 95.8679 27.1164 95.6925 29.7218H103.074C103.18 26.5476 103.642 23.5438 104.391 20.8348ZM114.823 20.8348H107.314C106.512 23.467 105.999 26.478 105.883 29.7218H114.823V20.8348ZM129.377 32.5283C129.272 35.7025 128.809 38.7063 128.06 41.4154H134.053C135.583 38.7691 136.542 35.7503 136.759 32.5283H129.377ZM107.314 41.4154C106.512 38.7832 105.999 35.7721 105.883 32.5283H114.823V41.4154H107.314ZM104.391 41.4154C103.642 38.7063 103.18 35.7025 103.074 32.5283H95.6925C95.9095 35.7503 96.8681 38.7691 98.3988 41.4154H104.391ZM127.143 44.2218C126.243 46.5802 125.107 48.6315 123.796 50.2689C127.055 48.979 129.906 46.8809 132.102 44.2218H127.143ZM108.337 44.2218H114.823V51.4918C113.007 50.9433 111.06 49.3127 109.355 46.2848C108.993 45.6432 108.653 44.954 108.337 44.2218ZM105.309 44.2218L95.4114 44.2219V45.781H101.777C103.729 47.7056 106.063 49.2431 108.656 50.2691C107.344 48.6317 106.209 46.5803 105.309 44.2218ZM74.2303 17.8001C72.8011 17.8029 71.6317 18.2153 71.6374 19.653V19.9298C71.6317 21.3647 72.8011 21.7799 74.2303 21.7827C75.6567 21.7799 76.8261 21.3647 76.8204 19.9298V19.653C76.8204 18.2181 75.6595 17.8001 74.2303 17.8001ZM29.8283 17.8933V21.6895H31.3084V17.8933H29.8283ZM35.7966 19.9044L34.1301 17.8933H32.0936V21.6895H33.5737V19.3706L35.613 21.6895H37.2795V17.8933H35.7966V19.9044ZM41.0333 19.1022V21.6952H39.5533V19.1022H37.7936V17.899H42.793V19.1022H41.0333ZM43.2902 21.6952H47.7332V20.7207H44.7702V20.2349H47.7332V19.3564H44.7702V18.8706H47.7332V17.899H43.2902V21.6952ZM48.5212 21.6923V17.8961H52.179C52.9614 17.8877 53.6252 18.5458 53.6139 19.331C53.6139 19.6163 53.5376 19.8761 53.3851 20.1078C53.2354 20.3365 53.0349 20.5117 52.7863 20.6275L53.6139 21.6923H52.0378L51.3232 20.7659H50.0013V21.6923H48.5212ZM57.7773 19.9044L56.1108 17.8933H54.0743V21.6895H55.5544V19.3706L57.5937 21.6895H59.2602V17.8933H57.7773V19.9044ZM61.0397 21.6952H59.3732L61.4097 17.899H63.1694L65.2059 21.6952H63.5394L63.24 21.0455H61.3391L61.0397 21.6952ZM67.4655 21.6952V19.1022H69.2252V17.899H64.2258V19.1022H65.9855V21.6952H67.4655ZM69.7223 21.6895V17.8933H71.2024V21.6895H69.7223ZM79.3004 17.8933L80.9669 19.9044V17.8933H82.4498V21.6895H80.7833L78.744 19.3706V21.6895H77.2639V17.8933H79.3004ZM82.5628 21.6952H84.2292L84.5287 21.0455H86.4294L86.7294 21.6952H88.3954L86.3594 17.899H84.5993L82.5628 21.6952ZM88.5114 21.6895V17.8933H89.9914V20.4862H92.9544V21.6895H88.5114ZM33.6633 40.6231C32.9827 40.6231 32.1476 40.7234 32.1476 41.1701C32.1476 41.4165 32.8282 41.4499 33.7092 41.4916L33.7189 41.4921C35.2841 41.5714 37.4754 41.6824 37.4713 43.0866C37.4713 44.69 35.6341 45.07 33.6633 45.07C31.6967 45.0658 30.0641 44.8278 29.8553 43.0866H32.1476C32.3981 43.5209 32.9785 43.6336 33.6633 43.6336C34.3439 43.6336 35.179 43.5209 35.179 43.0866C35.179 42.8403 34.4984 42.8027 33.6174 42.761L33.6076 42.7605C32.0424 42.6812 29.8511 42.5702 29.8553 41.1701C29.8553 39.5668 31.6925 39.1826 33.6633 39.1826C35.6299 39.1951 37.2625 39.4164 37.4713 41.1701H35.179C34.9284 40.7275 34.3481 40.6231 33.6633 40.6231ZM42.3273 41.1075V44.9405H40.1394V41.1075H37.5381V39.3288H44.9286V41.1075H42.3273ZM43.4755 44.9405H45.939L46.3816 43.9802H49.1917L49.6343 44.9405H52.0978L49.0873 39.3288H46.486L43.4755 44.9405ZM55.2795 39.3204L57.743 42.2933V39.3204H59.9351V44.9322H57.4716L54.4569 41.5042V44.9322H52.269V39.3204H55.2795ZM61.2127 39.3288V44.9405H66.2066C67.7473 44.9614 68.8914 43.6587 68.8788 42.1346C68.8914 40.6023 67.7473 39.3079 66.2066 39.3288H61.2127ZM70.9081 44.9405H68.4446L71.4551 39.3288H74.0564L77.0668 44.9405H74.6033L74.1607 43.9802H71.3507L70.9081 44.9405ZM77.238 39.3246V44.9364H79.426V43.5668H81.3801L82.4364 44.9364H84.7663L83.5429 43.3622C83.9104 43.191 84.2068 42.9322 84.4281 42.5939C84.6536 42.2516 84.7663 41.8674 84.7663 41.4457C84.783 40.2849 83.8018 39.3121 82.6452 39.3246H77.238ZM85.4469 44.9405V39.3288H90.4404C91.9814 39.3079 93.1254 40.6023 93.1134 42.1346C93.1254 43.6587 91.9814 44.9614 90.4404 44.9405H85.4469ZM46.4048 36.4023H42.0499V32.2877L40.2449 36.4023H36.5514L34.7749 32.3088V36.4023H30.4064V24.7992H35.9193L38.4221 30.5778L41.0476 24.7992H46.4048V36.4023ZM60.611 36.4023H48.4346V24.7992H60.5155V28.3624H52.926V28.8533H60.2971V32.3482H52.926V32.8527H60.611V36.4023ZM76.078 36.4023H72.2944L72.2309 35.7134C71.2824 36.2521 69.9984 36.5661 68.3449 36.5661C65.9927 36.5661 63.9343 35.8626 62.7526 34.3333C62.0496 33.4312 61.6493 32.1125 61.6493 30.6212C61.6493 29.2625 61.9969 28.0136 62.7799 27.0048L62.7824 27.0015L62.785 26.9984C63.9744 25.5228 66.0762 24.6081 69.0684 24.6081C72.4883 24.6081 74.668 25.6591 75.6228 27.5997L75.6236 27.6012L75.6243 27.6027C75.8463 28.0625 75.9664 28.67 75.982 29.061L75.9863 29.1672H76.078V36.4023ZM82.2292 34.423L81.2328 36.4023H76.3562L82.5494 24.7992H87.4984L93.3514 36.4023H88.4044L87.4634 34.423H82.2292ZM29.7719 50.6923H93.3064V49.1331H29.7719V50.6923Z" fill="#394149"/>
<path fill-rule="evenodd" clip-rule="evenodd" d="M32.5 2.125H116.226C132.242 2.125 145.226 15.1087 145.226 31.125C145.226 47.1413 132.242 60.125 116.226 60.125H32.5C16.4837 60.125 3.5 47.1413 3.5 31.125C3.5 15.1087 16.4837 2.125 32.5 2.125ZM32.5 4.9315C18.0337 4.9315 6.3065 16.6587 6.3065 31.125C6.3065 45.5913 18.0337 57.3186 32.5 57.3186H116.226C130.692 57.3186 142.419 45.5913 142.419 31.125C142.419 16.6587 130.692 4.9315 116.226 4.9315H32.5Z" fill="#394149"/>
</svg>
