<svg width="81" height="71" viewBox="0 0 81 71" fill="none" xmlns="http://www.w3.org/2000/svg">
<path d="M17.9305 59.9489H21.4637C21.4256 60.3047 21.3493 61.0037 21.0951 61.4994C20.2944 63.2151 18.4516 64.1683 14.9566 64.1683C12.1605 64.1683 10.3431 63.4693 9.36446 62.2874C8.69086 61.4994 8.34766 60.4064 8.34766 59.0084C8.34766 57.7375 8.66545 56.6826 9.30085 55.9073C10.3176 54.6364 12.1478 53.8739 15.0201 53.8739C18.9345 53.8739 20.5613 55.2719 21.1587 56.7589C21.362 57.2799 21.4256 57.8646 21.4383 58.1823H17.9051C17.8923 57.9535 17.8034 57.6612 17.6509 57.4451C17.2823 56.9114 16.4689 56.5174 14.982 56.5174C13.6348 56.5174 12.6562 56.8605 12.2113 57.5595C11.9826 57.9027 11.8936 58.4111 11.8936 59.0465C11.8936 59.7328 12.008 60.2031 12.2495 60.5462C12.7452 61.2833 13.8509 61.5629 14.9947 61.5629C16.3291 61.5629 17.2822 61.296 17.7017 60.686C17.8543 60.4699 17.9178 60.2158 17.9305 59.9489Z" fill="#394149"/>
<path d="M32.3786 61.3596V64.0158H22.8594V54.0391H26.3036V61.3596H32.3786Z" fill="#394149"/>
<path d="M44.241 64.0158V61.5375H37.0857V60.2412H43.9487V57.8137H37.0857V56.5301H44.1521V54.0391H33.7305V64.0158H44.241Z" fill="#394149"/>
<path fill-rule="evenodd" clip-rule="evenodd" d="M54.714 62.173H49.3253L48.3975 64.0158H44.8008L50.126 54.0391H54.231L59.264 64.0158H55.591L54.714 62.173ZM50.4437 59.9362H53.634L52.4391 57.5214L52.0832 56.619L51.702 57.5341L50.4437 59.9362Z" fill="#394149"/>
<path fill-rule="evenodd" clip-rule="evenodd" d="M72.0348 57.0766C72.0348 56.1742 71.8188 55.526 71.3608 55.0558C70.7638 54.4203 69.7338 54.0391 68.1588 54.0391H60.2148V64.0158H63.6088V60.4954H66.6968L69.1748 64.0158H72.9628L69.9508 59.9489C70.6238 59.8472 71.1708 59.4405 71.5258 58.9575C71.8438 58.5127 72.0348 57.8518 72.0348 57.0766ZM68.7298 57.3943C68.7298 57.5595 68.7048 57.7629 68.6158 57.9154C68.4888 58.1696 68.1588 58.2713 67.6118 58.2713H63.6208V56.4538H67.5478C68.0818 56.4538 68.4378 56.5428 68.6158 56.8732C68.7048 57.0003 68.7298 57.2037 68.7298 57.3943Z" fill="#394149"/>
<path d="M53.2965 8.6008C53.2965 8.7661 53.2715 8.9694 53.1825 9.1219C53.0555 9.3761 52.7245 9.4778 52.1782 9.4778H48.1875V7.6604H52.1146C52.6485 7.6604 53.0045 7.7493 53.1825 8.0798C53.2715 8.2069 53.2965 8.4102 53.2965 8.6008Z" fill="#394149"/>
<path d="M63.2344 11.1428H66.4244L65.2294 8.72798L64.8734 7.82568L64.4924 8.74078L63.2344 11.1428Z" fill="#394149"/>
<path fill-rule="evenodd" clip-rule="evenodd" d="M2.5415 8.57735C2.953 4.52555 6.3749 1.36365 10.5353 1.36365H70.465C74.903 1.36365 78.5 4.96115 78.5 9.39895V59.6847C78.5 64.1225 74.903 67.72 70.465 67.72H10.5353C6.0975 67.72 2.5 64.1225 2.5 59.6847V9.39895C2.5 9.12155 2.5141 8.84755 2.5415 8.57735ZM4.174 23.8382L31.181 32.9721C31.9167 32.2256 32.9179 31.5767 34.1223 31.0711C34.3992 30.9548 34.685 30.847 34.9784 30.7478L23.7187 19.3234H32.5325L37.4804 30.1407C38.1338 30.0382 38.8055 29.9729 39.4864 29.9468C39.7129 29.9381 39.9394 29.9337 40.1655 29.9337V19.3234H47.7983L42.8504 30.1409C43.6126 30.2606 44.3526 30.4313 45.0552 30.6513C45.9595 30.9345 46.7826 31.2931 47.5007 31.7138L68.652 19.3234H76.826V23.6118L45.8647 34.0831C45.2139 33.4227 44.2434 32.8903 43.0759 32.553C41.9085 32.2158 40.5966 32.0889 39.306 32.1884C38.0155 32.2879 36.8044 32.6094 35.8257 33.1121C34.8471 33.6149 34.1449 34.2764 33.808 35.0129C33.4711 35.7494 33.5146 36.5279 33.933 37.25C34.3514 37.972 35.126 38.6053 36.1586 39.0695C37.1913 39.5336 38.4358 39.8079 39.7347 39.8578C40.4564 39.8855 41.177 39.8433 41.8683 39.7347C42.4208 39.648 42.9551 39.5189 43.4558 39.3495L53.717 49.7603H46.4547L42.8499 41.8807C41.0892 42.1571 39.2373 42.1565 37.4804 41.8808L33.8762 49.7603H26.6141L34.9783 41.2738C34.1952 41.0089 33.4724 40.6845 32.8296 40.308L16.6939 49.7603H4.174V48.1834L31.1809 39.0494C30.5595 38.4189 30.1337 37.7253 29.9295 37.0007C29.6881 36.1442 29.7636 35.2705 30.1445 34.4379L4.174 30.3615V23.8382ZM76.826 48.4097L40.1655 36.0107L76.826 41.7651V48.4097ZM76.826 51.4343H4.174V59.6847C4.174 63.1979 7.022 66.0459 10.5353 66.0459H70.465C73.978 66.0459 76.826 63.1979 76.826 59.6847V51.4343ZM22.0029 11.3716V5.24575H18.5968V11.0665C18.5968 12.1087 17.6309 12.8077 16.0042 12.8077C14.3011 12.8077 13.3733 12.1341 13.3733 11.0538V5.24575H9.9291V11.0538C9.9291 14.0786 12.4075 15.3623 15.8644 15.3623C19.5628 15.3623 22.0029 14.0659 22.0029 11.3716ZM33.4738 15.2225V12.5662H27.3988V5.24575H23.9546V15.2225H33.4738ZM43.7096 5.24575V7.74945H39.4902V15.2225H36.0078V7.74945H31.8011V5.24575H43.7096ZM56.6 8.28325C56.6 7.38095 56.384 6.73275 55.927 6.26245C55.33 5.62705 54.3 5.24575 52.724 5.24575H44.7809V15.2225H48.1742V11.702H51.2626L53.741 15.2225H57.528L54.516 11.1555C55.19 11.0538 55.736 10.6471 56.092 10.1642C56.41 9.71945 56.6 9.05855 56.6 8.28325ZM67.502 13.3796H62.113L61.186 15.2225H57.589L62.914 5.24575H67.019L72.052 15.2225H68.379L67.502 13.3796Z" fill="#394149"/>
</svg>
