<svg width="75" height="61" viewBox="0 0 75 61" fill="none" xmlns="http://www.w3.org/2000/svg">
<path d="M25.0456 20.7459C25.0456 20.5935 25.0456 18.3762 25.0456 18.3762H23.728C23.728 18.3762 23.728 20.5591 23.728 20.628C23.728 21.0311 23.3544 21.3015 22.7251 21.3015C22.0663 21.3015 21.7074 21.0409 21.7074 20.623C21.7074 20.5542 21.7074 18.3762 21.7074 18.3762H20.375C20.375 18.3762 20.375 20.446 20.375 20.623C20.375 21.7931 21.3337 22.2897 22.671 22.2897C24.1017 22.2897 25.0456 21.7882 25.0456 20.7459Z" fill="#394149"/>
<path d="M29.4833 22.2357V21.2082H27.1333V18.3763H25.8009V22.2357H29.4833Z" fill="#394149"/>
<path d="M33.4426 19.3448V18.3762H28.8359V19.3448H30.4632V22.2356H31.8103V19.3448H33.4426Z" fill="#394149"/>
<path d="M35.2133 22.2356V18.3762H33.8613V22.2356H35.2133Z" fill="#394149"/>
<path d="M41.4172 22.2357V18.3763H39.7505L38.6984 20.692L37.6955 18.3763H35.9747V22.2357H37.2284V20.1512L38.133 22.2357H39.254L40.1684 20.1512V22.2357H41.4172Z" fill="#394149"/>
<path d="M43.5061 21.5227H45.5907L45.93 22.2356H47.3508L45.4039 18.3762H43.8159L41.7559 22.2356H43.1472L43.5061 21.5227ZM45.1728 20.6574H43.9388L44.4255 19.7282L44.573 19.3743L44.7107 19.7233L45.1728 20.6574Z" fill="#394149"/>
<path d="M51.5284 19.3448V18.3762H46.9219V19.3448H48.5492V22.2356H49.8964V19.3448H51.5284Z" fill="#394149"/>
<path d="M56.0084 22.2356V21.2769H53.2414V20.7754H55.8954V19.8364H53.2414V19.3398H55.9744V18.3762H51.9434V22.2356H56.0084Z" fill="#394149"/>
<path d="M30.424 24.2874H29.1506C29.1506 24.2874 28.3197 26.7161 28.3197 26.7751C28.3197 26.7161 27.5429 24.2874 27.5429 24.2874H26.1614C26.1614 24.2874 25.3895 26.7161 25.3895 26.7751C25.3895 26.7161 24.5537 24.2874 24.5537 24.2874H23.123L24.5685 28.1468H26.009C26.009 28.1468 26.7858 25.841 26.7907 25.7771C26.7956 25.841 27.5675 28.1468 27.5675 28.1468H29.0129L30.424 24.2874Z" fill="#394149"/>
<path d="M32.1665 28.1468V24.2874H30.8145V28.1468H32.1665Z" fill="#394149"/>
<path d="M37.4245 28.1467V24.2873H36.1659V26.3866L34.3124 24.2873H32.9259V28.1467H34.1944V25.9982L36.1069 28.1467H37.4245Z" fill="#394149"/>
<path d="M42.6919 28.1468V24.2874H41.4333V26.3867L39.5798 24.2874H38.1934V28.1468H39.4618V25.9983L41.3743 28.1468H42.6919Z" fill="#394149"/>
<path d="M47.5249 28.1468V27.1881H44.757V26.6866H47.4118V25.7476H44.757V25.251H47.4905V24.2874H43.459V28.1468H47.5249Z" fill="#394149"/>
<path d="M52.723 25.4623C52.723 25.1133 52.639 24.8625 52.462 24.6806C52.231 24.4348 51.833 24.2873 51.223 24.2873H48.1506V28.1467H49.4633V26.7849H50.658L51.617 28.1467H53.082L51.917 26.5734C52.177 26.5341 52.389 26.3768 52.526 26.19C52.649 26.0179 52.723 25.7622 52.723 25.4623ZM51.445 25.5852C51.445 25.6492 51.435 25.7278 51.4 25.7868C51.351 25.8851 51.223 25.9245 51.012 25.9245H49.4682V25.2214H50.987C51.194 25.2214 51.332 25.2558 51.4 25.3837C51.435 25.4328 51.445 25.5115 51.445 25.5852Z" fill="#394149"/>
<path d="M25.6002 31.9437C25.6002 31.8806 25.6002 30.0578 25.6002 30.0578H25.1399C25.1399 30.0578 25.1399 31.8731 25.1399 31.914C25.1399 32.352 24.7278 32.6008 24.1338 32.6008C23.4322 32.6008 23.0869 32.3335 23.0869 31.9103C23.0869 31.8694 23.0869 30.0578 23.0869 30.0578H22.6229C22.6229 30.0578 22.6229 31.8249 22.6229 31.8954C22.6229 32.6676 23.2243 33.0091 24.1153 33.0091C25.0359 33.0091 25.6002 32.6453 25.6002 31.9437Z" fill="#394149"/>
<path d="M28.904 32.9721V32.5452H26.8956V30.0579H26.4316V32.9721H28.904Z" fill="#394149"/>
<path d="M31.5396 30.4811V30.0579H28.4434V30.4811H29.7576V32.9721H30.2254V30.4811H31.5396Z" fill="#394149"/>
<path d="M34.8395 30.8819C34.8395 30.674 34.7949 30.5218 34.717 30.3993C34.5796 30.1951 34.316 30.0578 33.878 30.0578H31.9921V32.972H32.4487V31.7432H33.7777L34.5907 32.972H35.1253L34.2455 31.6652C34.4682 31.6393 34.6427 31.513 34.7355 31.3497C34.8024 31.2383 34.8395 31.075 34.8395 30.8819ZM34.3791 30.919C34.3791 31.0007 34.3606 31.101 34.3272 31.1678C34.2678 31.2754 34.1304 31.3311 33.9077 31.3348H32.4524C32.4524 31.3274 32.4524 30.4736 32.4524 30.4736H33.8223C34.1007 30.4736 34.2492 30.5404 34.3272 30.6666C34.3606 30.726 34.3791 30.8262 34.3791 30.919Z" fill="#394149"/>
<path d="M36.1599 32.2519H37.9753L38.3465 32.9721H38.844L37.3664 30.0579H36.8207L35.2949 32.9721H35.7812L36.1599 32.2519ZM37.7822 31.8398H36.3604L36.9506 30.7224L37.0806 30.4514L37.2105 30.7224L37.7822 31.8398Z" fill="#394149"/>
<path d="M43.553 32.6936C43.6681 32.5599 43.7201 32.3706 43.7201 32.1664C43.7201 31.9734 43.6644 31.7803 43.5493 31.6615C43.4342 31.5502 43.2486 31.4574 43.0444 31.4388C43.1632 31.4202 43.256 31.346 43.3191 31.268C43.4194 31.1529 43.4787 30.9673 43.4787 30.7817C43.4787 30.5849 43.4194 30.4067 43.2931 30.2842C43.1558 30.1469 42.9219 30.0578 42.5952 30.0578H40.635V32.972H42.74C43.1335 32.972 43.4082 32.8718 43.553 32.6936ZM42.9998 30.8745C42.9998 31.0044 42.959 31.1195 42.8885 31.1863C42.8179 31.2643 42.6991 31.2977 42.5729 31.2977H41.0879V30.4587H42.4875C42.6583 30.4587 42.7882 30.4921 42.8773 30.5738C42.9553 30.648 42.9998 30.7557 42.9998 30.8745ZM43.1483 32.4114C43.0555 32.5154 42.8959 32.5674 42.662 32.5674H41.0879V31.7024H42.6732C42.8885 31.7024 43.037 31.7469 43.1261 31.8323C43.2077 31.9103 43.2412 32.0105 43.2412 32.1256C43.2412 32.2444 43.2152 32.3446 43.1483 32.4114Z" fill="#394149"/>
<path d="M47.0905 32.9721V32.5452H44.826V31.7136H47.0014V31.2904H44.826V30.4811H47.0645V30.0579H44.373V32.9721H47.0905Z" fill="#394149"/>
<path d="M50.7178 32.1107C50.7178 31.6355 50.4028 31.3905 49.6268 31.3014C49.4965 31.2829 49.2143 31.2532 49.0621 31.2346C48.3419 31.1492 48.1229 31.0527 48.1229 30.804C48.1229 30.5627 48.3642 30.4253 49.0918 30.4253C49.6558 30.4253 49.9458 30.5367 50.0908 30.7371C50.1318 30.7928 50.1538 30.8597 50.1648 30.9116H50.6618C50.6478 30.8262 50.6138 30.7074 50.5618 30.6109C50.3618 30.2657 49.9498 30.0169 49.0918 30.0169C48.0672 30.0132 47.644 30.3845 47.644 30.8448C47.644 31.3051 47.9744 31.539 48.832 31.6393C48.9805 31.6578 49.244 31.6875 49.374 31.7024C50.0388 31.784 50.2468 31.8843 50.2468 32.1627C50.2468 32.4189 50.0088 32.6045 49.2477 32.6045C48.6241 32.6045 48.2899 32.4931 48.1563 32.2778C48.1155 32.2184 48.0895 32.1256 48.0858 32.0625H47.5957C47.6069 32.1961 47.644 32.3409 47.7108 32.456C47.9039 32.8087 48.3568 33.0129 49.2329 33.0129C50.2798 33.0129 50.7178 32.675 50.7178 32.1107Z" fill="#394149"/>
<path d="M54.0452 30.4811V30.0579H50.9492V30.4811H52.2632V32.9721H52.7312V30.4811H54.0452Z" fill="#394149"/>
<path d="M21.3098 35.505C21.3098 35.208 21.2504 35.0075 21.1501 34.8553C21.0091 34.6362 20.7343 34.5212 20.2554 34.5212H18.4141V37.4354H18.8744V36.485C18.8744 36.485 20.1738 36.485 20.2369 36.485C20.6861 36.4813 20.9942 36.3774 21.1576 36.1398C21.2615 35.995 21.3098 35.7871 21.3098 35.505ZM20.842 35.505C20.842 35.6534 20.8271 35.7648 20.7789 35.8391C20.6935 35.9764 20.519 36.0618 20.1589 36.0618C20.1255 36.0618 18.8744 36.0618 18.8744 36.0618V34.937H20.1738C20.5116 34.937 20.6861 35.0149 20.7789 35.1671C20.8234 35.2339 20.842 35.3565 20.842 35.505Z" fill="#394149"/>
<path d="M24.6687 37.4354V37.0085H22.4041V36.1769H24.5796V35.7537H22.4041V34.9444H24.6427V34.5212H21.9512V37.4354H24.6687Z" fill="#394149"/>
<path d="M28.2107 35.3453C28.2107 35.1374 28.1662 34.9852 28.0882 34.8627C27.9508 34.6585 27.6873 34.5212 27.2492 34.5212H25.3633V37.4354H25.8199V36.2066H27.149L27.962 37.4354H28.4966L27.6167 36.1286C27.8395 36.1027 28.014 35.9764 28.1068 35.8131C28.1736 35.7017 28.2107 35.5384 28.2107 35.3453ZM27.7504 35.3824C27.7504 35.4641 27.7318 35.5644 27.6984 35.6312C27.639 35.7388 27.5016 35.7945 27.2789 35.7982H25.8236C25.8236 35.7908 25.8236 34.937 25.8236 34.937H27.1935C27.4719 34.937 27.6204 35.0038 27.6984 35.13C27.7318 35.1894 27.7504 35.2896 27.7504 35.3824Z" fill="#394149"/>
<path d="M31.6518 34.9444V34.5212H29.0605V37.4354H29.5208V36.1955H31.5553V35.7611H29.5208V34.9444H31.6518Z" fill="#394149"/>
<path d="M33.7658 34.4692C33.1458 34.4692 32.7189 34.6214 32.4144 34.9407C32.1583 35.1894 32.0469 35.5347 32.0469 35.969C32.0469 36.4442 32.1917 36.8006 32.459 37.0419C32.7449 37.3278 33.1829 37.4762 33.7658 37.4762C34.3672 37.4762 34.8349 37.3278 35.1134 37.027C35.3547 36.782 35.4809 36.4331 35.4809 35.9653C35.4809 35.5124 35.3732 35.1671 35.1171 34.9221C34.8238 34.6177 34.3857 34.4692 33.7658 34.4692ZM33.7658 37.0605C33.3574 37.0605 33.0678 36.9714 32.8488 36.7932C32.6261 36.6113 32.5184 36.3328 32.5184 35.9764C32.5184 35.6423 32.6112 35.3639 32.7894 35.1968C32.9936 35.0038 33.3054 34.8887 33.7621 34.8887C34.2335 34.8887 34.5268 35.0001 34.7458 35.1931C34.9315 35.3565 35.0131 35.646 35.0131 35.9727C35.0131 36.3031 34.9278 36.5853 34.7384 36.756C34.5194 36.9602 34.2113 37.0605 33.7658 37.0605Z" fill="#394149"/>
<path d="M38.9626 35.3453C38.9626 35.1374 38.918 34.9852 38.8401 34.8627C38.7027 34.6585 38.4391 34.5212 38.0011 34.5212H36.1152V37.4354H36.5718V36.2066H37.9008L38.7139 37.4354H39.2484L38.3686 36.1286C38.5913 36.1027 38.7658 35.9764 38.8586 35.8131C38.9255 35.7017 38.9626 35.5384 38.9626 35.3453ZM38.5022 35.3824C38.5022 35.4641 38.4837 35.5644 38.4503 35.6312C38.3909 35.7388 38.2535 35.7945 38.0308 35.7982H36.5755C36.5755 35.7908 36.5755 34.937 36.5755 34.937H37.9454C38.2238 34.937 38.3723 35.0038 38.4503 35.13C38.4837 35.1894 38.5022 35.2896 38.5022 35.3824Z" fill="#394149"/>
<path d="M43.4044 37.4354V34.5212H42.803L41.6039 36.9194L40.427 34.5212H39.8145V37.4354H40.2563V35.1931L41.3551 37.4354H41.8377L42.9626 35.1931V37.4354H43.4044Z" fill="#394149"/>
<path d="M44.7068 36.7152H46.5222L46.8934 37.4354H47.3909L45.9133 34.5212H45.3676L43.8418 37.4354H44.3281L44.7068 36.7152ZM46.3291 36.3031H44.9073L45.4975 35.1857L45.6275 34.9147L45.7574 35.1857L46.3291 36.3031Z" fill="#394149"/>
<path d="M50.7353 37.4354V34.5212H50.2933V36.7857L48.3633 34.5212H47.8398V37.4354H48.289V35.156L50.2343 37.4354H50.7353Z" fill="#394149"/>
<path d="M54.7403 36.3477H54.2573C54.2423 36.4813 54.1903 36.615 54.0973 36.7152C53.8973 36.9491 53.5783 37.0493 53.0883 37.0493C52.6763 37.0493 52.2343 36.9342 52.0223 36.6335C51.9113 36.4925 51.8403 36.2846 51.8403 35.9727C51.8403 35.6943 51.8893 35.4864 51.9963 35.3453C52.1743 35.0595 52.5493 34.911 53.0773 34.911C53.5893 34.911 53.9123 35.052 54.0833 35.2488C54.1793 35.3527 54.2353 35.4753 54.2533 35.62H54.7363C54.7213 35.4567 54.6693 35.2636 54.5583 35.1003C54.3203 34.7476 53.8823 34.4692 53.0803 34.4692C52.3163 34.4692 51.8593 34.7142 51.6063 35.0817C51.4433 35.2933 51.3613 35.5903 51.3613 35.969C51.3613 36.3922 51.4623 36.7041 51.6363 36.9231C51.8893 37.2684 52.3753 37.4762 53.1103 37.4762C53.8643 37.4762 54.3133 37.2498 54.5363 36.8897C54.6623 36.7152 54.7253 36.5073 54.7403 36.3477Z" fill="#394149"/>
<path d="M58.0637 37.4354V37.0085H55.7987V36.1769H57.9747V35.7537H55.7987V34.9444H58.0377V34.5212H55.3457V37.4354H58.0637Z" fill="#394149"/>
<path d="M24.1118 40.3304L24.667 42.0392H26.4637L25.0102 43.0953L25.5654 44.804L24.1118 43.748L22.6582 44.804L23.2135 43.0953L21.7599 42.0392H23.5566L24.1118 40.3304Z" fill="#394149"/>
<path d="M30.521 40.3306L31.0875 42.0393H32.9209L31.4377 43.0954L32.0042 44.8042L30.521 43.7481L29.0378 44.8042L29.6043 43.0954L28.1211 42.0393H29.9545L30.521 40.3306Z" fill="#394149"/>
<path d="M36.8802 40.3305L37.4468 42.0392H39.2801L37.7969 43.0953L38.3635 44.8041L36.8802 43.748L35.397 44.8041L35.9635 43.0953L34.4803 42.0392H36.3137L36.8802 40.3305Z" fill="#394149"/>
<path d="M43.2397 40.3306L43.8062 42.0393H45.6396L44.1564 43.0954L44.7229 44.8042L43.2397 43.7481L41.7565 44.8042L42.323 43.0954L40.8398 42.0393H42.6732L43.2397 40.3306Z" fill="#394149"/>
<path d="M49.649 40.3305L50.204 42.0392H52.001L50.547 43.0953L51.102 44.8041L49.649 43.748L48.1953 44.8041L48.7506 43.0953L47.297 42.0392H49.0937L49.649 40.3305Z" fill="#394149"/>
<path d="M27.2255 11.5012L27.6453 12.7932H29.0038L27.9048 13.5917L28.3246 14.8836L27.2255 14.0852L26.1265 14.8836L26.5463 13.5917L25.4473 12.7932H26.8058L27.2255 11.5012Z" fill="#394149"/>
<path d="M32.0723 11.4994L32.5007 12.7914H33.8868L32.7654 13.5899L33.1937 14.8818L32.0723 14.0833L30.9508 14.8818L31.3792 13.5899L30.2577 12.7914H31.6439L32.0723 11.4994Z" fill="#394149"/>
<path d="M36.881 11.4995L37.3093 12.7915H38.6955L37.5741 13.59L38.0024 14.8819L36.881 14.0834L35.7595 14.8819L36.1879 13.59L35.0664 12.7915H36.4526L36.881 11.4995Z" fill="#394149"/>
<path d="M41.6876 11.4995L42.1159 12.7915H43.5021L42.3807 13.59L42.809 14.8819L41.6876 14.0834L40.5661 14.8819L40.9945 13.59L39.873 12.7915H41.2592L41.6876 11.4995Z" fill="#394149"/>
<path d="M46.5341 11.4994L46.9539 12.7914H48.3124L47.2134 13.5899L47.6332 14.8818L46.5341 14.0833L45.4351 14.8818L45.8549 13.5899L44.7559 12.7914H46.1143L46.5341 11.4994Z" fill="#394149"/>
<path fill-rule="evenodd" clip-rule="evenodd" d="M7.87609 34.7555C6.02349 23.1646 11.4303 11.6968 22.2544 6.77222L22.3543 6.99182C11.6391 11.8668 6.27699 23.2224 8.11429 34.7174C10.147 47.4347 20.4064 55.0617 32.9699 55.4294L32.9628 55.6706C20.3014 55.3 9.92969 47.604 7.87609 34.7555Z" fill="#394149"/>
<path d="M19.9083 9.73028C17.908 9.77588 15.5669 10.9039 14.1855 12.5423C15.2933 13.571 17.0757 13.1907 18.3584 12.9803C20.1891 12.6801 22.1359 12.0985 23.8634 11.2752C23.1531 9.76318 21.2397 9.69998 19.9083 9.73028Z" fill="#394149"/>
<path d="M18.3347 7.2626C17.1499 9.1082 15.7379 10.9425 14.2013 12.5578C12.9157 11.351 13.6917 9.3427 14.2164 8.0938C15.1669 5.8308 17.4458 3.8793 19.8283 2.8808C20.4822 4.3685 19.0619 6.1298 18.3347 7.2626Z" fill="#394149"/>
<path d="M14.1187 14.9056C12.2457 15.5714 10.6362 17.4456 9.82812 19.3272C11.1749 19.9534 12.706 19.0491 13.8261 18.447C15.3641 17.6202 16.9332 16.4794 18.1678 15.1592C17.0523 13.9822 15.3585 14.465 14.1187 14.9056Z" fill="#394149"/>
<path d="M11.8481 13.0614C11.4381 15.1664 10.7507 17.3482 9.84792 19.3368C8.27212 18.5936 8.33212 16.465 8.39962 15.1104C8.51482 12.7983 9.80832 10.1617 11.6092 8.48608C12.7117 9.66808 12.1093 11.7205 11.8481 13.0614Z" fill="#394149"/>
<path d="M10.5149 21.5874C8.95416 22.8186 8.00816 25.1003 7.78906 27.1378C9.26546 27.3073 10.4456 25.9637 11.3237 25.0419C12.5192 23.7868 13.6509 22.2126 14.3696 20.5657C12.9622 19.7979 11.5315 20.7854 10.5149 21.5874Z" fill="#394149"/>
<path d="M7.81151 20.5481C8.08981 22.6738 8.09041 24.9735 7.81201 27.1407C6.09501 26.9298 5.52551 24.8682 5.18911 23.5749C4.60831 21.3425 4.99771 18.4589 6.12911 16.2887C7.54301 17.0714 7.63371 19.1894 7.81151 20.5481Z" fill="#394149"/>
<path d="M9.29147 28.881C8.05647 30.6901 7.62217 33.5252 8.17757 35.804C9.80957 35.4176 10.6186 33.5699 11.2682 32.265C12.1315 30.5307 12.8612 28.5074 13.1224 26.5223C11.3523 26.1539 10.105 27.6892 9.29147 28.881Z" fill="#394149"/>
<path d="M6.04876 28.6981C7.01096 30.9258 7.76186 33.3777 8.20126 35.7985C6.32956 36.2006 4.98246 34.2352 4.19986 32.932C2.80656 30.6122 2.40066 27.3963 2.91106 24.6211C4.62416 24.9646 5.46246 27.3411 6.04876 28.6981Z" fill="#394149"/>
<path d="M10.1554 36.7522C9.4923 38.9468 9.9532 41.9303 11.2958 43.9935C12.7712 43.0329 12.9754 40.9187 13.1845 39.4028C13.4602 37.4024 13.59 35.1864 13.2475 33.1121C11.3604 33.353 10.5983 35.2861 10.1554 36.7522Z" fill="#394149"/>
<path d="M6.8752 37.6916C8.5308 39.5913 10.058 41.7573 11.3175 43.9792C9.6093 45.0456 7.6048 43.5887 6.3891 42.5577C4.2324 40.7288 2.832 37.6203 2.5 34.6897C4.2948 34.4485 5.8765 36.5455 6.8752 37.6916Z" fill="#394149"/>
<path d="M13.6341 44.2217C13.7764 46.7762 15.4395 49.4567 17.6539 50.9824C18.7233 49.5183 18.053 47.275 17.6882 45.7091C17.1971 43.6008 16.5174 41.4054 15.5073 39.4574C13.7459 40.3882 13.5404 42.5394 13.6341 44.2217Z" fill="#394149"/>
<path d="M10.6568 46.3796C13.0559 47.7127 15.4481 49.2858 17.6723 50.9597C16.3403 52.7137 13.6779 52.0143 12.0275 51.4505C9.11907 50.457 6.52618 47.838 5.17188 44.9283C6.88898 44.0438 9.23957 45.5921 10.6568 46.3796Z" fill="#394149"/>
<path d="M20.4669 50.4624C21.9068 53.0902 25.1881 54.8045 28.2781 55.2172C28.6107 53.3068 26.5436 51.4153 25.4172 50.1779C23.8135 48.4162 22.1424 46.588 20.2688 45.0648C18.8651 46.6946 19.6072 48.8935 20.4669 50.4624Z" fill="#394149"/>
<path d="M18.4111 53.7927C21.6842 54.133 25.0128 54.6229 28.284 55.1878C27.9717 57.5982 24.1466 57.9872 22.4101 58.1295C18.8496 58.4213 14.8888 56.9901 12.1309 54.5807C13.5007 52.9689 16.6676 53.6115 18.4111 53.7927Z" fill="#394149"/>
<path d="M24.7142 4.7491C22.5167 5.376 19.9445 6.5653 18.6738 8.7607C20.9803 8.5093 23.2472 7.6886 25.4641 7.0633C27.9473 6.3628 30.562 5.8389 32.9662 4.872C30.3332 3.8186 27.2294 4.0315 24.7142 4.7491Z" fill="#394149"/>
<path fill-rule="evenodd" clip-rule="evenodd" d="M67.2284 34.7174C69.0654 23.2224 63.7034 11.867 52.9884 6.99182L53.0884 6.77222C63.9124 11.6969 69.3195 23.1646 67.4664 34.7555C65.4135 47.604 55.0414 55.3 42.38 55.6706L42.373 55.4294C54.9364 55.0617 65.1954 47.4347 67.2284 34.7174Z" fill="#394149"/>
<path d="M55.4355 9.73028C57.4355 9.77588 59.7765 10.9039 61.1585 12.5423C60.0505 13.571 58.2675 13.1907 56.9855 12.9803C55.1545 12.6801 53.2075 12.0985 51.4805 11.2752C52.1905 9.76318 54.1035 9.69998 55.4355 9.73028Z" fill="#394149"/>
<path d="M57.0073 7.26266C58.1923 9.10826 59.6043 10.9426 61.1403 12.5579C62.4263 11.3511 61.6503 9.34276 61.1253 8.09386C60.1753 5.83086 57.8963 3.87936 55.5133 2.88086C54.8593 4.36856 56.2803 6.12986 57.0073 7.26266Z" fill="#394149"/>
<path d="M61.2248 14.9056C63.0978 15.5714 64.7068 17.4456 65.5148 19.3272C64.1678 19.9534 62.6368 19.0491 61.5168 18.447C59.9788 17.6202 58.4098 16.4794 57.1758 15.1592C58.2908 13.9822 59.9848 14.465 61.2248 14.9056Z" fill="#394149"/>
<path d="M63.4943 13.0614C63.9043 15.1664 64.5913 17.3482 65.4943 19.3368C67.0703 18.5936 67.0103 16.465 66.9423 15.1104C66.8273 12.7983 65.5343 10.1617 63.7333 8.48608C62.6303 9.66808 63.2333 11.7205 63.4943 13.0614Z" fill="#394149"/>
<path d="M64.8267 21.5874C66.3877 22.8186 67.3337 25.1003 67.5527 27.1378C66.0767 27.3073 64.8967 25.9637 64.0187 25.0419C62.8227 23.7868 61.6907 22.2126 60.9727 20.5657C62.3797 19.7979 63.8107 20.7854 64.8267 21.5874Z" fill="#394149"/>
<path d="M67.5316 20.5482C67.2526 22.6737 67.2526 24.9736 67.5306 27.1408C69.2476 26.9299 69.8176 24.8683 70.1536 23.575C70.7346 21.3426 70.3446 18.459 69.2136 16.2888C67.7996 17.0715 67.7086 19.1895 67.5316 20.5482Z" fill="#394149"/>
<path d="M66.0517 28.881C67.2867 30.6901 67.7207 33.5252 67.1657 35.804C65.5337 35.4176 64.7247 33.57 64.0747 32.265C63.2117 30.5307 62.4817 28.5074 62.2207 26.5223C63.9907 26.1539 65.2387 27.6892 66.0517 28.881Z" fill="#394149"/>
<path d="M69.2946 28.6981C68.3326 30.9258 67.5816 33.3777 67.1426 35.7985C69.0136 36.2006 70.3606 34.2352 71.1436 32.932C72.5366 30.6122 72.9426 27.3963 72.4326 24.6211C70.7196 24.9646 69.8806 27.3411 69.2946 28.6981Z" fill="#394149"/>
<path d="M65.188 36.7521C65.851 38.9467 65.391 41.9302 64.048 43.9934C62.573 43.0328 62.368 40.9186 62.159 39.4027C61.884 37.4023 61.754 35.1863 62.096 33.112C63.983 33.3529 64.745 35.286 65.188 36.7521Z" fill="#394149"/>
<path d="M68.4674 37.6917C66.8124 39.5915 65.2854 41.7574 64.0254 43.9793C65.7334 45.0457 67.7384 43.5888 68.9544 42.5578C71.1104 40.7289 72.5114 37.6204 72.8434 34.6898C71.0484 34.4486 69.4664 36.5456 68.4674 37.6917Z" fill="#394149"/>
<path d="M61.708 44.2217C61.566 46.7762 59.903 49.4567 57.689 50.9824C56.619 49.5183 57.29 47.2751 57.654 45.7091C58.145 43.6008 58.825 41.4054 59.835 39.4574C61.597 40.3882 61.802 42.5394 61.708 44.2217Z" fill="#394149"/>
<path d="M64.687 46.3795C62.288 47.7126 59.896 49.2857 57.672 50.9596C59.004 52.7136 61.666 52.0142 63.316 51.4504C66.225 50.4569 68.818 47.8379 70.172 44.9282C68.455 44.0437 66.104 45.592 64.687 46.3795Z" fill="#394149"/>
<path d="M54.8765 50.4623C53.4365 53.0901 50.1555 54.8044 47.0651 55.2171C46.7325 53.3067 48.7995 51.4152 49.9265 50.1778C51.5295 48.4161 53.2005 46.5879 55.0745 45.0647C56.4785 46.6945 55.7355 48.8934 54.8765 50.4623Z" fill="#394149"/>
<path d="M56.9314 53.7927C53.6584 54.133 50.3304 54.6229 47.0586 55.1878C47.371 57.5982 51.1964 57.9872 52.9324 58.1295C56.4934 58.4213 60.4544 56.9901 63.2114 54.5807C61.8424 52.9689 58.6754 53.6115 56.9314 53.7927Z" fill="#394149"/>
<path d="M50.6271 4.7491C52.8241 5.376 55.3971 6.5653 56.6671 8.7607C54.3611 8.5093 52.0941 7.6886 49.8771 7.0633C47.3939 6.3628 44.7792 5.8389 42.375 4.872C45.0081 3.8186 48.1118 4.0315 50.6271 4.7491Z" fill="#394149"/>
<path d="M39.0997 3.6129L37.9722 1.125L36.8659 3.5666L34.293 1.9714L35.9463 5.4457H40.0579L41.6515 1.9714L39.0997 3.6129Z" fill="#394149"/>
<path d="M40.0322 5.9856H35.9141V6.5933H40.0322V5.9856Z" fill="#394149"/>
<path d="M38.2678 52.9968L38.9314 55.039H41.0787L39.3415 56.3011L40.005 58.3433L38.2678 57.0812L36.5306 58.3433L37.1942 56.3011L35.457 55.039H37.6043L38.2678 52.9968Z" fill="#394149"/>
</svg>
