<svg width="98" height="51" viewBox="0 0 98 51" fill="none" xmlns="http://www.w3.org/2000/svg">
<path d="M25.0781 24.7014L25.2767 24.6594H41.7949L48.0018 30.8663H31.2432L25.0781 24.7014Z" fill="black"/>
<path d="M19.7626 24.6594L3.00391 24.6595L9.21079 30.8664H19.7624L19.7626 24.6594Z" fill="black"/>
<path d="M53.7695 6.82959H56.3436V14.8281H60.7647V16.995H53.7695V6.82959Z" fill="black"/>
<path d="M65.4377 17.2131C64.5748 17.2131 63.8189 17.058 63.1688 16.7477C62.5193 16.4278 62.0152 15.9916 61.6564 15.4389C61.3073 14.8766 61.1328 14.2319 61.1328 13.5047C61.1328 12.7776 61.3073 12.1377 61.6564 11.5851C62.0152 11.0228 62.5193 10.5865 63.1688 10.2763C63.8189 9.95632 64.5748 9.79639 65.4377 9.79639C66.3006 9.79639 67.0571 9.95632 67.7066 10.2763C68.356 10.5865 68.8553 11.0228 69.2043 11.5851C69.5631 12.1377 69.7425 12.7776 69.7425 13.5047C69.7425 14.2319 69.5631 14.8766 69.2043 15.4389C68.8553 15.9916 68.356 16.4278 67.7066 16.7477C67.0571 17.058 66.3006 17.2131 65.4377 17.2131ZM65.4377 15.2208C65.9515 15.2208 66.359 15.0705 66.6594 14.77C66.9695 14.4597 67.1246 14.038 67.1246 13.5047C67.1246 12.9715 66.9695 12.5546 66.6594 12.254C66.359 11.9438 65.9515 11.7887 65.4377 11.7887C64.9238 11.7887 64.5122 11.9438 64.2014 12.254C63.901 12.5546 63.7508 12.9715 63.7508 13.5047C63.7508 14.038 63.901 14.4597 64.2014 14.77C64.5122 15.0705 64.9238 15.2208 65.4377 15.2208Z" fill="black"/>
<path d="M74.5512 20.3399C74.086 20.3399 73.6159 20.2963 73.1403 20.209C72.6751 20.1218 72.2732 20.0054 71.9339 19.86V18.0858C72.6995 18.4154 73.5721 18.5803 74.5512 18.5803C75.259 18.5803 75.768 18.4348 76.0781 18.1439C76.398 17.8531 76.5579 17.4266 76.5579 16.8642V16.4424C76.277 16.6848 75.928 16.8739 75.5114 17.0096C75.104 17.1454 74.6673 17.2132 74.2021 17.2132C73.4657 17.2132 72.8156 17.0581 72.2538 16.7478C71.6912 16.4377 71.2504 16.0013 70.9298 15.439C70.6197 14.8767 70.4647 14.232 70.4647 13.5048C70.4647 12.768 70.6197 12.1184 70.9298 11.5561C71.2407 10.9938 71.6766 10.5624 72.2392 10.2618C72.801 9.95158 73.4463 9.79645 74.1729 9.79645C75.1721 9.79645 75.9961 10.1018 76.6455 10.7126V10.0146H79.1175V16.5152C79.1175 17.7271 78.7448 18.6675 77.998 19.3365C77.2609 20.0054 76.1122 20.3399 74.5512 20.3399ZM74.8418 15.2354C75.2396 15.2354 75.5935 15.1336 75.9036 14.93C76.2137 14.7264 76.4321 14.455 76.5579 14.1156V12.8941C76.4223 12.5547 76.1991 12.2881 75.889 12.0942C75.5789 11.8906 75.2298 11.7888 74.8418 11.7888C74.3189 11.7888 73.8969 11.9439 73.577 12.2541C73.2571 12.5547 73.0972 12.9668 73.0972 13.4903C73.0972 14.0235 73.2571 14.4501 73.577 14.7701C73.8969 15.0803 74.3189 15.2354 74.8418 15.2354Z" fill="black"/>
<path d="M84.0704 17.2131C83.2075 17.2131 82.451 17.058 81.8015 16.7477C81.1521 16.4278 80.648 15.9916 80.2892 15.4389C79.9401 14.8766 79.7656 14.2319 79.7656 13.5047C79.7656 12.7776 79.9401 12.1377 80.2892 11.5851C80.648 11.0228 81.1521 10.5865 81.8015 10.2763C82.451 9.95632 83.2075 9.79639 84.0704 9.79639C84.9333 9.79639 85.6892 9.95632 86.3393 10.2763C86.9888 10.5865 87.488 11.0228 87.8371 11.5851C88.1959 12.1377 88.3753 12.7776 88.3753 13.5047C88.3753 14.2319 88.1959 14.8766 87.8371 15.4389C87.488 15.9916 86.9888 16.4278 86.3393 16.7477C85.6892 17.058 84.9333 17.2131 84.0704 17.2131ZM84.0704 15.2208C84.5843 15.2208 84.9911 15.0705 85.2921 14.77C85.6023 14.4597 85.7573 14.038 85.7573 13.5047C85.7573 12.9715 85.6023 12.5546 85.2921 12.254C84.9911 11.9438 84.5843 11.7887 84.0704 11.7887C83.5566 11.7887 83.1442 11.9438 82.8341 12.254C82.5337 12.5546 82.3835 12.9715 82.3835 13.5047C82.3835 14.038 82.5337 14.4597 82.8341 14.77C83.1442 15.0705 83.5566 15.2208 84.0704 15.2208Z" fill="black"/>
<path d="M53.7695 20.7366H56.3436V30.902H53.7695V20.7366Z" fill="black"/>
<path d="M57.6484 23.9215H60.1204V24.6195C60.7699 24.0088 61.5946 23.7034 62.5931 23.7034C63.3197 23.7034 63.965 23.8585 64.5268 24.1688C65.0893 24.4693 65.5253 24.9007 65.8361 25.463C66.1463 26.0156 66.3013 26.6604 66.3013 27.3972C66.3013 28.1243 66.1463 28.7739 65.8361 29.3459C65.5253 29.9082 65.0893 30.3446 64.5268 30.6547C63.9747 30.965 63.3294 31.1201 62.5931 31.1201C62.1272 31.1201 61.6815 31.0474 61.2552 30.902C60.838 30.7663 60.489 30.5772 60.2081 30.3348V34.0869H57.6484V23.9215ZM61.9242 29.1278C62.4477 29.1278 62.8691 28.9727 63.189 28.6624C63.5088 28.3522 63.6688 27.9304 63.6688 27.3972C63.6688 26.864 63.5088 26.4471 63.189 26.1465C62.8691 25.8363 62.4477 25.6812 61.9242 25.6812C61.5362 25.6812 61.1871 25.783 60.877 25.9866C60.5668 26.1804 60.3436 26.4471 60.2081 26.7864V28.0225C60.3436 28.3619 60.5668 28.6333 60.877 28.8369C61.1871 29.0309 61.5362 29.1278 61.9242 29.1278Z" fill="black"/>
<path d="M70.1179 31.1201C69.5553 31.1201 68.9685 31.0619 68.358 30.9456C67.7475 30.839 67.2621 30.6839 66.904 30.4803V28.6043C67.301 28.8369 67.776 29.0309 68.3288 29.186C68.8913 29.3314 69.4051 29.4041 69.8703 29.4041C70.2097 29.4041 70.4572 29.3798 70.6123 29.3314C70.7673 29.2829 70.8445 29.186 70.8445 29.0405C70.8445 28.9242 70.7917 28.8321 70.6846 28.7643C70.5879 28.6867 70.4037 28.6091 70.1325 28.5315C69.8703 28.4443 69.5651 28.3522 69.216 28.2552C68.6243 28.0807 68.1591 27.9013 67.8198 27.7171C67.4804 27.5329 67.2287 27.3003 67.0639 27.0191C66.8991 26.738 66.8164 26.384 66.8164 25.9574C66.8164 25.2013 67.1119 24.6389 67.7036 24.2706C68.3044 23.8924 69.1242 23.7034 70.161 23.7034C70.6651 23.7034 71.1936 23.7567 71.7464 23.8633C72.3089 23.97 72.7303 24.1106 73.0119 24.2851V26.132C72.7205 25.9381 72.3332 25.7781 71.8486 25.6521C71.373 25.5261 70.9272 25.463 70.51 25.463C70.1805 25.463 69.9239 25.4969 69.7396 25.5648C69.5553 25.623 69.4636 25.7297 69.4636 25.8848C69.4636 26.0302 69.5553 26.1417 69.7396 26.2192C69.9239 26.2968 70.2535 26.3938 70.7284 26.5101C71.0385 26.5876 71.1699 26.6216 71.1212 26.6119C71.7415 26.7767 72.2213 26.9609 72.5606 27.1645C72.8999 27.3682 73.1377 27.6105 73.2733 27.8917C73.4187 28.1631 73.4917 28.5121 73.4917 28.9387C73.4917 29.6077 73.201 30.141 72.619 30.5384C72.0467 30.9262 71.213 31.1201 70.1179 31.1201Z" fill="black"/>
<path d="M77.313 31.12C76.3534 31.12 75.631 30.8534 75.1463 30.3202C74.6714 29.7869 74.4336 29.0841 74.4336 28.2115V23.9214H76.9932V27.9206C76.9932 28.7253 77.3568 29.1277 78.0835 29.1277C78.4137 29.1277 78.7141 29.0501 78.9853 28.895C79.2572 28.7399 79.4797 28.512 79.6542 28.2115V23.9214H82.2138V30.9019H79.7418V30.1456C79.4414 30.4656 79.0778 30.708 78.6508 30.8728C78.2246 31.0376 77.7782 31.12 77.313 31.12Z" fill="black"/>
<path d="M83.5232 23.9214H85.8936V24.6776C86.1842 24.3674 86.5187 24.1299 86.897 23.965C87.2752 23.7905 87.6778 23.7033 88.1041 23.7033C88.6276 23.7033 89.0449 23.7808 89.355 23.9359C89.6748 24.0911 89.9314 24.3237 90.1254 24.634C90.4161 24.3431 90.77 24.1153 91.1872 23.9505C91.6037 23.7857 92.0258 23.7033 92.452 23.7033C93.3734 23.7033 94.0277 23.9408 94.4157 24.4158C94.8037 24.8812 94.9977 25.555 94.9977 26.4373V30.9019H92.5542V26.8009C92.5542 26.4131 92.4812 26.1319 92.3359 25.9573C92.1906 25.7829 91.9479 25.6956 91.6086 25.6956C91.1726 25.6956 90.8187 25.8508 90.5475 26.1609C90.5572 26.3258 90.5621 26.5779 90.5621 26.9172V30.9019H88.1187V26.6991C88.1187 26.3403 88.0554 26.0834 87.9295 25.9283C87.8037 25.7732 87.5805 25.6956 87.2606 25.6956C86.7662 25.6956 86.3393 25.9719 85.9812 26.5245V30.9019H83.5232V23.9214Z" fill="black"/>
<path d="M25.2784 24.6595L25.0797 24.7016L31.2445 30.8664V47.625H25.9686L19.7617 41.4181H25.0376V24.6594H19.7617V19.3837H25.0376V2.625L31.2445 8.83189V19.3836L25.0376 19.3837V24.6594L25.2784 24.6595Z" fill="#555555"/>
<path d="M41.7969 24.6594L48.0038 30.8663V25.5904L41.7969 19.3835V24.6594Z" fill="#555555"/>
<path d="M54.1328 35.6736H57.8993C58.9656 35.6736 59.7944 35.9257 60.3862 36.4299C60.9869 36.934 61.288 37.6805 61.288 38.6694C61.288 39.668 60.9918 40.4146 60.4008 40.9091C59.809 41.4035 58.9753 41.6507 57.8993 41.6507H55.2671V45.839H54.1328V35.6736ZM57.8121 40.6909C58.5393 40.6909 59.1116 40.5455 59.5281 40.2546C59.9453 39.9541 60.1532 39.4257 60.1532 38.6694C60.1532 37.9035 59.9453 37.3751 59.5281 37.0843C59.1116 36.7837 58.5393 36.6335 57.8121 36.6335H55.2671V40.6909H57.8121Z" fill="#555555"/>
<path d="M62.7422 35.0918H63.8617V45.8389H62.7422V35.0918Z" fill="#555555"/>
<path d="M68.7143 46.0571C67.7833 46.0571 67.0657 45.805 66.5615 45.3008C66.0671 44.7967 65.8203 44.1229 65.8203 43.2794V38.8584H66.9398V43.3376C66.9398 44.5592 67.5746 45.17 68.845 45.17C69.3784 45.17 69.8435 45.0536 70.2413 44.821C70.6481 44.5882 71.0117 44.2198 71.3316 43.7157V38.8584H72.4518V45.8389H71.3608V44.7918C70.7308 45.6353 69.8484 46.0571 68.7143 46.0571Z" fill="#555555"/>
<path d="M76.9147 46.0572C76.4586 46.0572 75.9691 45.9893 75.4455 45.8536C74.9219 45.7275 74.5151 45.5676 74.2238 45.3736V44.4284C74.5923 44.6514 75.0144 44.8307 75.4893 44.9664C75.9739 45.1022 76.4391 45.17 76.8855 45.17C77.4863 45.17 77.9181 45.0876 78.1796 44.9228C78.4514 44.7483 78.587 44.4914 78.587 44.1521C78.587 43.8903 78.5286 43.6867 78.4125 43.5413C78.2957 43.3861 78.1024 43.2504 77.8305 43.1341C77.5593 43.0177 77.1373 42.882 76.5657 42.7269C76.0032 42.5718 75.5526 42.4118 75.2132 42.247C74.8837 42.0724 74.6312 41.8543 74.4567 41.5925C74.2822 41.3308 74.1953 40.9963 74.1953 40.5891C74.1953 39.9589 74.447 39.479 74.9511 39.1494C75.465 38.81 76.1436 38.6404 76.9871 38.6404C77.4425 38.6404 77.8694 38.684 78.2672 38.7712C78.674 38.8488 79.0133 38.9603 79.2852 39.1058V40.051C79.0035 39.8959 78.6642 39.7747 78.2672 39.6874C77.8694 39.5905 77.4571 39.542 77.0309 39.542C76.4683 39.542 76.0421 39.6244 75.7507 39.7892C75.4601 39.9541 75.3148 40.2207 75.3148 40.5891C75.3148 40.8412 75.3634 41.0351 75.4601 41.1708C75.5672 41.3065 75.7556 41.4326 76.0275 41.5489C76.3084 41.6556 76.7548 41.7913 77.3653 41.9561C78.238 42.1985 78.8436 42.4845 79.1829 42.8142C79.532 43.1341 79.7065 43.5801 79.7065 44.1521C79.7065 44.7434 79.4743 45.2088 79.0084 45.5482C78.553 45.8875 77.8548 46.0572 76.9147 46.0572Z" fill="#555555"/>
</svg>
