<svg width="131" height="48" viewBox="0 0 131 48" fill="none" xmlns="http://www.w3.org/2000/svg">
<path d="M13.4531 20.8585C13.4166 21.7153 13.3984 22.8001 13.3984 24.1127C13.3984 25.4253 13.4166 26.5191 13.4531 27.3942C13.4895 28.2511 13.5624 28.9347 13.6718 29.4452C13.7994 29.9556 13.9726 30.3111 14.1914 30.5117C14.4284 30.7122 14.7383 30.8125 15.1212 30.8125C15.504 30.8125 15.8048 30.7122 16.0236 30.5117C16.2606 30.3111 16.4338 29.9556 16.5432 29.4452C16.6708 28.9347 16.7528 28.2511 16.7893 27.3942C16.8258 26.5191 16.844 25.4253 16.844 24.1127C16.844 22.8001 16.8258 21.7153 16.7893 20.8585C16.7528 19.9834 16.6708 19.2906 16.5432 18.7802C16.4338 18.2697 16.2606 17.9142 16.0236 17.7137C15.8048 17.5131 15.504 17.4128 15.1212 17.4128C14.7383 17.4128 14.4284 17.5131 14.1914 17.7137C13.9726 17.9142 13.7994 18.2697 13.6718 18.7802C13.5624 19.2906 13.4895 19.9834 13.4531 20.8585Z" fill="#394149"/>
<path fill-rule="evenodd" clip-rule="evenodd" d="M14.4222 3.7983C7.82838 3.9394 2.58718 9.3806 2.69298 15.975L2.82298 24.0774L2.69298 32.1798C2.58718 38.7743 7.82838 44.2155 14.4222 44.3565L22.5258 44.5299L30.6294 44.3565C37.2232 44.2155 42.4645 38.7743 42.3587 32.1798L42.2287 24.0774L42.3587 15.975C42.4645 9.3806 37.2232 3.9394 30.6294 3.7983L22.5258 3.625L14.4222 3.7983ZM22.8058 34.3948L19.743 37.0474L16.9537 34.0393C16.7349 34.0758 16.5161 34.1032 16.2974 34.1214C16.0968 34.1578 15.8689 34.1761 15.6137 34.1761H15.1215C13.8271 34.1761 12.7332 34.0029 11.8399 33.6565C10.9466 33.3101 10.2265 32.7358 9.67958 31.9337C9.13268 31.1133 8.74068 30.065 8.50368 28.7889C8.26668 27.4945 8.14818 25.9357 8.14818 24.1127C8.14818 22.2896 8.26668 20.74 8.50368 19.4638C8.74068 18.1694 9.13268 17.1212 9.67958 16.319C10.2265 15.4986 10.9466 14.9061 11.8399 14.5415C12.7332 14.1586 13.8271 13.9672 15.1215 13.9672C16.4159 13.9672 17.5097 14.1586 18.403 14.5415C19.2963 14.9061 20.0165 15.4986 20.5634 16.319C21.1103 17.1212 21.5023 18.1694 21.7393 19.4638C21.9763 20.74 22.0948 22.2896 22.0948 24.1127C22.0948 25.9904 21.9672 27.5765 21.7119 28.8709C21.4567 30.1653 21.0374 31.2227 20.454 32.0431L22.8058 34.3948ZM31.438 21.378V20.2842C31.438 19.1721 31.3286 18.4155 31.1098 18.0145C30.8911 17.6134 30.5356 17.4128 30.0433 17.4128C29.6605 17.4128 29.3506 17.5131 29.1136 17.7137C28.8948 17.9142 28.7216 18.2697 28.594 18.7802C28.4846 19.2906 28.4117 19.9834 28.3752 20.8585C28.3387 21.7153 28.3205 22.8001 28.3205 24.1127C28.3205 25.4253 28.3387 26.5191 28.3752 27.3942C28.4117 28.2511 28.4846 28.9347 28.594 29.4452C28.7216 29.9556 28.8948 30.3111 29.1136 30.5117C29.3506 30.7122 29.6605 30.8125 30.0433 30.8125C30.3532 30.8125 30.6085 30.7396 30.809 30.5937C31.0096 30.4296 31.1645 30.1653 31.2739 29.8007C31.3833 29.4361 31.4562 28.9529 31.4927 28.3513C31.5474 27.7315 31.5747 26.9567 31.5747 26.0269H36.497V27.4763C36.497 28.8436 36.3147 29.9648 35.9501 30.8398C35.5855 31.7149 35.1024 32.4077 34.5008 32.9181C33.8991 33.4104 33.2064 33.7385 32.4224 33.9026C31.6568 34.0849 30.8637 34.1761 30.0433 34.1761C28.6213 34.1761 27.4546 34.0029 26.543 33.6565C25.6315 33.3101 24.9205 32.7358 24.41 31.9337C23.8995 31.1133 23.544 30.065 23.3435 28.7889C23.1612 27.4945 23.07 25.9357 23.07 24.1127C23.07 22.2531 23.1794 20.6762 23.3982 19.3818C23.6352 18.0874 24.0272 17.0391 24.5741 16.237C25.121 15.4348 25.8411 14.8605 26.7344 14.5141C27.6277 14.1495 28.7307 13.9672 30.0433 13.9672C31.1919 13.9672 32.1672 14.1131 32.9694 14.4048C33.7715 14.6965 34.4187 15.1158 34.911 15.6627C35.4214 16.1914 35.786 16.8386 36.0048 17.6043C36.2418 18.3517 36.3603 19.1995 36.3603 20.1475V21.378H31.438Z" fill="#394149"/>
<path fill-rule="evenodd" clip-rule="evenodd" d="M66.2549 17.5614L70.7131 22.1879L75.1713 17.5614H82.917L74.5801 25.4926L82.917 33.4237H75.1713L70.7131 28.7854L66.2549 33.4237H58.4974L66.8344 25.4926L58.4974 17.5614H66.2549ZM65.8251 25.4926L56.7576 16.8665H66.5513L70.7131 21.1854L74.8749 16.8665H84.319V16.8547H100.325C103.985 16.8173 107.083 19.8779 107.033 23.5502C107.032 24.8711 106.675 26.0887 105.96 27.1724C105.422 27.9927 104.74 28.6676 103.923 29.1808L107.336 33.5629V30.721C107.336 28.4944 109 27.0749 110.914 26.1335C112.847 25.1831 115.286 24.5893 117.317 24.1089L117.32 24.1082L117.343 24.1024C118.595 23.7945 119.661 23.5324 120.42 23.2497C120.804 23.1064 121.056 22.9767 121.2 22.8665C121.218 22.8525 121.233 22.8401 121.246 22.8294C121.202 22.789 121.112 22.7287 120.935 22.6592C120.522 22.4975 119.817 22.3757 118.749 22.3754C117.608 22.3872 116.638 22.48 115.976 22.7122C115.65 22.8267 115.453 22.9571 115.342 23.0795C115.248 23.1846 115.192 23.3093 115.197 23.5049L115.214 24.2165H107.584V23.5216C107.584 22.095 107.864 20.9022 108.424 19.9249C108.987 18.9432 109.807 18.2264 110.807 17.7123C112.769 16.7036 115.472 16.4534 118.486 16.4534C121.572 16.4534 124.134 16.8095 125.948 17.7263C126.866 18.1909 127.612 18.8092 128.125 19.6133C128.639 20.4195 128.891 21.3685 128.891 22.4476C128.891 24.4445 127.686 25.7164 126.209 26.5454C124.775 27.3503 122.97 27.8074 121.471 28.1731H128.631V34.0951H107.75L107.759 34.1069H99.395L96.403 30.2357H91.908V34.1069H84.644L84.657 34.1187H74.8744L70.7131 29.7893L66.5518 34.1187H56.7576L65.8251 25.4926ZM84.319 33.7969V17.1882L75.5893 25.4926L84.319 33.7969ZM96.746 29.5408L99.738 33.4119H106.336L102.871 28.9624C103.088 28.8619 103.295 28.7507 103.494 28.6291C104.252 28.1649 104.882 27.5482 105.378 26.7908C106.017 25.823 106.336 24.7372 106.336 23.5452C106.384 20.2641 103.605 17.5142 100.329 17.5496H85.015V33.4119H91.211V29.5408H96.746ZM117.824 28.868C118.041 28.6027 118.434 28.3771 118.956 28.1731C119.571 27.9323 120.363 27.7215 121.253 27.5108C124.304 26.7672 128.195 25.7522 128.195 22.4476C128.195 18.5764 124.6 17.1483 118.486 17.1483C112.737 17.1483 108.66 18.0849 108.306 22.8266C108.289 23.0498 108.28 23.2813 108.28 23.5216H114.501C114.5 23.4954 114.5 23.4696 114.501 23.4442C114.535 22.0343 116.481 21.7036 118.746 21.6804C120.957 21.6804 121.974 22.1761 121.974 22.8489C121.974 23.6793 120.012 24.162 117.548 24.7679L117.481 24.7844C113.389 25.7522 108.032 27.0977 108.032 30.721V33.4001H127.934V28.868H117.824ZM121.285 22.8827C121.285 22.8827 121.281 22.8783 121.279 22.8681C121.285 22.8773 121.285 22.8827 121.285 22.8827ZM99.432 23.5452C99.432 23.1737 99.14 22.8829 98.768 22.8829H91.908V24.1957H98.768C98.968 24.1957 99.108 24.135 99.233 24.0098C99.376 23.8672 99.432 23.7246 99.432 23.5452ZM100.128 23.5452C100.128 22.7898 99.525 22.1879 98.768 22.1879H91.211V24.8906H98.768C99.146 24.8906 99.466 24.7608 99.726 24.5012C99.998 24.2297 100.128 23.9111 100.128 23.5452Z" fill="#394149"/>
<path d="M59.0703 44.8674H62.0382V40.8037L65.0116 44.8674H66.4955L69.469 40.8037V44.8674H72.4369V37.25H68.7271L65.7536 41.0587L62.7858 37.25H59.0703V44.8674Z" fill="#394149"/>
<path d="M78.6913 37.063C75.8257 37.0687 73.4809 37.8961 73.4922 40.781V41.3364C73.4809 44.2156 75.8257 45.0488 78.6913 45.0544C81.5513 45.0488 83.8963 44.2156 83.8853 41.3364V40.781C83.8853 37.9018 81.5573 37.063 78.6913 37.063ZM80.9173 41.1494C80.9343 42.3963 79.9033 42.623 78.6913 42.64C77.4739 42.623 76.443 42.3963 76.46 41.1494V40.9624C76.443 39.7211 77.4739 39.4944 78.6913 39.4774C79.9033 39.4944 80.9343 39.7211 80.9173 40.9624V41.1494Z" fill="#394149"/>
<path d="M92.1984 41.07C92.1984 41.8351 91.7624 42.4642 90.9924 42.4642H87.7414V39.6757H90.9924C91.7624 39.6757 92.1984 40.2991 92.1984 41.07ZM84.7734 37.2613V44.8786H91.5474C93.6374 44.907 95.1894 43.1387 95.1724 41.07C95.1894 38.9899 93.6374 37.2329 91.5474 37.2613H84.7734Z" fill="#394149"/>
<path d="M103.437 41.1551C103.454 42.4076 102.424 42.623 101.211 42.64C99.9938 42.623 98.9688 42.4076 98.9798 41.1551V37.25H96.0118V41.3421C96.0008 44.2213 98.3568 45.0488 101.211 45.0544C104.066 45.0488 106.422 44.2213 106.411 41.3421V37.25H103.437V41.1551Z" fill="#394149"/>
<path d="M107.746 37.25V44.8674H116.656V42.453H110.714V37.25H107.746Z" fill="#394149"/>
<path d="M117.668 44.8786H126.578V42.9233H120.636V41.9484H126.578V40.1858H120.636V39.2109H126.578V37.2613H117.668V44.8786Z" fill="#394149"/>
<path d="M60.7812 8.23052V6.62522H65.1801C65.3932 6.62522 65.5787 6.70232 65.7299 6.86352C65.888 7.01782 65.9636 7.20702 65.9636 7.43132C65.9636 7.64872 65.888 7.83792 65.7299 7.99922C65.5787 8.15342 65.3932 8.23052 65.1801 8.23052H60.7812ZM57.1797 3.87032V13.2917H60.7812V10.9924H66.0805C67.9844 11.0205 69.5996 9.37312 69.5721 7.43132C69.5996 5.48262 67.9844 3.84922 66.0805 3.87032H57.1797Z" fill="#394149"/>
<path d="M76.7393 3.625C73.2615 3.632 70.416 4.6555 70.4297 8.2236V8.9106C70.416 12.4717 73.2615 13.5021 76.7393 13.5091C80.21 13.5021 83.056 12.4717 83.042 8.9106V8.2236C83.042 4.6625 80.217 3.625 76.7393 3.625ZM79.44 8.6792C79.461 10.2214 78.21 10.5018 76.7393 10.5229C75.2616 10.5018 74.0107 10.2214 74.0313 8.6792V8.4479C74.0107 6.9127 75.2616 6.6323 76.7393 6.6113C78.21 6.6323 79.461 6.9127 79.44 8.4479V8.6792Z" fill="#394149"/>
<path d="M97.0847 9.83586L94.9467 3.87036H90.8917L88.7477 9.83586L86.6097 3.87036H82.5547L86.6097 13.2918H90.8917L92.9197 8.58106L94.9467 13.2918H99.2287L103.285 3.87036H99.2287L97.0847 9.83586Z" fill="#394149"/>
<path d="M103.559 13.2918H114.37V10.8734H107.16V9.66756H114.37V7.48746H107.16V6.28176H114.37V3.87036H103.559V13.2918Z" fill="#394149"/>
<path d="M116.289 3.86324V13.2847H119.89V10.9854H123.107L124.846 13.2847H128.681L126.667 10.6419C127.272 10.3545 127.76 9.91994 128.124 9.35214C128.496 8.77734 128.681 8.13244 128.681 7.42434C128.709 5.47554 127.093 3.84224 125.19 3.86324H116.289ZM124.282 6.61824C124.722 6.61824 125.073 6.97574 125.073 7.42434C125.073 7.64164 124.997 7.83094 124.839 7.99214C124.688 8.14644 124.502 8.22354 124.282 8.22354H119.89V6.61824H124.282Z" fill="#394149"/>
</svg>
