<svg width="104" height="53" viewBox="0 0 104 53" fill="none" xmlns="http://www.w3.org/2000/svg">
<path d="M8.53122 11.3031C7.89592 9.6885 8.17172 7.832 8.75692 6.2706C9.37262 4.6276 10.4447 2.9891 12.0471 2.125C12.1266 3.8564 11.5977 5.567 11.0198 7.1095C10.5001 8.4969 9.86242 9.975 8.80942 11.1224C8.64762 11.9918 8.52362 12.8588 8.43642 13.7218C8.78542 12.8101 9.35132 11.9791 10.0574 11.3109C10.9665 10.4505 12.3188 9.7866 13.5882 10.1792C13.2164 11.5824 12.3689 12.9275 11.3652 13.8711C10.5752 14.6138 9.53232 15.5655 8.30392 15.6029C8.25332 16.8729 8.28192 18.1313 8.38642 19.3726C8.55972 18.4642 8.93102 17.6088 9.46752 16.9718C10.2045 16.0965 11.2973 15.0271 12.6929 15.206C12.6167 16.6262 12.0502 18.0813 11.2613 19.1747C10.6344 20.0436 9.80682 21.151 8.63212 21.4371C8.82022 22.6568 9.08222 23.8563 9.41462 25.03C9.41782 24.1313 9.61632 23.2492 10.0101 22.5417C10.5651 21.544 11.4295 20.2998 12.8267 20.2025C13.0315 21.5958 12.754 23.1189 12.1942 24.3303C11.7468 25.2986 11.1503 26.5334 10.063 27.0443C10.5196 28.3071 11.0599 29.5346 11.6794 30.7194C11.4619 29.6982 11.4706 28.6221 11.728 27.6539C12.0827 26.3191 12.9632 24.917 14.3768 24.5101C14.8765 25.9837 14.8076 27.6283 14.5173 29.1261C14.2784 30.3593 13.809 31.8077 12.7568 32.6088C13.4447 33.7189 14.2057 34.7843 15.0356 35.798C14.5897 34.8038 14.3681 33.7165 14.487 32.721C14.6602 31.2708 15.0677 29.7194 16.549 28.9462C17.3894 30.3962 17.5841 32.0229 17.6555 33.6296C17.7132 34.9285 17.5261 36.5306 16.624 37.5873C17.6163 38.619 18.687 39.5846 19.8306 40.475C19.0923 39.5279 18.5753 38.4165 18.4658 37.3174C18.3112 35.7645 18.3868 34.055 19.7649 32.9154C20.9435 34.1464 21.6468 35.9593 21.9915 37.5339C22.2963 38.9261 22.6145 40.5739 21.8888 41.944C23.3442 42.894 24.8979 43.731 26.5406 44.4398C25.3847 43.6161 24.4385 42.486 23.9877 41.3192C23.397 39.7897 23.0316 37.9672 24.1823 36.4354C25.724 37.4229 26.8571 39.1077 27.7498 40.6443C28.5158 41.9628 29.3087 43.7826 28.9153 45.3529C29.8248 45.6615 30.7578 45.9325 31.7131 46.1637L31.6563 46.3982C30.6974 46.1661 29.7608 45.8942 28.8476 45.5847C28.2078 47.4754 26.1119 48.1 24.4169 48.3758C22.0018 48.7687 19.1261 48.0074 17.0643 46.4738C18.1525 44.9359 20.3728 44.7799 22.047 44.6622L22.0688 44.6607C23.9029 44.5318 25.8866 44.704 27.731 45.1832C25.6003 44.3721 23.6066 43.3523 21.7682 42.1534L21.7411 42.1962C20.7337 43.8297 18.7111 43.8934 17.1235 43.7901C14.9692 43.6499 12.482 42.34 11.0425 40.5293C12.3965 39.3413 14.3964 39.6738 15.946 39.9314L15.9535 39.9326C17.683 40.2201 19.5729 40.8473 21.1593 41.813C21.0082 41.694 20.8603 41.5681 20.7166 41.4361C19.1742 40.3364 17.7514 39.1063 16.4603 37.7651C16.4453 37.7801 16.4301 37.795 16.4148 37.8098C15.1594 39.0727 13.331 38.742 11.9041 38.331C9.99462 37.781 8.01432 36.1217 7.06532 34.2168C8.53592 33.3928 10.2941 34.0718 11.6617 34.6089C13.1627 35.1984 14.7508 36.1414 15.9719 37.3435C15.846 37.1847 15.7259 37.0188 15.6124 36.8471C14.4774 35.5661 13.4564 34.1944 12.5588 32.7473L12.5138 32.7755C11.0936 33.692 9.48452 33.0283 8.20922 32.3756C6.48012 31.4907 5.09062 29.5459 4.49022 27.6333C6.02412 27.142 7.53962 28.1063 8.71772 28.87C10.0062 29.7052 11.3114 30.8964 12.2073 32.2625C12.1415 32.1279 12.0802 31.9903 12.0237 31.8501C11.1629 30.3483 10.4316 28.7717 9.83962 27.1362L9.80912 27.1466L9.80662 27.1475C8.51532 27.6384 7.07732 26.8752 6.13982 26.0382C4.83682 24.875 3.91842 23.0867 3.70312 21.3396C5.04942 21.1652 6.31782 22.2068 7.18502 23.0952C8.18322 24.1177 9.07912 25.3262 9.62992 26.6685C9.58972 26.5227 9.55522 26.3746 9.52622 26.225C9.02502 24.6881 8.64532 23.1031 8.39502 21.4827L8.37552 21.4851L8.36892 21.4862C7.00372 21.7141 5.74152 20.6762 4.98742 19.6689C3.92942 18.2554 3.38402 16.2991 3.52072 14.526C4.88062 14.6211 5.91612 15.9148 6.58762 16.9613C7.36482 18.1728 8.00932 19.5439 8.29162 20.9783C8.28302 20.8642 8.27792 20.7494 8.27612 20.6343C8.06882 18.9851 7.99492 17.3021 8.06252 15.5983L8.05862 15.5981C6.67062 15.5481 5.64482 14.2594 5.11522 13.1163C4.35742 11.4805 4.23542 9.4128 4.74122 7.6702C6.06412 8.0415 6.80162 9.559 7.23692 10.7271C7.73882 12.0739 8.08912 13.5428 8.09192 15.0032C8.16412 13.778 8.30952 12.5431 8.53122 11.3031Z" fill="#394149"/>
<path d="M35.8675 8.28052V14.1303C35.8675 16.7032 33.5373 17.9411 30.0056 17.9411C26.7045 17.9411 24.3379 16.7154 24.3379 13.8269V8.28052H27.6269V13.8269C27.6269 14.8585 28.5128 15.5017 30.1391 15.5017C31.6926 15.5017 32.615 14.8342 32.615 13.839V8.28052H35.8675Z" fill="#394149"/>
<path d="M46.8226 15.2711V17.8076H37.7324V8.28052H41.0214V15.2711H46.8226Z" fill="#394149"/>
<path d="M56.5965 10.6714V8.28052H45.2246V10.6714H49.2418V17.8076H52.5672V10.6714H56.5965Z" fill="#394149"/>
<path fill-rule="evenodd" clip-rule="evenodd" d="M68.2624 9.25152C68.6994 9.70052 68.9064 10.3195 68.9064 11.1811C68.9064 11.9215 68.7244 12.5526 68.4204 12.9773C68.0804 13.4385 67.5584 13.8269 66.9154 13.924L69.7924 17.8076H66.1754L63.8084 14.4458H60.8596V17.8076H57.6191V8.28052H65.2044C66.7094 8.28052 67.6924 8.64462 68.2624 9.25152ZM65.6414 11.9822C65.7264 11.8365 65.7504 11.6423 65.7504 11.4846C65.7504 11.3025 65.7264 11.1083 65.6414 10.987C65.4714 10.6714 65.1314 10.5865 64.6214 10.5865H60.8717V12.322H64.6824C65.2044 12.322 65.5204 12.2249 65.6414 11.9822Z" fill="#394149"/>
<path fill-rule="evenodd" clip-rule="evenodd" d="M74.1716 16.0479H79.3176L80.1546 17.8076H83.6626L78.8566 8.28052H74.9366L69.8516 17.8076H73.2856L74.1716 16.0479ZM78.2856 13.9118H75.2396L76.4416 11.6181L76.8056 10.7442L77.1456 11.6059L78.2856 13.9118Z" fill="#394149"/>
<path fill-rule="evenodd" clip-rule="evenodd" d="M67.9156 19.6018C65.8796 19.6018 64.8086 20.5668 64.8086 21.9848C64.8086 23.5853 65.9326 24.3972 67.9156 24.3972C70.0986 24.3972 71.0166 23.4558 71.0166 21.9848C71.0166 20.4903 69.9806 19.6018 67.9156 19.6018ZM67.9156 23.2146C66.7566 23.2146 66.4206 22.738 66.4206 22.0025C66.4206 21.2788 66.7856 20.8022 67.9096 20.8022C69.1396 20.8022 69.4156 21.3376 69.4156 22.0025C69.4156 22.7086 69.0806 23.2146 67.9156 23.2146Z" fill="#394149"/>
<path d="M61.7919 24.3267V21.5907H58.7205V22.5851H60.3621C60.3504 22.6616 60.2915 22.8087 60.215 22.8969C60.0444 23.097 59.5913 23.2735 59.0029 23.2735C58.391 23.2735 57.9968 23.1146 57.785 22.8675C57.6438 22.6851 57.5614 22.4262 57.5614 22.0379C57.5614 21.6319 57.6438 21.3554 57.8026 21.173C58.0321 20.9141 58.4204 20.8023 58.9912 20.8023C59.5031 20.8023 59.8561 20.9199 60.0209 21.067C60.1268 21.1553 60.2091 21.2789 60.2268 21.3612H61.7507C61.7449 21.2141 61.6978 20.9788 61.6154 20.8082C61.2506 20.0668 60.4033 19.6255 58.9618 19.6255C57.7085 19.6255 56.8671 20.0079 56.4023 20.5846C56.0963 20.9788 55.9551 21.473 55.9551 22.0261C55.9551 22.6381 56.1198 23.1617 56.3905 23.5089C56.8494 24.1032 57.6673 24.3973 58.6499 24.3973C59.5149 24.3973 60.1091 24.1914 60.4857 23.8796L60.5269 24.3267H61.7919Z" fill="#394149"/>
<path d="M45.7632 21.5318C46.9576 21.6612 47.4695 22.0849 47.4695 22.891C47.4695 23.8677 46.5163 24.3972 44.6393 24.3972C42.8918 24.3972 42.1387 23.903 41.8503 23.2558C41.7856 23.1028 41.7562 22.9145 41.7385 22.7968H43.4331C43.4449 22.8674 43.4861 22.9733 43.5449 23.0439C43.6861 23.2146 44.0803 23.3146 44.7511 23.3146C45.6161 23.3146 45.822 23.191 45.822 22.9616C45.822 22.7144 45.6102 22.6615 44.8276 22.5791C44.5158 22.5497 44.0215 22.5026 43.8156 22.485C42.3211 22.3496 41.768 21.8848 41.768 21.0905C41.768 20.2667 42.7447 19.6372 44.5275 19.6372C46.1103 19.6372 46.8458 20.1079 47.1518 20.6963C47.2459 20.8728 47.3047 21.0728 47.3224 21.214H45.6278C45.6219 21.1493 45.5984 21.0846 45.5337 21.0022C45.4042 20.8316 45.0747 20.7198 44.4863 20.7198C43.6567 20.7198 43.439 20.8198 43.439 21.0316C43.439 21.267 43.7156 21.32 44.6393 21.42C44.9982 21.4494 45.569 21.5082 45.7632 21.5318Z" fill="#394149"/>
<path fill-rule="evenodd" clip-rule="evenodd" d="M28.8707 20.102C29.1825 20.3491 29.359 20.7669 29.359 21.3729C29.359 21.8672 29.2355 22.2378 29.0001 22.4967C28.6824 22.8615 28.1587 23.0263 27.4762 23.0322C27.2643 23.0381 25.4521 23.0322 25.4521 23.0322V24.3266H23.8693V19.7078H27.4526C28.0881 19.7078 28.5706 19.8372 28.8707 20.102ZM27.6998 21.7318C27.7468 21.6495 27.7704 21.5435 27.7704 21.3964C27.7704 21.2435 27.7409 21.114 27.688 21.0434C27.588 20.8963 27.3997 20.8257 27.0937 20.8257H25.4403V21.9554H27.0819C27.4114 21.9554 27.6056 21.8789 27.6998 21.7318Z" fill="#394149"/>
<path fill-rule="evenodd" clip-rule="evenodd" d="M35.1485 20.1785C35.3604 20.3962 35.4604 20.6963 35.4604 21.114C35.4604 21.4729 35.3721 21.7789 35.225 21.9848C35.0603 22.2084 34.8073 22.3967 34.4954 22.4438L35.8899 24.3266H34.1365L32.9891 22.6968H31.5593V24.3266H29.9883V19.7078H33.6658C34.3954 19.7078 34.872 19.8843 35.1485 20.1785ZM33.8776 21.5024C33.9188 21.4318 33.9305 21.3376 33.9305 21.2611C33.9305 21.1729 33.9188 21.0787 33.8776 21.0199C33.7952 20.8669 33.6305 20.8257 33.3834 20.8257H31.5652V21.6671H33.4128C33.6658 21.6671 33.8188 21.62 33.8776 21.5024Z" fill="#394149"/>
<path d="M41.2625 24.3266V23.1793H37.9499V22.5791H41.1272V21.4553H37.9499V20.861H41.2213V19.7078H36.3965V24.3266H41.2625Z" fill="#394149"/>
<path d="M53.1948 20.8669V19.7078H47.6816V20.8669H49.6291V24.3266H51.2413V20.8669H53.1948Z" fill="#394149"/>
<path d="M55.3154 19.7078V24.3266H53.6973V19.7078H55.3154Z" fill="#394149"/>
<path d="M64.1692 19.7078V24.3266H62.5508V19.7078H64.1692Z" fill="#394149"/>
<path d="M77.26 19.7078V22.5438C77.26 23.7912 76.13 24.3914 74.418 24.3914C72.818 24.3914 71.67 23.7971 71.67 22.3967V19.7078H73.265V22.3967C73.265 22.8968 73.694 23.2087 74.483 23.2087C75.236 23.2087 75.683 22.8851 75.683 22.4026V19.7078H77.26Z" fill="#394149"/>
<path d="M83.612 22.891C83.612 22.0849 83.1 21.6612 81.906 21.5318C81.711 21.5082 81.141 21.4494 80.782 21.42C79.858 21.32 79.581 21.267 79.581 21.0316C79.581 20.8198 79.799 20.7198 80.629 20.7198C81.217 20.7198 81.547 20.8316 81.676 21.0022C81.741 21.0846 81.764 21.1493 81.77 21.214H83.465C83.447 21.0728 83.388 20.8728 83.294 20.6963C82.988 20.1079 82.253 19.6372 80.67 19.6372C78.887 19.6372 77.91 20.2667 77.91 21.0905C77.91 21.8848 78.464 22.3496 79.958 22.485L80.054 22.4935L80.214 22.5081L80.97 22.5791C81.753 22.6615 81.964 22.7144 81.964 22.9616C81.964 23.191 81.759 23.3146 80.894 23.3146C80.223 23.3146 79.829 23.2146 79.687 23.0439C79.629 22.9733 79.587 22.8674 79.576 22.7968H77.881C77.899 22.9145 77.928 23.1028 77.993 23.2558C78.281 23.903 79.034 24.3972 80.782 24.3972C82.659 24.3972 83.612 23.8677 83.612 22.891Z" fill="#394149"/>
<path fill-rule="evenodd" clip-rule="evenodd" d="M42.4666 26.0951C41.1435 26.0951 40.4475 26.7223 40.4475 27.6439C40.4475 28.684 41.1779 29.2117 42.4666 29.2117C43.8854 29.2117 44.4819 28.5999 44.4819 27.6439C44.4819 26.6726 43.8089 26.0951 42.4666 26.0951ZM42.4666 28.4431C41.7133 28.4431 41.4953 28.1333 41.4953 27.6553C41.4953 27.185 41.7324 26.8752 42.4628 26.8752C43.262 26.8752 43.4418 27.2232 43.4418 27.6553C43.4418 28.1142 43.2238 28.4431 42.4666 28.4431Z" fill="#394149"/>
<path d="M35.1095 28.2329C35.1095 27.709 34.7768 27.4336 34.0005 27.3495C33.8743 27.3342 33.5034 27.296 33.2701 27.2769C32.6697 27.2118 32.49 27.1774 32.49 27.0245C32.49 26.8868 32.6315 26.8218 33.1707 26.8218C33.5531 26.8218 33.7672 26.8944 33.8514 27.0053C33.8934 27.0589 33.9087 27.1009 33.9126 27.143H35.0139C35.0024 27.0512 34.9642 26.9212 34.903 26.8065C34.7041 26.4241 34.2261 26.1182 33.1974 26.1182C32.0388 26.1182 31.404 26.5273 31.404 27.0627C31.404 27.579 31.7634 27.8811 32.7347 27.969C32.8686 27.9805 33.1898 28.0111 33.3925 28.0302C33.9011 28.0837 34.0387 28.1182 34.0387 28.2788C34.0387 28.4279 33.9049 28.5082 33.3428 28.5082C32.9068 28.5082 32.6506 28.4432 32.5588 28.3323C32.5206 28.2864 32.4938 28.2176 32.4862 28.1717H31.3848C31.3963 28.2482 31.4154 28.3705 31.4575 28.47C31.6449 28.8906 32.1344 29.2118 33.2701 29.2118C34.49 29.2118 35.1095 28.8677 35.1095 28.2329Z" fill="#394149"/>
<path fill-rule="evenodd" clip-rule="evenodd" d="M27.4737 28.3168C27.4737 28.5233 27.4163 28.726 27.3016 28.8598C27.1257 29.074 26.7968 29.1657 26.3724 29.1657H23.707V26.1638H26.2997C26.7127 26.1638 26.9766 26.2633 27.1219 26.4124C27.2519 26.5424 27.3093 26.7145 27.3093 26.9095C27.3093 27.1046 27.2634 27.2652 27.164 27.3837C27.0836 27.4832 26.946 27.5596 26.8007 27.5788C27.0148 27.6055 27.2175 27.7126 27.3322 27.8617C27.4278 27.9726 27.4737 28.1409 27.4737 28.3168ZM26.185 27.2652C26.2232 27.2231 26.2462 27.1619 26.2462 27.0893C26.2462 27.0166 26.2232 26.9554 26.1735 26.9134C26.12 26.8636 26.0205 26.8445 25.8752 26.8445H24.7089V27.334H25.902C26.032 27.334 26.1315 27.3149 26.185 27.2652ZM26.0129 28.4851C26.1926 28.4851 26.2997 28.4621 26.3609 28.4048C26.3991 28.3665 26.4144 28.3092 26.4144 28.2365C26.4144 28.16 26.3953 28.1027 26.3494 28.0568C26.2921 28.0071 26.1926 27.9841 26.0244 27.9841H24.7089V28.4851H26.0129Z" fill="#394149"/>
<path d="M31.0746 28.4201V29.1657H27.9121V26.1638H31.0478V26.9134H28.9216V27.2996H30.9866V28.03H28.9216V28.4201H31.0746Z" fill="#394149"/>
<path d="M38.8292 26.1638V26.9172H37.5596V29.1657H36.5119V26.9172H35.2461V26.1638H38.8292Z" fill="#394149"/>
<path d="M47.9812 26.1639V26.9249H45.943V27.3494H47.8856V28.1028H45.943V29.1658H44.9143V26.1639H47.9812Z" fill="#394149"/>
<path d="M53.1632 26.9172V26.1638H49.5801V26.9172H50.8459V29.1657H51.8937V26.9172H53.1632Z" fill="#394149"/>
<path d="M57.0714 26.1638V29.1657H56.0465V28.0759H54.5092V29.1657H53.4844V26.1638H54.5092V27.2575H56.0465V26.1638H57.0714Z" fill="#394149"/>
<path d="M60.8402 29.1657V28.4201H58.6872V28.03H60.7522V27.2996H58.6872V26.9134H60.8134V26.1638H57.6777V29.1657H60.8402Z" fill="#394149"/>
<path d="M67.1805 26.1638H68.1705L67.0735 29.1657H65.9495C65.9495 29.1657 65.3485 27.3723 65.3445 27.3225C65.3415 27.3723 64.7365 29.1657 64.7365 29.1657H63.6165L62.4922 26.1638H63.6045C63.6045 26.1638 64.2555 28.0529 64.2555 28.0988C64.2555 28.0529 64.8555 26.1638 64.8555 26.1638H65.9305C65.9305 26.1638 66.5345 28.0529 66.5345 28.0988C66.5345 28.0529 67.1805 26.1638 67.1805 26.1638Z" fill="#394149"/>
<path fill-rule="evenodd" clip-rule="evenodd" d="M70.1342 26.0952C68.8112 26.0952 68.1152 26.7224 68.1152 27.644C68.1152 28.6841 68.8452 29.2118 70.1342 29.2118C71.5532 29.2118 72.1492 28.6 72.1492 27.644C72.1492 26.6727 71.4762 26.0952 70.1342 26.0952ZM70.1342 28.4432C69.3812 28.4432 69.1632 28.1334 69.1632 27.6554C69.1632 27.1851 69.4002 26.8753 70.1302 26.8753C70.9302 26.8753 71.1092 27.2233 71.1092 27.6554C71.1092 28.1143 70.8912 28.4432 70.1342 28.4432Z" fill="#394149"/>
<path fill-rule="evenodd" clip-rule="evenodd" d="M75.936 26.4698C76.073 26.6113 76.138 26.8063 76.138 27.0778C76.138 27.3111 76.081 27.5099 75.985 27.6438C75.878 27.7891 75.714 27.9115 75.511 27.942L76.417 29.1657H75.278L74.532 28.1065H73.603V29.1657H72.582V26.1638H74.972C75.446 26.1638 75.756 26.2786 75.936 26.4698ZM75.11 27.3302C75.136 27.2843 75.144 27.2231 75.144 27.1734C75.144 27.116 75.136 27.0549 75.11 27.0166C75.056 26.9172 74.949 26.8904 74.788 26.8904H73.607V27.4373H74.807C74.972 27.4373 75.071 27.4067 75.11 27.3302Z" fill="#394149"/>
<path d="M79.6101 29.1657V28.3665H77.7821V26.1638H76.7461V29.1657H79.6101Z" fill="#394149"/>
<path fill-rule="evenodd" clip-rule="evenodd" d="M83.6656 27.6093C83.6656 28.0759 83.6196 28.3283 83.4826 28.5654C83.2756 28.9439 82.8666 29.1657 82.1436 29.1657H80.0176V26.1638H82.1206C82.8396 26.1638 83.2646 26.3665 83.4746 26.7145C83.6236 26.9478 83.6656 27.1963 83.6656 27.6093ZM81.9486 28.4277C82.2736 28.4277 82.4576 28.3512 82.5686 28.183C82.6376 28.0797 82.6566 27.8388 82.6566 27.6285C82.6526 27.4373 82.6296 27.2346 82.5686 27.1428C82.4496 26.9631 82.2706 26.8981 81.9566 26.8981H81.0426V28.4277H81.9486Z" fill="#394149"/>
<path d="M42.6444 43.7654H41.0598C41.0598 43.7654 40.0258 46.7879 40.0258 46.8613C40.0258 46.7879 39.0591 43.7654 39.0591 43.7654H37.3398C37.3398 43.7654 36.3792 46.7879 36.3792 46.8613C36.3792 46.7879 35.3391 43.7654 35.3391 43.7654H33.5586L35.3574 48.5683H37.1501C37.1501 48.5683 38.1168 45.6988 38.1229 45.6193C38.1291 45.6988 39.0896 48.5683 39.0896 48.5683H40.8884L42.6444 43.7654Z" fill="#394149"/>
<path d="M44.8133 48.5684V43.7655H43.1307V48.5684H44.8133Z" fill="#394149"/>
<path d="M51.3579 43.7655V48.5684H49.7181L47.3381 45.8947V48.5684H45.7596V43.7655H47.4849L49.7915 46.3781V43.7655H51.3579Z" fill="#394149"/>
<path d="M57.9128 48.5683V43.7654H56.3465V46.378L54.0399 43.7654H52.3145V48.5683H53.893V45.8946L56.2731 48.5683H57.9128Z" fill="#394149"/>
<path d="M63.9295 47.3752V48.5683H58.8691V43.7654H63.8865V44.9646H60.4844V45.5826H63.7885V46.7512H60.4844V47.3752H63.9295Z" fill="#394149"/>
<path fill-rule="evenodd" clip-rule="evenodd" d="M70.3951 45.2277C70.3951 44.7933 70.2911 44.4813 70.0711 44.2549C69.7831 43.949 69.2881 43.7654 68.5291 43.7654H64.7051V48.5683H66.3391V46.8735H67.8261L69.0191 48.5683H70.8421L69.3921 46.6105C69.7161 46.5615 69.9791 46.3657 70.1511 46.1332C70.3031 45.9191 70.3951 45.6009 70.3951 45.2277ZM68.8041 45.3807C68.8041 45.4602 68.7921 45.5581 68.7491 45.6315C68.6881 45.7539 68.5291 45.8028 68.2661 45.8028H66.3451V44.9279H68.2351C68.4921 44.9279 68.6641 44.9707 68.7491 45.1298C68.7921 45.191 68.8041 45.2889 68.8041 45.3807Z" fill="#394149"/>
<path d="M37.7596 35.2919L37.0961 33.2497L36.4325 35.2919H34.2852L36.0224 36.554L35.3589 38.5962L37.0961 37.3341L38.8332 38.5962L38.1697 36.554L39.9069 35.2919H37.7596Z" fill="#394149"/>
<path d="M44.7569 33.2483L45.434 35.2905H47.6251L45.8525 36.5527L46.5296 38.5948L44.7569 37.3327L42.9843 38.5948L43.6614 36.5527L41.8887 35.2905H44.0798L44.7569 33.2483Z" fill="#394149"/>
<path d="M53.0336 35.2905L52.3566 33.2483L51.6795 35.2905H49.4883L51.261 36.5527L50.5839 38.5948L52.3566 37.3327L54.1292 38.5948L53.4521 36.5527L55.2248 35.2905H53.0336Z" fill="#394149"/>
<path d="M59.9561 33.2483L60.6332 35.2905H62.8243L61.0517 36.5527L61.7288 38.5948L59.9561 37.3327L58.1835 38.5948L58.8606 36.5527L57.0879 35.2905H59.2791L59.9561 33.2483Z" fill="#394149"/>
<path d="M68.2797 35.2905L67.6157 33.2483L66.9517 35.2905H64.8047L66.5417 36.5527L65.8787 38.5948L67.6157 37.3327L69.3527 38.5948L68.6897 36.5527L70.4267 35.2905H68.2797Z" fill="#394149"/>
<path d="M96.1371 11.3475C96.7721 9.73299 96.4961 7.87629 95.9111 6.31489C95.2951 4.67199 94.2231 3.03329 92.6211 2.16919C92.5411 3.90069 93.0701 5.61119 93.6481 7.15369C94.1681 8.54099 94.8051 10.019 95.8581 11.1663C96.0201 12.0355 96.1441 12.9023 96.2311 13.7651C95.8821 12.8538 95.3171 12.0232 94.6111 11.3552C93.7021 10.4947 92.3491 9.83089 91.0801 10.2235C91.4521 11.6266 92.2991 12.9718 93.3031 13.9154C94.0931 14.6581 95.1361 15.6097 96.3641 15.6472C96.4151 16.9173 96.3861 18.1758 96.2811 19.4172C96.1081 18.5088 95.7371 17.6534 95.2001 17.0164C94.4631 16.141 93.3701 15.0717 91.9751 15.2506C92.0511 16.6708 92.6181 18.1259 93.4071 19.2193C94.0331 20.0882 94.8611 21.1957 96.0361 21.4818C95.8481 22.7013 95.5861 23.9006 95.2531 25.0742C95.2501 24.1756 95.0521 23.2935 94.6581 22.586C94.1031 21.5884 93.2381 20.3441 91.8411 20.2468C91.6361 21.6401 91.9141 23.1632 92.4741 24.3746C92.9211 25.3429 93.5181 26.5777 94.6051 27.0886C94.1481 28.3516 93.6081 29.5794 92.9881 30.7643C93.2061 29.7429 93.1971 28.6666 92.9401 27.6981C92.5851 26.3633 91.7051 24.9611 90.2911 24.5543C89.7911 26.0281 89.8601 27.6725 90.1511 29.1703C90.3901 30.4036 90.8591 31.852 91.9111 32.6531C91.2231 33.7638 90.4621 34.8297 89.6311 35.8439C90.0781 34.8493 90.2991 33.7614 90.1801 32.7655C90.0071 31.3151 89.6001 29.7638 88.1191 28.9908C87.2781 30.4408 87.0831 32.0675 87.0121 33.6742C86.9541 34.9732 87.1411 36.5754 88.0441 37.6322C87.0511 38.6636 85.9811 39.6289 84.8381 40.5191C85.5761 39.572 86.0931 38.4607 86.2021 37.3617C86.3571 35.8088 86.2821 34.0994 84.9031 32.9597C83.7251 34.1907 83.0211 36.0036 82.6771 37.5782C82.3721 38.9703 82.0541 40.6182 82.7791 41.9883C81.3241 42.9385 79.7701 43.7756 78.1271 44.4846C79.2831 43.6608 80.2291 42.5305 80.6801 41.3635C81.2711 39.8341 81.6361 38.0115 80.4861 36.4797C78.9441 37.4672 77.8111 39.1519 76.9181 40.6886C76.1521 42.0072 75.3591 43.8271 75.7531 45.3974C74.8431 45.706 73.9101 45.977 72.9551 46.2082L73.0121 46.4427C73.9701 46.2106 74.9071 45.9387 75.8201 45.6292C76.4601 47.5198 78.5561 48.1446 80.2511 48.4203C82.6661 48.8132 85.5421 48.052 87.6041 46.5183C86.5151 44.9804 84.2951 44.8244 82.6211 44.7067L82.5991 44.7052C80.7651 44.5763 78.7811 44.7485 76.9371 45.2278C79.0671 44.4167 81.0611 43.3967 82.9001 42.1977L82.9251 42.2377C83.9321 43.8739 85.9561 43.9379 87.5441 43.8345C89.6991 43.6943 92.1861 42.3844 93.6251 40.5737C92.2711 39.3859 90.2721 39.7182 88.7221 39.9757L88.7141 39.9771C86.9851 40.2645 85.0961 40.8914 83.5101 41.8568C83.6611 41.7379 83.8081 41.6122 83.9521 41.4803C85.4941 40.3808 86.9161 39.1509 88.2071 37.8099C88.2251 37.8278 88.2431 37.8454 88.2611 37.8629C89.5171 39.116 91.3401 38.7854 92.7641 38.3753C94.6741 37.8253 96.6541 36.166 97.6031 34.2611C96.1321 33.4371 94.3741 34.116 93.0071 34.6532C91.5041 35.2432 89.9151 36.1873 88.6931 37.391C88.8191 37.232 88.9401 37.0658 89.0541 36.8938C90.1891 35.6121 91.2111 34.2396 92.1091 32.7916L92.1481 32.8157L92.1581 32.822C93.5771 33.7352 95.1851 33.0721 96.4591 32.4199C98.1881 31.535 99.5781 29.5902 100.178 27.6776C98.6441 27.1863 97.1291 28.1506 95.9511 28.9143C94.6611 29.75 93.3551 30.942 92.4591 32.3091C92.5251 32.1742 92.5871 32.0362 92.6441 31.8957C93.5051 30.3934 94.2361 28.8164 94.8281 27.1805L94.8591 27.1909L94.8641 27.1929C96.1551 27.6816 97.5921 26.9189 98.5291 26.0825C99.8311 24.9193 100.75 23.131 100.965 21.3839C99.6191 21.2095 98.3501 22.2511 97.4831 23.1394C96.4851 24.1626 95.5881 25.3719 95.0371 26.7153C95.0781 26.5687 95.1131 26.4198 95.1421 26.2693C95.6431 24.7325 96.0231 23.1476 96.2731 21.5274L96.3111 21.5324C97.6711 21.7526 98.9291 20.7177 99.6811 19.7132C100.739 18.2997 101.284 16.3434 101.147 14.5702C99.7881 14.6654 98.7521 15.959 98.0811 17.0056C97.3031 18.2177 96.6581 19.5896 96.3761 21.0249C96.3851 20.9101 96.3901 20.7947 96.3921 20.6789C96.5991 19.0296 96.6731 17.3465 96.6051 15.6427C97.9941 15.594 99.0231 14.3044 99.5531 13.1608C100.31 11.5251 100.432 9.45729 99.9271 7.71479C98.6041 8.08609 97.8661 9.60339 97.4311 10.7715C96.9291 12.1183 96.5791 13.5874 96.5761 15.0478C96.5041 13.8226 96.3581 12.5876 96.1371 11.3475Z" fill="#394149"/>
</svg>
