<svg width="32" height="33" viewBox="0 0 32 33" fill="none" xmlns="http://www.w3.org/2000/svg">
<path d="M18.7013 10.8387L7.50128 21.8387C7.31424 22.0227 7.06239 22.1258 6.80003 22.1258C6.53767 22.1258 6.28582 22.0227 6.09878 21.8387L1.29878 17.125C1.20513 17.0329 1.13053 16.9233 1.07926 16.8023C1.02798 16.6814 1.00102 16.5516 0.999913 16.4203C0.99881 16.2889 1.02359 16.1587 1.07283 16.0369C1.12207 15.9151 1.19481 15.8043 1.2869 15.7106C1.37899 15.617 1.48863 15.5424 1.60954 15.4911C1.73046 15.4398 1.86029 15.4129 1.99163 15.4117C2.12297 15.4106 2.25324 15.4354 2.375 15.4847C2.49676 15.5339 2.60763 15.6066 2.70128 15.6987L6.80003 19.7237L17.3 9.41124C17.4893 9.22525 17.7448 9.12209 18.0101 9.12443C18.1415 9.12559 18.2714 9.15262 18.3923 9.20398C18.5133 9.25533 18.6229 9.33001 18.715 9.42374C18.8071 9.51747 18.8798 9.62842 18.9291 9.75026C18.9783 9.87209 19.003 10.0024 19.0018 10.1338C19.0007 10.2652 18.9736 10.3951 18.9223 10.516C18.8709 10.637 18.7963 10.7466 18.7025 10.8387H18.7013ZM30.7138 9.42374C30.6217 9.32994 30.5121 9.2552 30.3911 9.2038C30.2702 9.1524 30.1403 9.12535 30.0089 9.12418C29.8775 9.12302 29.7471 9.14778 29.6253 9.19703C29.5034 9.24629 29.3925 9.31908 29.2988 9.41124L18.7988 19.7237L16.445 17.4112C16.2557 17.2254 16.0004 17.1224 15.7351 17.1249C15.4699 17.1273 15.2165 17.2351 15.0307 17.4244C14.8448 17.6137 14.7418 17.869 14.7443 18.1343C14.7467 18.3995 14.8545 18.6529 15.0438 18.8387L18.0975 21.8387C18.2846 22.0227 18.5364 22.1258 18.7988 22.1258C19.0611 22.1258 19.313 22.0227 19.5 21.8387L30.7 10.8387C30.7939 10.7468 30.8687 10.6372 30.9203 10.5163C30.9718 10.3954 30.9989 10.2655 31.0002 10.1341C31.0015 10.0027 30.9768 9.87229 30.9277 9.7504C30.8785 9.62851 30.8059 9.51751 30.7138 9.42374Z" fill="#1065DC"/>
</svg>
