<svg width="32" height="33" viewBox="0 0 32 33" fill="none" xmlns="http://www.w3.org/2000/svg">
<path d="M17 10.125V15.5588L21.515 18.2675C21.7424 18.4041 21.9063 18.6254 21.9705 18.8828C22.0347 19.1402 21.9941 19.4126 21.8575 19.64C21.7209 19.8674 21.4996 20.0313 21.2422 20.0955C20.9848 20.1597 20.7124 20.1191 20.485 19.9825L15.485 16.9825C15.337 16.8936 15.2146 16.7679 15.1296 16.6176C15.0446 16.4674 14.9999 16.2976 15 16.125V10.125C15 9.85979 15.1054 9.60544 15.2929 9.4179C15.4804 9.23036 15.7348 9.12501 16 9.12501C16.2652 9.12501 16.5196 9.23036 16.7071 9.4179C16.8946 9.60544 17 9.85979 17 10.125ZM16 4.12501C14.4225 4.12108 12.8599 4.43005 11.4026 5.03404C9.94527 5.63803 8.62222 6.52505 7.51 7.64376C6.60125 8.56376 5.79375 9.44876 5 10.375V8.12501C5 7.85979 4.89464 7.60544 4.70711 7.4179C4.51957 7.23036 4.26522 7.12501 4 7.12501C3.73478 7.12501 3.48043 7.23036 3.29289 7.4179C3.10536 7.60544 3 7.85979 3 8.12501V13.125C3 13.3902 3.10536 13.6446 3.29289 13.8321C3.48043 14.0196 3.73478 14.125 4 14.125H9C9.26522 14.125 9.51957 14.0196 9.70711 13.8321C9.89464 13.6446 10 13.3902 10 13.125C10 12.8598 9.89464 12.6054 9.70711 12.4179C9.51957 12.2304 9.26522 12.125 9 12.125H6.125C7.01875 11.0725 7.90875 10.0813 8.92375 9.05376C10.3136 7.66395 12.0821 6.71452 14.0085 6.3241C15.9348 5.93369 17.9335 6.1196 19.7547 6.85861C21.576 7.59762 23.1391 8.85696 24.2487 10.4793C25.3584 12.1016 25.9653 14.0149 25.9938 15.9802C26.0222 17.9455 25.4708 19.8756 24.4086 21.5293C23.3463 23.183 21.8203 24.487 20.0212 25.2784C18.2221 26.0698 16.2296 26.3135 14.2928 25.9789C12.356 25.6444 10.5607 24.7465 9.13125 23.3975C9.03571 23.3072 8.92333 23.2366 8.80052 23.1898C8.6777 23.1429 8.54686 23.1207 8.41547 23.1244C8.28407 23.1282 8.15469 23.1577 8.03472 23.2114C7.91475 23.2652 7.80653 23.342 7.71625 23.4375C7.62597 23.533 7.55538 23.6454 7.50853 23.7682C7.46168 23.8911 7.43948 24.0219 7.44319 24.1533C7.44691 24.2847 7.47647 24.4141 7.53018 24.534C7.58389 24.654 7.66071 24.7622 7.75625 24.8525C9.18056 26.1966 10.9122 27.1717 12.8 27.6926C14.6878 28.2136 16.6744 28.2646 18.5865 27.8412C20.4986 27.4178 22.278 26.5329 23.7694 25.2637C25.2608 23.9945 26.4189 22.3795 27.1427 20.5598C27.8664 18.74 28.1338 16.7708 27.9215 14.824C27.7091 12.8772 27.0236 11.0119 25.9246 9.39092C24.8256 7.76998 23.3466 6.44263 21.6166 5.52474C19.8867 4.60684 17.9584 4.12628 16 4.12501Z" fill="#1065DC"/>
</svg>
