<svg width="74" height="75" viewBox="0 0 74 75" fill="none" xmlns="http://www.w3.org/2000/svg">
<path opacity="0.2" d="M69.3751 37.1249C69.3751 43.258 66.9387 49.14 62.6019 53.4767C58.2651 57.8135 52.3832 60.2499 46.2501 60.2499H20.8125C18.5173 60.2471 16.2488 59.7561 14.1578 58.8097C12.0667 57.8633 10.2008 56.483 8.68393 54.7604C7.16703 53.0378 6.0338 51.0123 5.35944 48.8184C4.68508 46.6244 4.48501 44.3121 4.7725 42.0349C5.05999 39.7577 5.82847 37.5677 7.02694 35.6101C8.22542 33.6526 9.82649 31.9723 11.7239 30.6808C13.6213 29.3892 15.7717 28.516 18.0324 28.1189C20.2931 27.7219 22.6123 27.8102 24.8363 28.3779V28.4068C26.8599 23.4433 30.5448 19.3369 35.2611 16.7898C39.9774 14.2427 45.432 13.413 50.6923 14.4427C55.9526 15.4723 60.6918 18.2974 64.0997 22.4347C67.5075 26.5721 69.3722 31.7648 69.3751 37.1249Z" fill="#1065DC"/>
<path d="M46.25 11.6875C41.5258 11.6911 36.8957 13.0089 32.8777 15.4935C28.8596 17.978 25.6119 21.5314 23.4979 25.7562C20.9829 25.3894 18.4193 25.5447 15.9671 26.2125C13.5148 26.8803 11.2264 28.0463 9.24472 29.6376C7.263 31.229 5.63043 33.2116 4.44884 35.4618C3.26725 37.712 2.56199 40.1815 2.37705 42.7163C2.19211 45.2512 2.53145 47.7969 3.37392 50.1948C4.21638 52.5927 5.54389 54.7912 7.27365 56.6534C9.00341 58.5155 11.0983 60.0012 13.4277 61.0179C15.757 62.0346 18.2709 62.5604 20.8125 62.5625H46.25C52.9964 62.5625 59.4665 59.8825 64.237 55.112C69.0075 50.3416 71.6875 43.8714 71.6875 37.125C71.6875 30.3786 69.0075 23.9084 64.237 19.138C59.4665 14.3675 52.9964 11.6875 46.25 11.6875ZM46.25 57.9375H20.8125C17.1326 57.9375 13.6034 56.4757 11.0014 53.8736C8.39929 51.2715 6.93747 47.7424 6.93747 44.0625C6.93747 40.3826 8.39929 36.8535 11.0014 34.2514C13.6034 31.6493 17.1326 30.1875 20.8125 30.1875C21.1304 30.1875 21.4484 30.1875 21.7635 30.2193C21.1311 32.4667 20.8111 34.7904 20.8125 37.125C20.8125 37.7383 21.0561 38.3265 21.4898 38.7602C21.9235 39.1939 22.5117 39.4375 23.125 39.4375C23.7383 39.4375 24.3265 39.1939 24.7602 38.7602C25.1938 38.3265 25.4375 37.7383 25.4375 37.125C25.4375 33.0087 26.6581 28.9848 28.945 25.5622C31.2319 22.1396 34.4824 19.472 38.2854 17.8968C42.0884 16.3215 46.2731 15.9094 50.3103 16.7124C54.3475 17.5155 58.0559 19.4977 60.9666 22.4083C63.8773 25.319 65.8595 29.0275 66.6626 33.0647C67.4656 37.1019 67.0535 41.2866 65.4782 45.0896C63.903 48.8926 61.2354 52.1431 57.8128 54.43C54.3902 56.7169 50.3663 57.9375 46.25 57.9375Z" fill="#1065DC"/>
</svg>
