<svg width="62" height="61" viewBox="0 0 62 61" fill="none" xmlns="http://www.w3.org/2000/svg">
<path d="M31 0.0625C25.0542 0.0625 19.2419 1.82563 14.2982 5.12894C9.35443 8.43225 5.50124 13.1274 3.22589 18.6206C0.950526 24.1138 0.355188 30.1584 1.51516 35.9899C2.67512 41.8215 5.5383 47.1781 9.74262 51.3824C13.9469 55.5867 19.3036 58.4499 25.1351 59.6099C30.9667 60.7698 37.0112 60.1745 42.5044 57.8991C47.9976 55.6238 52.6928 51.7706 55.9961 46.8268C59.2994 41.8831 61.0625 36.0708 61.0625 30.125C61.0541 22.1545 57.8841 14.5129 52.2481 8.8769C46.6121 3.24091 38.9705 0.070917 31 0.0625ZM51.7749 15.4609L33.3125 26.1186V4.79445C36.9784 5.13055 40.5277 6.25831 43.7152 8.09988C46.9028 9.94144 49.6527 12.4529 51.7749 15.4609ZM28.6875 4.79445V28.7866L7.90681 40.7827C6.20088 37.0852 5.40757 33.0321 5.59359 28.9642C5.7796 24.8963 6.9395 20.9326 8.97577 17.4061C11.012 13.8797 13.8652 10.8937 17.2953 8.69904C20.7254 6.50442 24.6323 5.16537 28.6875 4.79445ZM31 55.5625C26.9277 55.5608 22.9152 54.5815 19.3001 52.7067C15.6849 50.832 12.5727 48.1167 10.2251 44.7891L54.0932 19.4644C55.8821 23.34 56.667 27.6035 56.3755 31.8621C56.084 36.1207 54.7256 40.2374 52.4252 43.8331C50.1249 47.4289 46.9568 50.3879 43.2126 52.4377C39.4684 54.4875 35.2686 55.5621 31 55.5625Z" fill="#1065DC"/>
</svg>
