<svg width="238" height="17" viewBox="0 0 238 17" fill="none" xmlns="http://www.w3.org/2000/svg">
<path d="M0.554688 13.125V11.6719L4.55469 8.42969C4.9974 8.0651 5.35417 7.72656 5.625 7.41406C5.89583 7.10156 6.09375 6.78385 6.21875 6.46094C6.34375 6.13802 6.40625 5.78385 6.40625 5.39844C6.40625 4.95052 6.33333 4.59115 6.1875 4.32031C6.04167 4.04948 5.84115 3.85417 5.58594 3.73438C5.33073 3.61458 5.03906 3.55469 4.71094 3.55469C4.22656 3.55469 3.85156 3.65885 3.58594 3.86719C3.32552 4.07031 3.14062 4.33073 3.03125 4.64844C2.92188 4.96094 2.85417 5.28125 2.82812 5.60938L0.398438 4.9375C0.471354 4.36979 0.695312 3.83854 1.07031 3.34375C1.45052 2.84375 1.95312 2.4401 2.57812 2.13281C3.20312 1.82552 3.91406 1.67188 4.71094 1.67188C5.1849 1.67188 5.66667 1.73698 6.15625 1.86719C6.65104 1.99219 7.10417 2.19531 7.51562 2.47656C7.93229 2.75781 8.26823 3.11979 8.52344 3.5625C8.77865 4.00521 8.90625 4.53906 8.90625 5.16406C8.90625 6.04427 8.63021 6.85156 8.07812 7.58594C7.52604 8.3151 6.74479 9.01823 5.73438 9.69531L2.9375 11.6484L2.42188 11.2109H8.89844V13.125H0.554688ZM14.7266 13.3281C13.3047 13.3281 12.2057 12.8229 11.4297 11.8125C10.6589 10.7969 10.2734 9.35938 10.2734 7.5C10.2734 5.64583 10.6589 4.21094 11.4297 3.19531C12.2057 2.17969 13.3047 1.67188 14.7266 1.67188C16.1536 1.67188 17.2526 2.17969 18.0234 3.19531C18.7943 4.21094 19.1797 5.64583 19.1797 7.5C19.1797 9.35417 18.7943 10.7891 18.0234 11.8047C17.2526 12.8203 16.1536 13.3281 14.7266 13.3281ZM14.7266 11.4531C15.3776 11.4531 15.8672 11.1198 16.1953 10.4531C16.5286 9.78646 16.6953 8.80208 16.6953 7.5C16.6953 6.19792 16.5286 5.21615 16.1953 4.55469C15.8672 3.88802 15.3776 3.55469 14.7266 3.55469C14.0755 3.55469 13.5833 3.88802 13.25 4.55469C12.9219 5.21615 12.7578 6.19792 12.7578 7.5C12.7578 8.80208 12.9219 9.78646 13.25 10.4531C13.5833 11.1198 14.0755 11.4531 14.7266 11.4531ZM20.3203 13.125V11.6719L24.3203 8.42969C24.763 8.0651 25.1198 7.72656 25.3906 7.41406C25.6615 7.10156 25.8594 6.78385 25.9844 6.46094C26.1094 6.13802 26.1719 5.78385 26.1719 5.39844C26.1719 4.95052 26.099 4.59115 25.9531 4.32031C25.8073 4.04948 25.6068 3.85417 25.3516 3.73438C25.0964 3.61458 24.8047 3.55469 24.4766 3.55469C23.9922 3.55469 23.6172 3.65885 23.3516 3.86719C23.0911 4.07031 22.9062 4.33073 22.7969 4.64844C22.6875 4.96094 22.6198 5.28125 22.5938 5.60938L20.1641 4.9375C20.237 4.36979 20.4609 3.83854 20.8359 3.34375C21.2161 2.84375 21.7188 2.4401 22.3438 2.13281C22.9688 1.82552 23.6797 1.67188 24.4766 1.67188C24.9505 1.67188 25.4323 1.73698 25.9219 1.86719C26.4167 1.99219 26.8698 2.19531 27.2812 2.47656C27.6979 2.75781 28.0339 3.11979 28.2891 3.5625C28.5443 4.00521 28.6719 4.53906 28.6719 5.16406C28.6719 6.04427 28.3958 6.85156 27.8438 7.58594C27.2917 8.3151 26.5104 9.01823 25.5 9.69531L22.7031 11.6484L22.1875 11.2109H28.6641V13.125H20.3203ZM34.4922 13.3281C33.0703 13.3281 31.9714 12.8229 31.1953 11.8125C30.4245 10.7969 30.0391 9.35938 30.0391 7.5C30.0391 5.64583 30.4245 4.21094 31.1953 3.19531C31.9714 2.17969 33.0703 1.67188 34.4922 1.67188C35.9193 1.67188 37.0182 2.17969 37.7891 3.19531C38.5599 4.21094 38.9453 5.64583 38.9453 7.5C38.9453 9.35417 38.5599 10.7891 37.7891 11.8047C37.0182 12.8203 35.9193 13.3281 34.4922 13.3281ZM34.4922 11.4531C35.1432 11.4531 35.6328 11.1198 35.9609 10.4531C36.2943 9.78646 36.4609 8.80208 36.4609 7.5C36.4609 6.19792 36.2943 5.21615 35.9609 4.55469C35.6328 3.88802 35.1432 3.55469 34.4922 3.55469C33.8411 3.55469 33.349 3.88802 33.0156 4.55469C32.6875 5.21615 32.5234 6.19792 32.5234 7.5C32.5234 8.80208 32.6875 9.78646 33.0156 10.4531C33.349 11.1198 33.8411 11.4531 34.4922 11.4531ZM47.8203 13.3281C46.9349 13.3281 46.1667 13.1484 45.5156 12.7891C44.8698 12.4297 44.3724 11.9193 44.0234 11.2578C43.6745 10.5964 43.5 9.8099 43.5 8.89844C43.5 7.99219 43.6745 7.20833 44.0234 6.54688C44.3724 5.88542 44.8698 5.3776 45.5156 5.02344C46.1615 4.66406 46.9271 4.48438 47.8125 4.48438C48.4479 4.48438 49.0391 4.59896 49.5859 4.82812C50.1328 5.05729 50.5964 5.39844 50.9766 5.85156C51.362 6.29948 51.625 6.85677 51.7656 7.52344L49.5625 7.99219C49.4479 7.39323 49.2396 6.94531 48.9375 6.64844C48.6354 6.34635 48.2552 6.19531 47.7969 6.19531C47.1667 6.19531 46.6979 6.44531 46.3906 6.94531C46.0885 7.44531 45.9375 8.10677 45.9375 8.92969C45.9375 9.7474 46.0885 10.401 46.3906 10.8906C46.6927 11.375 47.1641 11.6172 47.8047 11.6172C48.2474 11.6172 48.6198 11.4844 48.9219 11.2188C49.2292 10.9479 49.4531 10.5365 49.5938 9.98438L51.7266 10.3828C51.6224 10.8932 51.4427 11.3359 51.1875 11.7109C50.9323 12.0807 50.625 12.3854 50.2656 12.625C49.9115 12.8594 49.526 13.0339 49.1094 13.1484C48.6927 13.2682 48.263 13.3281 47.8203 13.3281ZM57.1016 13.3281C56.2526 13.3281 55.5026 13.1406 54.8516 12.7656C54.2057 12.3906 53.7005 11.8724 53.3359 11.2109C52.9714 10.5443 52.7891 9.77604 52.7891 8.90625C52.7891 8.03125 52.9714 7.26302 53.3359 6.60156C53.7005 5.9349 54.2057 5.41667 54.8516 5.04688C55.5026 4.67188 56.2526 4.48438 57.1016 4.48438C57.9557 4.48438 58.7057 4.67188 59.3516 5.04688C60.0026 5.41667 60.5104 5.9349 60.875 6.60156C61.2396 7.26302 61.4219 8.03125 61.4219 8.90625C61.4219 9.78125 61.2396 10.5521 60.875 11.2188C60.5104 11.8802 60.0026 12.3984 59.3516 12.7734C58.7005 13.1432 57.9505 13.3281 57.1016 13.3281ZM57.1094 11.6172C57.6875 11.6172 58.1432 11.375 58.4766 10.8906C58.8151 10.401 58.9844 9.73958 58.9844 8.90625C58.9844 8.06771 58.8151 7.40625 58.4766 6.92188C58.1432 6.4375 57.6849 6.19531 57.1016 6.19531C56.5234 6.19531 56.0651 6.4375 55.7266 6.92188C55.3932 7.40625 55.2266 8.06771 55.2266 8.90625C55.2266 9.74479 55.3932 10.4062 55.7266 10.8906C56.0651 11.375 56.526 11.6172 57.1094 11.6172ZM63.0391 16.1719V4.6875H65.2422V6.38281L65.2188 6.25781C65.5104 5.64323 65.8984 5.19531 66.3828 4.91406C66.8724 4.6276 67.4193 4.48438 68.0234 4.48438C68.7318 4.48438 69.3438 4.66146 69.8594 5.01562C70.3802 5.36458 70.7812 5.8724 71.0625 6.53906C71.3438 7.20052 71.4844 7.99479 71.4844 8.92188C71.4844 9.84896 71.3411 10.6432 71.0547 11.3047C70.7734 11.9609 70.3698 12.4635 69.8438 12.8125C69.3229 13.1562 68.7031 13.3281 67.9844 13.3281C67.3594 13.3281 66.8021 13.1849 66.3125 12.8984C65.8281 12.6068 65.4349 12.1354 65.1328 11.4844L65.3516 11.4688V16.1719H63.0391ZM67.1562 11.5703C67.724 11.5703 68.1771 11.3333 68.5156 10.8594C68.8542 10.3802 69.0234 9.71875 69.0234 8.875C69.0234 8.04167 68.8568 7.39583 68.5234 6.9375C68.1953 6.47396 67.7448 6.24219 67.1719 6.24219C66.8125 6.24219 66.487 6.33854 66.1953 6.53125C65.9089 6.72396 65.6797 7.01823 65.5078 7.41406C65.3411 7.80469 65.2578 8.29688 65.2578 8.89062C65.2578 9.78125 65.4401 10.4505 65.8047 10.8984C66.1693 11.3464 66.6198 11.5703 67.1562 11.5703ZM73.5625 16.1719V14.4688H74.9766C75.0911 14.4688 75.1745 14.4453 75.2266 14.3984C75.2839 14.3516 75.3359 14.2656 75.3828 14.1406L75.8125 12.9609L75.6797 13.8047L72.0078 4.6875H74.6094L76.7891 11.5L76.5625 11.4688L78.7344 4.6875H81.3281L77.4062 14.7812C77.2031 15.3021 76.9193 15.6641 76.5547 15.8672C76.1901 16.0703 75.763 16.1719 75.2734 16.1719H73.5625ZM82.4922 13.125V4.6875H84.7422V6.58594L84.6484 6.33594C84.9141 5.71094 85.2891 5.2474 85.7734 4.94531C86.2578 4.63802 86.7865 4.48438 87.3594 4.48438C87.5208 4.48438 87.6849 4.4974 87.8516 4.52344C88.0182 4.54948 88.1849 4.59375 88.3516 4.65625L88.1719 6.64062C87.8333 6.54688 87.5078 6.5 87.1953 6.5C86.9401 6.5 86.6719 6.54427 86.3906 6.63281C86.1146 6.72135 85.8568 6.8776 85.6172 7.10156C85.3828 7.32031 85.1901 7.63281 85.0391 8.03906C84.8932 8.4401 84.8203 8.95312 84.8203 9.57812V13.125H82.4922ZM89.6875 13.125V4.6875H92.0156V13.125H89.6875ZM90.8516 3.67969C90.388 3.67969 90.0156 3.53906 89.7344 3.25781C89.4531 2.97656 89.3125 2.60417 89.3125 2.14062C89.3125 1.67188 89.4531 1.29948 89.7344 1.02344C90.0156 0.742188 90.388 0.601562 90.8516 0.601562C91.3203 0.601562 91.6927 0.742188 91.9688 1.02344C92.25 1.29948 92.3906 1.67188 92.3906 2.14062C92.3906 2.60417 92.25 2.97656 91.9688 3.25781C91.6927 3.53906 91.3203 3.67969 90.8516 3.67969ZM97.4766 16.375C96.1172 16.375 95.1068 16.1953 94.4453 15.8359C93.7839 15.4766 93.4531 14.9219 93.4531 14.1719C93.4531 13.7083 93.5703 13.3333 93.8047 13.0469C94.0443 12.7604 94.3698 12.5495 94.7812 12.4141C94.5885 12.2786 94.4349 12.1094 94.3203 11.9062C94.2109 11.7031 94.1562 11.4792 94.1562 11.2344C94.1562 10.9167 94.2552 10.638 94.4531 10.3984C94.651 10.1589 94.9349 9.98698 95.3047 9.88281C94.8932 9.6224 94.5703 9.28906 94.3359 8.88281C94.1068 8.47135 93.9922 8.0026 93.9922 7.47656C93.9922 6.8724 94.1406 6.34635 94.4375 5.89844C94.7396 5.45052 95.1615 5.10417 95.7031 4.85938C96.2448 4.60938 96.8776 4.48438 97.6016 4.48438C98.3255 4.48438 98.9583 4.60938 99.5 4.85938C100.042 5.10417 100.464 5.45312 100.766 5.90625C101.068 6.35417 101.219 6.88021 101.219 7.48438C101.219 8.07812 101.068 8.59896 100.766 9.04688C100.464 9.49479 100.039 9.84375 99.4922 10.0938C98.9505 10.3385 98.3151 10.4609 97.5859 10.4609H97.0234C96.5078 10.4609 96.25 10.599 96.25 10.875C96.25 11.1406 96.5078 11.2734 97.0234 11.2734H98.7266C99.3099 11.2734 99.8021 11.3438 100.203 11.4844C100.604 11.625 100.93 11.8151 101.18 12.0547C101.435 12.2891 101.62 12.5599 101.734 12.8672C101.854 13.1745 101.914 13.4974 101.914 13.8359C101.914 14.6901 101.576 15.3255 100.898 15.7422C100.221 16.1641 99.1823 16.375 97.7812 16.375H97.4766ZM97.5312 14.8906H97.8125C98.974 14.8906 99.5547 14.5417 99.5547 13.8438C99.5547 13.5729 99.4531 13.3464 99.25 13.1641C99.0469 12.987 98.6771 12.8984 98.1406 12.8984H97.0312C96.7083 12.8984 96.4167 12.974 96.1562 13.125C95.8958 13.2812 95.7656 13.5391 95.7656 13.8984C95.7656 14.2318 95.9089 14.4792 96.1953 14.6406C96.4818 14.8073 96.9271 14.8906 97.5312 14.8906ZM97.6016 9C98.0547 9 98.4036 8.86719 98.6484 8.60156C98.8984 8.33594 99.0234 7.96354 99.0234 7.48438C99.0234 7.00521 98.8984 6.63021 98.6484 6.35938C98.4036 6.08854 98.0547 5.95312 97.6016 5.95312C97.1536 5.95312 96.8047 6.08854 96.5547 6.35938C96.3047 6.625 96.1797 7 96.1797 7.48438C96.1797 7.96354 96.3047 8.33594 96.5547 8.60156C96.8047 8.86719 97.1536 9 97.6016 9ZM98.8516 5.69531V4.84375C98.8516 4.27083 99.0182 3.83333 99.3516 3.53125C99.6849 3.22396 100.169 3.07031 100.805 3.07031H101.609V4.78125H100.672C100.51 4.78125 100.404 4.8099 100.352 4.86719C100.305 4.92448 100.281 5.03906 100.281 5.21094V5.69531H98.8516ZM103.391 13.125V1.40625H105.719V6.66406L105.586 6.32031C105.836 5.74219 106.195 5.29167 106.664 4.96875C107.138 4.64583 107.708 4.48438 108.375 4.48438C109.031 4.48438 109.568 4.63281 109.984 4.92969C110.401 5.22656 110.711 5.63802 110.914 6.16406C111.117 6.6901 111.219 7.29688 111.219 7.98438V13.125H108.891V8.25781C108.891 7.5651 108.799 7.05729 108.617 6.73438C108.435 6.40625 108.091 6.24219 107.586 6.24219C106.977 6.24219 106.513 6.47396 106.195 6.9375C105.878 7.40104 105.719 8.09635 105.719 9.02344V13.125H103.391ZM115.469 13.125C114.844 13.125 114.362 12.974 114.023 12.6719C113.69 12.3646 113.523 11.9245 113.523 11.3516V6.39062H112.32V4.6875H113.523V3.03125L115.852 2.46875V4.6875H117.414V6.39062H115.852V10.9844C115.852 11.1562 115.875 11.2734 115.922 11.3359C115.974 11.3932 116.081 11.4219 116.242 11.4219H117.531V13.125H115.469ZM125.766 13.3281C124.974 13.3281 124.279 13.2005 123.68 12.9453C123.081 12.6901 122.615 12.3229 122.281 11.8438C121.948 11.3646 121.781 10.7917 121.781 10.125C121.781 9.49479 121.948 8.93229 122.281 8.4375C122.62 7.94271 123.159 7.51302 123.898 7.14844L125.922 6.11719C126.49 5.84115 126.888 5.56771 127.117 5.29688C127.352 5.02604 127.469 4.73438 127.469 4.42188C127.469 4.08333 127.357 3.80469 127.133 3.58594C126.909 3.36198 126.617 3.25 126.258 3.25C125.883 3.25 125.573 3.36198 125.328 3.58594C125.089 3.80469 124.969 4.09115 124.969 4.44531C124.969 4.59115 125 4.73698 125.062 4.88281C125.125 5.02344 125.229 5.1875 125.375 5.375C125.526 5.5625 125.737 5.80208 126.008 6.09375L130.68 11.0781C130.779 11.1771 130.896 11.2578 131.031 11.3203C131.172 11.3828 131.312 11.4141 131.453 11.4141H132.133V13.125H131.055C130.56 13.125 130.172 13.0391 129.891 12.8672C129.615 12.6953 129.38 12.5 129.188 12.2812L124.352 6.91406C123.997 6.51823 123.716 6.17708 123.508 5.89062C123.299 5.60417 123.148 5.34115 123.055 5.10156C122.961 4.85677 122.914 4.60417 122.914 4.34375C122.914 3.81771 123.057 3.35417 123.344 2.95312C123.63 2.55208 124.023 2.23958 124.523 2.01562C125.029 1.78646 125.602 1.67188 126.242 1.67188C126.872 1.67188 127.427 1.78125 127.906 2C128.391 2.21875 128.768 2.52344 129.039 2.91406C129.31 3.30469 129.445 3.75521 129.445 4.26562C129.445 4.82292 129.263 5.34115 128.898 5.82031C128.534 6.29427 127.922 6.76302 127.062 7.22656L125.188 8.26562C124.797 8.47396 124.503 8.71875 124.305 9C124.112 9.28125 124.016 9.59635 124.016 9.94531C124.016 10.4557 124.201 10.8594 124.57 11.1562C124.94 11.4531 125.445 11.6016 126.086 11.6016C126.68 11.6016 127.201 11.4818 127.648 11.2422C128.102 10.9974 128.477 10.6667 128.773 10.25C129.076 9.83333 129.299 9.36198 129.445 8.83594C129.596 8.3099 129.672 7.76562 129.672 7.20312V6.82031H131.539V7.375C131.539 8.29167 131.393 9.11719 131.102 9.85156C130.81 10.5807 130.401 11.2057 129.875 11.7266C129.354 12.2422 128.742 12.638 128.039 12.9141C127.341 13.1901 126.583 13.3281 125.766 13.3281ZM137 13.125V1.875H139.414V11.0859H144.836V13.125H137ZM149.633 13.3281C148.784 13.3281 148.034 13.1406 147.383 12.7656C146.737 12.3906 146.232 11.8724 145.867 11.2109C145.503 10.5443 145.32 9.77604 145.32 8.90625C145.32 8.03125 145.503 7.26302 145.867 6.60156C146.232 5.9349 146.737 5.41667 147.383 5.04688C148.034 4.67188 148.784 4.48438 149.633 4.48438C150.487 4.48438 151.237 4.67188 151.883 5.04688C152.534 5.41667 153.042 5.9349 153.406 6.60156C153.771 7.26302 153.953 8.03125 153.953 8.90625C153.953 9.78125 153.771 10.5521 153.406 11.2188C153.042 11.8802 152.534 12.3984 151.883 12.7734C151.232 13.1432 150.482 13.3281 149.633 13.3281ZM149.641 11.6172C150.219 11.6172 150.674 11.375 151.008 10.8906C151.346 10.401 151.516 9.73958 151.516 8.90625C151.516 8.06771 151.346 7.40625 151.008 6.92188C150.674 6.4375 150.216 6.19531 149.633 6.19531C149.055 6.19531 148.596 6.4375 148.258 6.92188C147.924 7.40625 147.758 8.06771 147.758 8.90625C147.758 9.74479 147.924 10.4062 148.258 10.8906C148.596 11.375 149.057 11.6172 149.641 11.6172ZM155.57 13.125V4.6875H157.82V6.58594L157.727 6.33594C157.992 5.71094 158.367 5.2474 158.852 4.94531C159.336 4.63802 159.865 4.48438 160.438 4.48438C160.599 4.48438 160.763 4.4974 160.93 4.52344C161.096 4.54948 161.263 4.59375 161.43 4.65625L161.25 6.64062C160.911 6.54688 160.586 6.5 160.273 6.5C160.018 6.5 159.75 6.54427 159.469 6.63281C159.193 6.72135 158.935 6.8776 158.695 7.10156C158.461 7.32031 158.268 7.63281 158.117 8.03906C157.971 8.4401 157.898 8.95312 157.898 9.57812V13.125H155.57ZM166.305 13.3281C165.477 13.3281 164.732 13.1484 164.07 12.7891C163.414 12.4297 162.893 11.9193 162.508 11.2578C162.128 10.5911 161.938 9.80469 161.938 8.89844C161.938 7.9974 162.125 7.21615 162.5 6.55469C162.88 5.89323 163.396 5.38281 164.047 5.02344C164.703 4.66406 165.451 4.48438 166.289 4.48438C166.753 4.48438 167.221 4.55469 167.695 4.69531C168.174 4.83594 168.615 5.08594 169.016 5.44531C169.417 5.79948 169.74 6.29688 169.984 6.9375C170.229 7.57292 170.352 8.38542 170.352 9.375H163.43V8.04688H168.273L168.031 8.46094C167.99 7.89844 167.885 7.44531 167.719 7.10156C167.552 6.75781 167.341 6.50781 167.086 6.35156C166.831 6.19531 166.544 6.11719 166.227 6.11719C165.815 6.11719 165.471 6.23438 165.195 6.46875C164.919 6.70312 164.711 7.03125 164.57 7.45312C164.435 7.86979 164.367 8.35417 164.367 8.90625C164.367 9.73958 164.523 10.3984 164.836 10.8828C165.154 11.3672 165.638 11.6094 166.289 11.6094C166.711 11.6094 167.073 11.5 167.375 11.2812C167.682 11.0625 167.917 10.7292 168.078 10.2812L170.188 10.8203C169.99 11.4036 169.69 11.8802 169.289 12.25C168.888 12.6198 168.427 12.8932 167.906 13.0703C167.391 13.2422 166.857 13.3281 166.305 13.3281ZM171.992 13.125V4.6875H174.242V6.04688C174.492 5.55729 174.833 5.17448 175.266 4.89844C175.703 4.6224 176.214 4.48438 176.797 4.48438C177.38 4.48438 177.875 4.63021 178.281 4.92188C178.688 5.20833 178.99 5.63021 179.188 6.1875C179.5 5.60417 179.893 5.17448 180.367 4.89844C180.846 4.6224 181.357 4.48438 181.898 4.48438C182.753 4.48438 183.406 4.78646 183.859 5.39062C184.318 5.98958 184.547 6.85156 184.547 7.97656V13.125H182.219V7.95312C182.219 7.63542 182.185 7.34896 182.117 7.09375C182.055 6.83333 181.943 6.6276 181.781 6.47656C181.62 6.32031 181.388 6.24219 181.086 6.24219C180.727 6.24219 180.424 6.35938 180.18 6.59375C179.935 6.82812 179.747 7.15104 179.617 7.5625C179.492 7.96875 179.43 8.4375 179.43 8.96875V13.125H177.102V7.95312C177.102 7.63542 177.07 7.34635 177.008 7.08594C176.945 6.82552 176.831 6.61979 176.664 6.46875C176.503 6.31771 176.273 6.24219 175.977 6.24219C175.622 6.24219 175.32 6.35938 175.07 6.59375C174.826 6.82292 174.638 7.14323 174.508 7.55469C174.383 7.96094 174.32 8.4349 174.32 8.97656V13.125H171.992ZM189.508 13.125V11.1328H191.062V3.86719H189.508V1.875H195.031V3.86719H193.477V11.1328H195.031V13.125H189.508ZM196.648 16.1719V4.6875H198.852V6.38281L198.828 6.25781C199.12 5.64323 199.508 5.19531 199.992 4.91406C200.482 4.6276 201.029 4.48438 201.633 4.48438C202.341 4.48438 202.953 4.66146 203.469 5.01562C203.99 5.36458 204.391 5.8724 204.672 6.53906C204.953 7.20052 205.094 7.99479 205.094 8.92188C205.094 9.84896 204.951 10.6432 204.664 11.3047C204.383 11.9609 203.979 12.4635 203.453 12.8125C202.932 13.1562 202.312 13.3281 201.594 13.3281C200.969 13.3281 200.411 13.1849 199.922 12.8984C199.438 12.6068 199.044 12.1354 198.742 11.4844L198.961 11.4688V16.1719H196.648ZM200.766 11.5703C201.333 11.5703 201.786 11.3333 202.125 10.8594C202.464 10.3802 202.633 9.71875 202.633 8.875C202.633 8.04167 202.466 7.39583 202.133 6.9375C201.805 6.47396 201.354 6.24219 200.781 6.24219C200.422 6.24219 200.096 6.33854 199.805 6.53125C199.518 6.72396 199.289 7.01823 199.117 7.41406C198.951 7.80469 198.867 8.29688 198.867 8.89062C198.867 9.78125 199.049 10.4505 199.414 10.8984C199.779 11.3464 200.229 11.5703 200.766 11.5703ZM210.141 13.3281C209.505 13.3281 208.906 13.237 208.344 13.0547C207.781 12.8672 207.307 12.5781 206.922 12.1875C206.536 11.7969 206.292 11.2891 206.188 10.6641L208.312 10.2422C208.359 10.7161 208.526 11.0755 208.812 11.3203C209.104 11.5599 209.518 11.6797 210.055 11.6797C210.57 11.6797 210.953 11.5781 211.203 11.375C211.453 11.1667 211.578 10.9245 211.578 10.6484C211.578 10.4036 211.479 10.1927 211.281 10.0156C211.089 9.83854 210.753 9.71354 210.273 9.64062L209.508 9.51562C209.206 9.46875 208.883 9.40625 208.539 9.32812C208.201 9.24479 207.88 9.1224 207.578 8.96094C207.276 8.79427 207.029 8.5651 206.836 8.27344C206.643 7.98177 206.547 7.60677 206.547 7.14844C206.547 6.59115 206.695 6.11458 206.992 5.71875C207.294 5.31771 207.711 5.01302 208.242 4.80469C208.773 4.59115 209.38 4.48438 210.062 4.48438C210.693 4.48438 211.268 4.57812 211.789 4.76562C212.31 4.94792 212.745 5.21875 213.094 5.57812C213.448 5.93229 213.677 6.3724 213.781 6.89844L211.656 7.33594C211.62 7.1224 211.549 6.92188 211.445 6.73438C211.346 6.54688 211.193 6.39583 210.984 6.28125C210.776 6.16146 210.495 6.10156 210.141 6.10156C209.74 6.10156 209.419 6.17969 209.18 6.33594C208.945 6.49219 208.828 6.70573 208.828 6.97656C208.828 7.17448 208.893 7.33594 209.023 7.46094C209.159 7.58594 209.341 7.6875 209.57 7.76562C209.805 7.83854 210.068 7.90104 210.359 7.95312L211.234 8.10156C211.682 8.17448 212.107 8.30208 212.508 8.48438C212.914 8.66146 213.245 8.91667 213.5 9.25C213.755 9.58333 213.883 10.0208 213.883 10.5625C213.883 11.1615 213.719 11.6667 213.391 12.0781C213.068 12.4896 212.622 12.8021 212.055 13.0156C211.492 13.224 210.854 13.3281 210.141 13.3281ZM218.242 13.3281C217.591 13.3281 217.055 13.1797 216.633 12.8828C216.216 12.5859 215.906 12.1745 215.703 11.6484C215.5 11.1224 215.398 10.5156 215.398 9.82812V4.6875H217.727V9.55469C217.727 10.237 217.844 10.7448 218.078 11.0781C218.312 11.4062 218.677 11.5703 219.172 11.5703C219.464 11.5703 219.74 11.4948 220 11.3438C220.266 11.1875 220.482 10.9297 220.648 10.5703C220.815 10.2109 220.898 9.72135 220.898 9.10156V4.6875H223.227V13.125H220.977V11.1484L221.031 11.4922C220.781 12.0651 220.419 12.5156 219.945 12.8438C219.477 13.1667 218.909 13.3281 218.242 13.3281ZM225.352 13.125V4.6875H227.602V6.04688C227.852 5.55729 228.193 5.17448 228.625 4.89844C229.062 4.6224 229.573 4.48438 230.156 4.48438C230.74 4.48438 231.234 4.63021 231.641 4.92188C232.047 5.20833 232.349 5.63021 232.547 6.1875C232.859 5.60417 233.253 5.17448 233.727 4.89844C234.206 4.6224 234.716 4.48438 235.258 4.48438C236.112 4.48438 236.766 4.78646 237.219 5.39062C237.677 5.98958 237.906 6.85156 237.906 7.97656V13.125H235.578V7.95312C235.578 7.63542 235.544 7.34896 235.477 7.09375C235.414 6.83333 235.302 6.6276 235.141 6.47656C234.979 6.32031 234.747 6.24219 234.445 6.24219C234.086 6.24219 233.784 6.35938 233.539 6.59375C233.294 6.82812 233.107 7.15104 232.977 7.5625C232.852 7.96875 232.789 8.4375 232.789 8.96875V13.125H230.461V7.95312C230.461 7.63542 230.43 7.34635 230.367 7.08594C230.305 6.82552 230.19 6.61979 230.023 6.46875C229.862 6.31771 229.633 6.24219 229.336 6.24219C228.982 6.24219 228.68 6.35938 228.43 6.59375C228.185 6.82292 227.997 7.14323 227.867 7.55469C227.742 7.96094 227.68 8.4349 227.68 8.97656V13.125H225.352Z" fill="white"/>
</svg>
