<svg width="57" height="61" viewBox="0 0 57 61" fill="none" xmlns="http://www.w3.org/2000/svg">
<path d="M28.6667 0.0625C13.1065 0.0625 0.916748 7.17344 0.916748 16.25V44C0.916748 53.0766 13.1065 60.1875 28.6667 60.1875C44.227 60.1875 56.4167 53.0766 56.4167 44V16.25C56.4167 7.17344 44.227 0.0625 28.6667 0.0625ZM51.7917 30.125C51.7917 32.9058 49.5139 35.7415 45.5451 37.9066C41.0762 40.3434 35.081 41.6875 28.6667 41.6875C22.2525 41.6875 16.2573 40.3434 11.7884 37.9066C7.81956 35.7415 5.54175 32.9058 5.54175 30.125V25.315C10.4732 29.6509 18.9051 32.4375 28.6667 32.4375C38.4284 32.4375 46.8603 29.6394 51.7917 25.315V30.125ZM11.7884 8.46844C16.2573 6.03164 22.2525 4.6875 28.6667 4.6875C35.081 4.6875 41.0762 6.03164 45.5451 8.46844C49.5139 10.6335 51.7917 13.4692 51.7917 16.25C51.7917 19.0308 49.5139 21.8665 45.5451 24.0316C41.0762 26.4684 35.081 27.8125 28.6667 27.8125C22.2525 27.8125 16.2573 26.4684 11.7884 24.0316C7.81956 21.8665 5.54175 19.0308 5.54175 16.25C5.54175 13.4692 7.81956 10.6335 11.7884 8.46844ZM45.5451 51.7816C41.0762 54.2184 35.081 55.5625 28.6667 55.5625C22.2525 55.5625 16.2573 54.2184 11.7884 51.7816C7.81956 49.6165 5.54175 46.7808 5.54175 44V39.19C10.4732 43.5259 18.9051 46.3125 28.6667 46.3125C38.4284 46.3125 46.8603 43.5144 51.7917 39.19V44C51.7917 46.7808 49.5139 49.6165 45.5451 51.7816Z" fill="#1065DC"/>
</svg>
