<svg width="57" height="57" viewBox="0 0 57 57" fill="none" xmlns="http://www.w3.org/2000/svg">
<g filter="url(#filter0_d_1_480)">
<rect x="4.125" y="0.125" width="48" height="48" rx="4" fill="#2173E6" shape-rendering="crispEdges"/>
<path d="M40.125 14.125H16.125C15.8598 14.125 15.6054 14.2304 15.4179 14.4179C15.2304 14.6054 15.125 14.8598 15.125 15.125V32.125C15.125 32.6554 15.3357 33.1641 15.7108 33.5392C16.0859 33.9143 16.5946 34.125 17.125 34.125H39.125C39.6554 34.125 40.1641 33.9143 40.5392 33.5392C40.9143 33.1641 41.125 32.6554 41.125 32.125V15.125C41.125 14.8598 41.0196 14.6054 40.8321 14.4179C40.6446 14.2304 40.3902 14.125 40.125 14.125ZM28.125 24.7687L18.6962 16.125H37.5537L28.125 24.7687ZM24.4637 24.125L17.125 30.8512V17.3988L24.4637 24.125ZM25.9438 25.4813L27.4438 26.8625C27.6282 27.0319 27.8696 27.1258 28.12 27.1258C28.3704 27.1258 28.6118 27.0319 28.7962 26.8625L30.2962 25.4813L37.5462 32.125H18.6962L25.9438 25.4813ZM31.7862 24.125L39.125 17.3975V30.8525L31.7862 24.125Z" fill="white"/>
</g>
<defs>
<filter id="filter0_d_1_480" x="0.125" y="0.125" width="56" height="56" filterUnits="userSpaceOnUse" color-interpolation-filters="sRGB">
<feFlood flood-opacity="0" result="BackgroundImageFix"/>
<feColorMatrix in="SourceAlpha" type="matrix" values="0 0 0 0 0 0 0 0 0 0 0 0 0 0 0 0 0 0 127 0" result="hardAlpha"/>
<feOffset dy="4"/>
<feGaussianBlur stdDeviation="2"/>
<feComposite in2="hardAlpha" operator="out"/>
<feColorMatrix type="matrix" values="0 0 0 0 0.1625 0 0 0 0 0.144219 0 0 0 0 0.144219 0 0 0 0.25 0"/>
<feBlend mode="normal" in2="BackgroundImageFix" result="effect1_dropShadow_1_480"/>
<feBlend mode="normal" in="SourceGraphic" in2="effect1_dropShadow_1_480" result="shape"/>
</filter>
</defs>
</svg>
