<svg width="126" height="37" viewBox="0 0 126 37" fill="none" xmlns="http://www.w3.org/2000/svg">
<path d="M0.861328 29.125V3.8125H18.5273V8.40039H6.29297V13.8496H17.0156V18.4375H6.29297V29.125H0.861328ZM21.9199 29.125V10.1406H27.1582V29.125H21.9199ZM24.5391 7.87305C23.4961 7.87305 22.6582 7.55664 22.0254 6.92383C21.3926 6.29102 21.0762 5.45312 21.0762 4.41016C21.0762 3.35547 21.3926 2.51758 22.0254 1.89648C22.6582 1.26367 23.4961 0.947266 24.5391 0.947266C25.5938 0.947266 26.4316 1.26367 27.0527 1.89648C27.6855 2.51758 28.002 3.35547 28.002 4.41016C28.002 5.45312 27.6855 6.29102 27.0527 6.92383C26.4316 7.55664 25.5938 7.87305 24.5391 7.87305ZM39.4453 36.4375C36.3867 36.4375 34.1133 36.0332 32.625 35.2246C31.1367 34.416 30.3926 33.168 30.3926 31.4805C30.3926 30.4375 30.6562 29.5938 31.1836 28.9492C31.7227 28.3047 32.4551 27.8301 33.3809 27.5254C32.9473 27.2207 32.6016 26.8398 32.3438 26.3828C32.0977 25.9258 31.9746 25.4219 31.9746 24.8711C31.9746 24.1562 32.1973 23.5293 32.6426 22.9902C33.0879 22.4512 33.7266 22.0645 34.5586 21.8301C33.6328 21.2441 32.9062 20.4941 32.3789 19.5801C31.8633 18.6543 31.6055 17.5996 31.6055 16.416C31.6055 15.0566 31.9395 13.873 32.6074 12.8652C33.2871 11.8574 34.2363 11.0781 35.4551 10.5273C36.6738 9.96484 38.0977 9.68359 39.7266 9.68359C41.3555 9.68359 42.7793 9.96484 43.998 10.5273C45.2168 11.0781 46.166 11.8633 46.8457 12.8828C47.5254 13.8906 47.8652 15.0742 47.8652 16.4336C47.8652 17.7695 47.5254 18.9414 46.8457 19.9492C46.166 20.957 45.2109 21.7422 43.9805 22.3047C42.7617 22.8555 41.332 23.1309 39.6914 23.1309H38.4258C37.2656 23.1309 36.6855 23.4414 36.6855 24.0625C36.6855 24.6602 37.2656 24.959 38.4258 24.959H42.2578C43.5703 24.959 44.6777 25.1172 45.5801 25.4336C46.4824 25.75 47.2148 26.1777 47.7773 26.7168C48.3516 27.2441 48.7676 27.8535 49.0254 28.5449C49.2949 29.2363 49.4297 29.9629 49.4297 30.7246C49.4297 32.6465 48.668 34.0762 47.1445 35.0137C45.6211 35.9629 43.2832 36.4375 40.1309 36.4375H39.4453ZM39.5684 33.0977H40.2012C42.8145 33.0977 44.1211 32.3125 44.1211 30.7422C44.1211 30.1328 43.8926 29.623 43.4355 29.2129C42.9785 28.8145 42.1465 28.6152 40.9395 28.6152H38.4434C37.7168 28.6152 37.0605 28.7852 36.4746 29.125C35.8887 29.4766 35.5957 30.0566 35.5957 30.8652C35.5957 31.6152 35.918 32.1719 36.5625 32.5352C37.207 32.9102 38.209 33.0977 39.5684 33.0977ZM39.7266 19.8438C40.7461 19.8438 41.5312 19.5449 42.082 18.9473C42.6445 18.3496 42.9258 17.5117 42.9258 16.4336C42.9258 15.3555 42.6445 14.5117 42.082 13.9023C41.5312 13.293 40.7461 12.9883 39.7266 12.9883C38.7188 12.9883 37.9336 13.293 37.3711 13.9023C36.8086 14.5 36.5273 15.3438 36.5273 16.4336C36.5273 17.5117 36.8086 18.3496 37.3711 18.9473C37.9336 19.5449 38.7188 19.8438 39.7266 19.8438ZM42.5391 12.4082V10.4922C42.5391 9.20313 42.9141 8.21875 43.6641 7.53906C44.4141 6.84766 45.5039 6.50195 46.9336 6.50195H48.7441V10.3516H46.6348C46.2715 10.3516 46.0312 10.416 45.9141 10.5449C45.8086 10.6738 45.7559 10.9316 45.7559 11.3184V12.4082H42.5391ZM56.918 29.125C55.5117 29.125 54.4277 28.7852 53.666 28.1055C52.916 27.4141 52.541 26.4238 52.541 25.1348V2.75781H57.7793V24.3086C57.7793 24.6953 57.832 24.959 57.9375 25.0996C58.0547 25.2285 58.2949 25.293 58.6582 25.293H60.1172V29.125H56.918ZM68.9062 29.582C67.6992 29.582 66.5859 29.3711 65.5664 28.9492C64.5469 28.5156 63.7266 27.877 63.1055 27.0332C62.4961 26.1895 62.1914 25.1348 62.1914 23.8691C62.1914 22.5098 62.584 21.3555 63.3691 20.4062C64.1543 19.457 65.2969 18.7363 66.7969 18.2441C68.2969 17.7402 70.1074 17.4883 72.2285 17.4883H74.9004L74.584 17.9629V16.873C74.584 15.6191 74.3555 14.6875 73.8984 14.0781C73.4414 13.457 72.6855 13.1465 71.6309 13.1465C70.623 13.1465 69.8496 13.416 69.3105 13.9551C68.7832 14.4824 68.4609 15.2383 68.3438 16.2227L63 15.3086C63.1992 14.2539 63.6504 13.3047 64.3535 12.4609C65.0684 11.6055 66.0527 10.9258 67.3066 10.4219C68.5605 9.91797 70.1016 9.66602 71.9297 9.66602C73.6055 9.66602 75.0234 9.93555 76.1836 10.4746C77.3438 11.002 78.2227 11.8633 78.8203 13.0586C79.4297 14.2539 79.7344 15.8535 79.7344 17.8574V24.3086C79.7344 24.707 79.7871 24.9707 79.8926 25.0996C80.0098 25.2285 80.25 25.293 80.6133 25.293H81.4746V29.125H78.9785C77.6074 29.125 76.5645 28.7852 75.8496 28.1055C75.1465 27.4141 74.7949 26.4238 74.7949 25.1348V24.2383L75.709 24.5898C75.5566 25.0938 75.334 25.6328 75.041 26.207C74.748 26.7812 74.3379 27.3262 73.8105 27.8418C73.2949 28.3457 72.6387 28.7617 71.8418 29.0898C71.0449 29.418 70.0664 29.582 68.9062 29.582ZM70.418 25.9961C71.2383 25.9961 71.9648 25.8086 72.5977 25.4336C73.2305 25.0586 73.7285 24.4961 74.0918 23.7461C74.4551 22.9844 74.6367 22.041 74.6367 20.916V20.5117H72.4219C71.168 20.5117 70.1895 20.6758 69.4863 21.0039C68.7949 21.332 68.3086 21.7363 68.0273 22.2168C67.7461 22.6855 67.6055 23.1426 67.6055 23.5879C67.6055 23.9395 67.6875 24.3027 67.8516 24.6777C68.0273 25.0527 68.3145 25.3691 68.7129 25.627C69.123 25.873 69.6914 25.9961 70.418 25.9961ZM85.0078 29.125V10.1406H90.0703V14.5176L89.9473 13.7266C90.5215 12.4727 91.3359 11.4883 92.3906 10.7734C93.4453 10.0469 94.7168 9.68359 96.2051 9.68359C97.6816 9.68359 98.8887 10.0176 99.8262 10.6855C100.775 11.3535 101.479 12.2793 101.936 13.4629C102.393 14.6465 102.621 16.0117 102.621 17.5586V29.125H97.3828V17.8926C97.3828 16.5449 97.1602 15.502 96.7148 14.7637C96.2695 14.0137 95.4961 13.6387 94.3945 13.6387C93.0938 13.6387 92.0742 14.1953 91.3359 15.3086C90.6094 16.4219 90.2461 18.127 90.2461 20.4238V29.125H85.0078ZM113.941 29.582C112.359 29.582 110.982 29.1836 109.811 28.3867C108.639 27.5898 107.736 26.4473 107.104 24.959C106.471 23.4707 106.154 21.6836 106.154 19.5977C106.154 17.5117 106.471 15.7305 107.104 14.2539C107.748 12.7656 108.656 11.6348 109.828 10.8613C111 10.0762 112.4 9.68359 114.029 9.68359C115.424 9.68359 116.666 10.0059 117.756 10.6504C118.857 11.2949 119.754 12.3555 120.445 13.832L119.9 13.8672V2.75781H125.139V29.125H120.182V25.3105L120.234 25.5742C119.602 26.9453 118.74 27.959 117.65 28.6152C116.561 29.2598 115.324 29.582 113.941 29.582ZM115.857 25.627C116.678 25.627 117.41 25.4102 118.055 24.9766C118.699 24.543 119.209 23.8809 119.584 22.9902C119.971 22.0996 120.164 20.9922 120.164 19.668C120.164 17.6641 119.754 16.1582 118.934 15.1504C118.113 14.1426 117.1 13.6387 115.893 13.6387C114.627 13.6387 113.607 14.1719 112.834 15.2383C112.072 16.3047 111.691 17.793 111.691 19.7031C111.691 21.5664 112.061 23.0195 112.799 24.0625C113.549 25.1055 114.568 25.627 115.857 25.627Z" fill="#EFF8FF"/>
</svg>
