<svg width="127" height="30" viewBox="0 0 127 30" fill="none" xmlns="http://www.w3.org/2000/svg">
<path d="M0.853516 29.0625V3.75H12.0684C14.9512 3.75 17.125 4.27734 18.5898 5.33203C20.0547 6.375 20.7871 7.89844 20.7871 9.90234C20.7871 11.1914 20.5234 12.2285 19.9961 13.0137C19.4688 13.7988 18.8066 14.3906 18.0098 14.7891C17.2129 15.1758 16.4102 15.4277 15.6016 15.5449L15.6543 15.4746C17.4824 15.7676 18.9297 16.4648 19.9961 17.5664C21.0742 18.6562 21.6133 20.168 21.6133 22.1016C21.6133 23.8477 21.1973 25.2305 20.3652 26.25C19.5449 27.2695 18.4551 27.9961 17.0957 28.4297C15.7363 28.8516 14.2539 29.0625 12.6484 29.0625H0.853516ZM6.28516 24.8438H11.6992C12.8711 24.8438 13.7734 24.6797 14.4062 24.3516C15.0508 24.0117 15.4961 23.5723 15.7422 23.0332C16 22.4824 16.1289 21.8848 16.1289 21.2402C16.1289 20.4902 15.959 19.8457 15.6191 19.3066C15.291 18.7559 14.7637 18.3281 14.0371 18.0234C13.3223 17.7188 12.373 17.5664 11.1895 17.5664H6.28516V24.8438ZM6.28516 13.5762H11.6641C12.8008 13.5762 13.6973 13.3594 14.3535 12.9258C15.0098 12.4805 15.3379 11.7598 15.3379 10.7637C15.3379 9.93164 15.0742 9.25781 14.5469 8.74219C14.0195 8.22656 13.0879 7.96875 11.752 7.96875H6.28516V13.5762ZM25.498 29.0625V10.0781H30.7363V29.0625H25.498ZM28.1172 7.81055C27.0742 7.81055 26.2363 7.49414 25.6035 6.86133C24.9707 6.22852 24.6543 5.39062 24.6543 4.34766C24.6543 3.29297 24.9707 2.45508 25.6035 1.83398C26.2363 1.20117 27.0742 0.884766 28.1172 0.884766C29.1719 0.884766 30.0098 1.20117 30.6309 1.83398C31.2637 2.45508 31.5801 3.29297 31.5801 4.34766C31.5801 5.39062 31.2637 6.22852 30.6309 6.86133C30.0098 7.49414 29.1719 7.81055 28.1172 7.81055ZM34.5332 29.0625V25.3359L44.5176 14.4551H35.043V10.0781H51.1445V13.8574L41.1074 24.668H51.3555V29.0625H34.5332ZM55.2754 29.0625V3.75H72.9414V8.33789H60.707V13.7871H71.4297V18.375H60.707V29.0625H55.2754ZM80.6055 29.0625C79.1992 29.0625 78.1152 28.7227 77.3535 28.043C76.6035 27.3516 76.2285 26.3613 76.2285 25.0723V2.69531H81.4668V24.2461C81.4668 24.6328 81.5195 24.8965 81.625 25.0371C81.7422 25.166 81.9824 25.2305 82.3457 25.2305H83.8047V29.0625H80.6055ZM95.6172 29.5195C93.7539 29.5195 92.0781 29.1152 90.5898 28.3066C89.1133 27.498 87.9414 26.3496 87.0742 24.8613C86.2188 23.3613 85.791 21.5918 85.791 19.5527C85.791 17.5254 86.2129 15.7676 87.0566 14.2793C87.9121 12.791 89.0723 11.6426 90.5371 10.834C92.0137 10.0254 93.6953 9.62109 95.582 9.62109C96.625 9.62109 97.6797 9.7793 98.7461 10.0957C99.8242 10.4121 100.814 10.9746 101.717 11.7832C102.619 12.5801 103.346 13.6992 103.896 15.1406C104.447 16.5703 104.723 18.3984 104.723 20.625H89.1484V17.6367H100.047L99.502 18.5684C99.4082 17.3027 99.1738 16.2832 98.7988 15.5098C98.4238 14.7363 97.9492 14.1738 97.375 13.8223C96.8008 13.4707 96.1562 13.2949 95.4414 13.2949C94.5156 13.2949 93.7422 13.5586 93.1211 14.0859C92.5 14.6133 92.0312 15.3516 91.7148 16.3008C91.4102 17.2383 91.2578 18.3281 91.2578 19.5703C91.2578 21.4453 91.6094 22.9277 92.3125 24.0176C93.0273 25.1074 94.1172 25.6523 95.582 25.6523C96.5312 25.6523 97.3457 25.4062 98.0254 24.9141C98.7168 24.4219 99.2441 23.6719 99.6074 22.6641L104.354 23.877C103.908 25.1895 103.234 26.2617 102.332 27.0938C101.43 27.9258 100.393 28.541 99.2207 28.9395C98.0605 29.3262 96.8594 29.5195 95.6172 29.5195ZM105.32 29.0625L112.562 19.2363L105.848 10.0781H111.719L115.955 16.3711L119.928 10.0781H125.887L118.943 19.6055L126.08 29.0625H120.033L115.621 22.4531L111.244 29.0625H105.32Z" fill="#1065DC"/>
</svg>
