<svg width="126" height="37" viewBox="0 0 126 37" fill="none" xmlns="http://www.w3.org/2000/svg">
<path d="M0.861328 29.0625V3.75H18.5273V8.33789H6.29297V13.7871H17.0156V18.375H6.29297V29.0625H0.861328ZM21.9199 29.0625V10.0781H27.1582V29.0625H21.9199ZM24.5391 7.81055C23.4961 7.81055 22.6582 7.49414 22.0254 6.86133C21.3926 6.22852 21.0762 5.39062 21.0762 4.34766C21.0762 3.29297 21.3926 2.45508 22.0254 1.83398C22.6582 1.20117 23.4961 0.884766 24.5391 0.884766C25.5938 0.884766 26.4316 1.20117 27.0527 1.83398C27.6855 2.45508 28.002 3.29297 28.002 4.34766C28.002 5.39062 27.6855 6.22852 27.0527 6.86133C26.4316 7.49414 25.5938 7.81055 24.5391 7.81055ZM39.4453 36.375C36.3867 36.375 34.1133 35.9707 32.625 35.1621C31.1367 34.3535 30.3926 33.1055 30.3926 31.418C30.3926 30.375 30.6562 29.5312 31.1836 28.8867C31.7227 28.2422 32.4551 27.7676 33.3809 27.4629C32.9473 27.1582 32.6016 26.7773 32.3438 26.3203C32.0977 25.8633 31.9746 25.3594 31.9746 24.8086C31.9746 24.0938 32.1973 23.4668 32.6426 22.9277C33.0879 22.3887 33.7266 22.002 34.5586 21.7676C33.6328 21.1816 32.9062 20.4316 32.3789 19.5176C31.8633 18.5918 31.6055 17.5371 31.6055 16.3535C31.6055 14.9941 31.9395 13.8105 32.6074 12.8027C33.2871 11.7949 34.2363 11.0156 35.4551 10.4648C36.6738 9.90234 38.0977 9.62109 39.7266 9.62109C41.3555 9.62109 42.7793 9.90234 43.998 10.4648C45.2168 11.0156 46.166 11.8008 46.8457 12.8203C47.5254 13.8281 47.8652 15.0117 47.8652 16.3711C47.8652 17.707 47.5254 18.8789 46.8457 19.8867C46.166 20.8945 45.2109 21.6797 43.9805 22.2422C42.7617 22.793 41.332 23.0684 39.6914 23.0684H38.4258C37.2656 23.0684 36.6855 23.3789 36.6855 24C36.6855 24.5977 37.2656 24.8965 38.4258 24.8965H42.2578C43.5703 24.8965 44.6777 25.0547 45.5801 25.3711C46.4824 25.6875 47.2148 26.1152 47.7773 26.6543C48.3516 27.1816 48.7676 27.791 49.0254 28.4824C49.2949 29.1738 49.4297 29.9004 49.4297 30.6621C49.4297 32.584 48.668 34.0137 47.1445 34.9512C45.6211 35.9004 43.2832 36.375 40.1309 36.375H39.4453ZM39.5684 33.0352H40.2012C42.8145 33.0352 44.1211 32.25 44.1211 30.6797C44.1211 30.0703 43.8926 29.5605 43.4355 29.1504C42.9785 28.752 42.1465 28.5527 40.9395 28.5527H38.4434C37.7168 28.5527 37.0605 28.7227 36.4746 29.0625C35.8887 29.4141 35.5957 29.9941 35.5957 30.8027C35.5957 31.5527 35.918 32.1094 36.5625 32.4727C37.207 32.8477 38.209 33.0352 39.5684 33.0352ZM39.7266 19.7812C40.7461 19.7812 41.5312 19.4824 42.082 18.8848C42.6445 18.2871 42.9258 17.4492 42.9258 16.3711C42.9258 15.293 42.6445 14.4492 42.082 13.8398C41.5312 13.2305 40.7461 12.9258 39.7266 12.9258C38.7188 12.9258 37.9336 13.2305 37.3711 13.8398C36.8086 14.4375 36.5273 15.2812 36.5273 16.3711C36.5273 17.4492 36.8086 18.2871 37.3711 18.8848C37.9336 19.4824 38.7188 19.7812 39.7266 19.7812ZM42.5391 12.3457V10.4297C42.5391 9.14063 42.9141 8.15625 43.6641 7.47656C44.4141 6.78516 45.5039 6.43945 46.9336 6.43945H48.7441V10.2891H46.6348C46.2715 10.2891 46.0312 10.3535 45.9141 10.4824C45.8086 10.6113 45.7559 10.8691 45.7559 11.2559V12.3457H42.5391ZM56.918 29.0625C55.5117 29.0625 54.4277 28.7227 53.666 28.043C52.916 27.3516 52.541 26.3613 52.541 25.0723V2.69531H57.7793V24.2461C57.7793 24.6328 57.832 24.8965 57.9375 25.0371C58.0547 25.166 58.2949 25.2305 58.6582 25.2305H60.1172V29.0625H56.918ZM68.9062 29.5195C67.6992 29.5195 66.5859 29.3086 65.5664 28.8867C64.5469 28.4531 63.7266 27.8145 63.1055 26.9707C62.4961 26.127 62.1914 25.0723 62.1914 23.8066C62.1914 22.4473 62.584 21.293 63.3691 20.3438C64.1543 19.3945 65.2969 18.6738 66.7969 18.1816C68.2969 17.6777 70.1074 17.4258 72.2285 17.4258H74.9004L74.584 17.9004V16.8105C74.584 15.5566 74.3555 14.625 73.8984 14.0156C73.4414 13.3945 72.6855 13.084 71.6309 13.084C70.623 13.084 69.8496 13.3535 69.3105 13.8926C68.7832 14.4199 68.4609 15.1758 68.3438 16.1602L63 15.2461C63.1992 14.1914 63.6504 13.2422 64.3535 12.3984C65.0684 11.543 66.0527 10.8633 67.3066 10.3594C68.5605 9.85547 70.1016 9.60352 71.9297 9.60352C73.6055 9.60352 75.0234 9.87305 76.1836 10.4121C77.3438 10.9395 78.2227 11.8008 78.8203 12.9961C79.4297 14.1914 79.7344 15.791 79.7344 17.7949V24.2461C79.7344 24.6445 79.7871 24.9082 79.8926 25.0371C80.0098 25.166 80.25 25.2305 80.6133 25.2305H81.4746V29.0625H78.9785C77.6074 29.0625 76.5645 28.7227 75.8496 28.043C75.1465 27.3516 74.7949 26.3613 74.7949 25.0723V24.1758L75.709 24.5273C75.5566 25.0312 75.334 25.5703 75.041 26.1445C74.748 26.7188 74.3379 27.2637 73.8105 27.7793C73.2949 28.2832 72.6387 28.6992 71.8418 29.0273C71.0449 29.3555 70.0664 29.5195 68.9062 29.5195ZM70.418 25.9336C71.2383 25.9336 71.9648 25.7461 72.5977 25.3711C73.2305 24.9961 73.7285 24.4336 74.0918 23.6836C74.4551 22.9219 74.6367 21.9785 74.6367 20.8535V20.4492H72.4219C71.168 20.4492 70.1895 20.6133 69.4863 20.9414C68.7949 21.2695 68.3086 21.6738 68.0273 22.1543C67.7461 22.623 67.6055 23.0801 67.6055 23.5254C67.6055 23.877 67.6875 24.2402 67.8516 24.6152C68.0273 24.9902 68.3145 25.3066 68.7129 25.5645C69.123 25.8105 69.6914 25.9336 70.418 25.9336ZM85.0078 29.0625V10.0781H90.0703V14.4551L89.9473 13.6641C90.5215 12.4102 91.3359 11.4258 92.3906 10.7109C93.4453 9.98438 94.7168 9.62109 96.2051 9.62109C97.6816 9.62109 98.8887 9.95508 99.8262 10.623C100.775 11.291 101.479 12.2168 101.936 13.4004C102.393 14.584 102.621 15.9492 102.621 17.4961V29.0625H97.3828V17.8301C97.3828 16.4824 97.1602 15.4395 96.7148 14.7012C96.2695 13.9512 95.4961 13.5762 94.3945 13.5762C93.0938 13.5762 92.0742 14.1328 91.3359 15.2461C90.6094 16.3594 90.2461 18.0645 90.2461 20.3613V29.0625H85.0078ZM113.941 29.5195C112.359 29.5195 110.982 29.1211 109.811 28.3242C108.639 27.5273 107.736 26.3848 107.104 24.8965C106.471 23.4082 106.154 21.6211 106.154 19.5352C106.154 17.4492 106.471 15.668 107.104 14.1914C107.748 12.7031 108.656 11.5723 109.828 10.7988C111 10.0137 112.4 9.62109 114.029 9.62109C115.424 9.62109 116.666 9.94336 117.756 10.5879C118.857 11.2324 119.754 12.293 120.445 13.7695L119.9 13.8047V2.69531H125.139V29.0625H120.182V25.248L120.234 25.5117C119.602 26.8828 118.74 27.8965 117.65 28.5527C116.561 29.1973 115.324 29.5195 113.941 29.5195ZM115.857 25.5645C116.678 25.5645 117.41 25.3477 118.055 24.9141C118.699 24.4805 119.209 23.8184 119.584 22.9277C119.971 22.0371 120.164 20.9297 120.164 19.6055C120.164 17.6016 119.754 16.0957 118.934 15.0879C118.113 14.0801 117.1 13.5762 115.893 13.5762C114.627 13.5762 113.607 14.1094 112.834 15.1758C112.072 16.2422 111.691 17.7305 111.691 19.6406C111.691 21.5039 112.061 22.957 112.799 24C113.549 25.043 114.568 25.5645 115.857 25.5645Z" fill="#1065DC"/>
</svg>
