<svg width="24" height="25" viewBox="0 0 24 25" fill="none" xmlns="http://www.w3.org/2000/svg">
<path d="M24 1.125V6.125C24 6.39022 23.8946 6.64457 23.7071 6.83211C23.5196 7.01964 23.2652 7.125 23 7.125C22.7348 7.125 22.4804 7.01964 22.2929 6.83211C22.1054 6.64457 22 6.39022 22 6.125V2.125H18C17.7348 2.125 17.4804 2.01964 17.2929 1.83211C17.1054 1.64457 17 1.39022 17 1.125C17 0.859784 17.1054 0.60543 17.2929 0.417893C17.4804 0.230357 17.7348 0.125 18 0.125H23C23.2652 0.125 23.5196 0.230357 23.7071 0.417893C23.8946 0.60543 24 0.859784 24 1.125ZM6 22.125H2V18.125C2 17.8598 1.89464 17.6054 1.70711 17.4179C1.51957 17.2304 1.26522 17.125 1 17.125C0.734784 17.125 0.48043 17.2304 0.292893 17.4179C0.105357 17.6054 0 17.8598 0 18.125V23.125C0 23.3902 0.105357 23.6446 0.292893 23.8321C0.48043 24.0196 0.734784 24.125 1 24.125H6C6.26522 24.125 6.51957 24.0196 6.70711 23.8321C6.89464 23.6446 7 23.3902 7 23.125C7 22.8598 6.89464 22.6054 6.70711 22.4179C6.51957 22.2304 6.26522 22.125 6 22.125ZM23 17.125C22.7348 17.125 22.4804 17.2304 22.2929 17.4179C22.1054 17.6054 22 17.8598 22 18.125V22.125H18C17.7348 22.125 17.4804 22.2304 17.2929 22.4179C17.1054 22.6054 17 22.8598 17 23.125C17 23.3902 17.1054 23.6446 17.2929 23.8321C17.4804 24.0196 17.7348 24.125 18 24.125H23C23.2652 24.125 23.5196 24.0196 23.7071 23.8321C23.8946 23.6446 24 23.3902 24 23.125V18.125C24 17.8598 23.8946 17.6054 23.7071 17.4179C23.5196 17.2304 23.2652 17.125 23 17.125ZM1 7.125C1.26522 7.125 1.51957 7.01964 1.70711 6.83211C1.89464 6.64457 2 6.39022 2 6.125V2.125H6C6.26522 2.125 6.51957 2.01964 6.70711 1.83211C6.89464 1.64457 7 1.39022 7 1.125C7 0.859784 6.89464 0.60543 6.70711 0.417893C6.51957 0.230357 6.26522 0.125 6 0.125H1C0.734784 0.125 0.48043 0.230357 0.292893 0.417893C0.105357 0.60543 0 0.859784 0 1.125V6.125C0 6.39022 0.105357 6.64457 0.292893 6.83211C0.48043 7.01964 0.734784 7.125 1 7.125ZM17 19.125H7C6.46957 19.125 5.96086 18.9143 5.58579 18.5392C5.21071 18.1641 5 17.6554 5 17.125V7.125C5 6.59457 5.21071 6.08586 5.58579 5.71079C5.96086 5.33571 6.46957 5.125 7 5.125H17C17.5304 5.125 18.0391 5.33571 18.4142 5.71079C18.7893 6.08586 19 6.59457 19 7.125V17.125C19 17.6554 18.7893 18.1641 18.4142 18.5392C18.0391 18.9143 17.5304 19.125 17 19.125ZM7 17.125H17V7.125H7V17.125Z" fill="white"/>
</svg>
