<svg width="16" height="17" viewBox="0 0 16 17" fill="none" xmlns="http://www.w3.org/2000/svg">
<path d="M15.545 6.68304C15.6383 7.22 15.6848 7.76404 15.684 8.30904C15.684 10.743 14.814 12.801 13.3 14.194H13.302C11.978 15.417 10.158 16.125 8 16.125C5.87827 16.125 3.84344 15.2822 2.34315 13.7819C0.842855 12.2816 0 10.2468 0 8.12504C0 6.00331 0.842855 3.96848 2.34315 2.46819C3.84344 0.967894 5.87827 0.12504 8 0.12504C9.98594 0.101781 11.9038 0.847872 13.352 2.20704L11.068 4.49104C10.2424 3.70401 9.1405 3.27303 8 3.29104C5.913 3.29104 4.14 4.69904 3.508 6.59504C3.17291 7.58854 3.17291 8.66453 3.508 9.65804H3.511C4.146 11.551 5.916 12.959 8.003 12.959C9.081 12.959 10.007 12.683 10.725 12.195H10.722C11.1389 11.9188 11.4955 11.561 11.7704 11.1432C12.0452 10.7254 12.2325 10.2562 12.321 9.76404H8V6.68404L15.545 6.68304Z" fill="white"/>
</svg>
