<svg width="16" height="17" viewBox="0 0 16 17" fill="none" xmlns="http://www.w3.org/2000/svg">
<g clip-path="url(#clip0_47_152)">
<path d="M8 0.125C5.829 0.125 5.556 0.135 4.703 0.173C3.85 0.213 3.269 0.347 2.76 0.545C2.22609 0.745819 1.74249 1.06083 1.343 1.468C0.936076 1.8677 0.621107 2.35124 0.42 2.885C0.222 3.393 0.087 3.975 0.048 4.825C0.01 5.68 0 5.952 0 8.126C0 10.298 0.01 10.57 0.048 11.423C0.088 12.275 0.222 12.856 0.42 13.365C0.625 13.891 0.898 14.337 1.343 14.782C1.787 15.227 2.233 15.501 2.759 15.705C3.269 15.903 3.849 16.038 4.701 16.077C5.555 16.115 5.827 16.125 8 16.125C10.173 16.125 10.444 16.115 11.298 16.077C12.149 16.037 12.732 15.903 13.241 15.705C13.7746 15.5041 14.2578 15.1891 14.657 14.782C15.102 14.337 15.375 13.891 15.58 13.365C15.777 12.856 15.912 12.275 15.952 11.423C15.99 10.57 16 10.298 16 8.125C16 5.952 15.99 5.68 15.952 4.826C15.912 3.975 15.777 3.393 15.58 2.885C15.3789 2.35123 15.0639 1.86768 14.657 1.468C14.2576 1.06068 13.774 0.745645 13.24 0.545C12.73 0.347 12.148 0.212 11.297 0.173C10.443 0.135 10.172 0.125 7.998 0.125H8.001H8ZM7.283 1.567H8.001C10.137 1.567 10.39 1.574 11.233 1.613C12.013 1.648 12.437 1.779 12.719 1.888C13.092 2.033 13.359 2.207 13.639 2.487C13.919 2.767 14.092 3.033 14.237 3.407C14.347 3.688 14.477 4.112 14.512 4.892C14.551 5.735 14.559 5.988 14.559 8.123C14.559 10.258 14.551 10.512 14.512 11.355C14.477 12.135 14.346 12.558 14.237 12.84C14.1087 13.1874 13.904 13.5014 13.638 13.759C13.358 14.039 13.092 14.212 12.718 14.357C12.438 14.467 12.014 14.597 11.233 14.633C10.39 14.671 10.137 14.68 8.001 14.68C5.865 14.68 5.611 14.671 4.768 14.633C3.988 14.597 3.565 14.467 3.283 14.357C2.9355 14.2289 2.62113 14.0246 2.363 13.759C2.09675 13.501 1.89172 13.1867 1.763 12.839C1.654 12.558 1.523 12.134 1.488 11.354C1.45 10.511 1.442 10.258 1.442 8.121C1.442 5.985 1.45 5.733 1.488 4.89C1.524 4.11 1.654 3.686 1.764 3.404C1.909 3.031 2.083 2.764 2.363 2.484C2.643 2.204 2.909 2.031 3.283 1.886C3.565 1.776 3.988 1.646 4.768 1.61C5.506 1.576 5.792 1.566 7.283 1.565V1.567ZM12.271 2.895C12.1449 2.895 12.0201 2.91983 11.9036 2.96808C11.7872 3.01632 11.6813 3.08703 11.5922 3.17618C11.503 3.26532 11.4323 3.37115 11.3841 3.48762C11.3358 3.6041 11.311 3.72893 11.311 3.855C11.311 3.98107 11.3358 4.1059 11.3841 4.22238C11.4323 4.33885 11.503 4.44468 11.5922 4.53382C11.6813 4.62297 11.7872 4.69368 11.9036 4.74192C12.0201 4.79017 12.1449 4.815 12.271 4.815C12.5256 4.815 12.7698 4.71386 12.9498 4.53382C13.1299 4.35379 13.231 4.10961 13.231 3.855C13.231 3.60039 13.1299 3.35621 12.9498 3.17618C12.7698 2.99614 12.5256 2.895 12.271 2.895ZM8.001 4.017C7.45607 4.0085 6.91489 4.10849 6.40898 4.31114C5.90306 4.5138 5.44251 4.81507 5.05415 5.19742C4.66579 5.57978 4.35736 6.03557 4.14684 6.53826C3.93632 7.04095 3.8279 7.5805 3.8279 8.1255C3.8279 8.6705 3.93632 9.21005 4.14684 9.71274C4.35736 10.2154 4.66579 10.6712 5.05415 11.0536C5.44251 11.4359 5.90306 11.7372 6.40898 11.9399C6.91489 12.1425 7.45607 12.2425 8.001 12.234C9.07954 12.2172 10.1082 11.7769 10.865 11.0083C11.6217 10.2396 12.0459 9.20417 12.0459 8.1255C12.0459 7.04683 11.6217 6.01141 10.865 5.24275C10.1082 4.47409 9.07954 4.03383 8.001 4.017ZM8.001 5.458C8.70833 5.458 9.38669 5.73899 9.88685 6.23915C10.387 6.73931 10.668 7.41767 10.668 8.125C10.668 8.83233 10.387 9.51069 9.88685 10.0109C9.38669 10.511 8.70833 10.792 8.001 10.792C7.29367 10.792 6.61531 10.511 6.11515 10.0109C5.61499 9.51069 5.334 8.83233 5.334 8.125C5.334 7.41767 5.61499 6.73931 6.11515 6.23915C6.61531 5.73899 7.29367 5.458 8.001 5.458Z" fill="white"/>
</g>
<defs>
<clipPath id="clip0_47_152">
<rect width="16" height="16" fill="white" transform="translate(0 0.125)"/>
</clipPath>
</defs>
</svg>
