<svg width="16" height="17" viewBox="0 0 16 17" fill="none" xmlns="http://www.w3.org/2000/svg">
<g clip-path="url(#clip0_47_150)">
<path d="M0 1.271C0 0.638 0.526 0.125 1.175 0.125H14.825C15.474 0.125 16 0.638 16 1.271V14.979C16 15.612 15.474 16.125 14.825 16.125H1.175C0.526 16.125 0 15.612 0 14.979V1.271ZM4.943 13.519V6.294H2.542V13.519H4.943ZM3.743 5.307C4.58 5.307 5.101 4.753 5.101 4.059C5.086 3.35 4.581 2.811 3.759 2.811C2.937 2.811 2.4 3.351 2.4 4.059C2.4 4.753 2.921 5.307 3.727 5.307H3.743ZM8.651 13.519V9.484C8.651 9.268 8.667 9.052 8.731 8.898C8.904 8.467 9.299 8.02 9.963 8.02C10.832 8.02 11.179 8.682 11.179 9.654V13.519H13.58V9.375C13.58 7.155 12.396 6.123 10.816 6.123C9.542 6.123 8.971 6.823 8.651 7.316V7.341H8.635C8.64031 7.33265 8.64564 7.32432 8.651 7.316V6.294H6.251C6.281 6.972 6.251 13.519 6.251 13.519H8.651Z" fill="white"/>
</g>
<defs>
<clipPath id="clip0_47_150">
<rect width="16" height="16" fill="white" transform="translate(0 0.125)"/>
</clipPath>
</defs>
</svg>
