<svg width="57" height="57" viewBox="0 0 57 57" fill="none" xmlns="http://www.w3.org/2000/svg">
<g filter="url(#filter0_d_1_487)">
<rect x="4.375" y="0.125" width="48" height="48" rx="4" fill="white" shape-rendering="crispEdges"/>
<path d="M24.375 21.125C24.375 20.8598 24.4804 20.6054 24.6679 20.4179C24.8554 20.2304 25.1098 20.125 25.375 20.125H33.375C33.6402 20.125 33.8946 20.2304 34.0821 20.4179C34.2696 20.6054 34.375 20.8598 34.375 21.125C34.375 21.3902 34.2696 21.6446 34.0821 21.8321C33.8946 22.0196 33.6402 22.125 33.375 22.125H25.375C25.1098 22.125 24.8554 22.0196 24.6679 21.8321C24.4804 21.6446 24.375 21.3902 24.375 21.125ZM25.375 26.125H33.375C33.6402 26.125 33.8946 26.0196 34.0821 25.8321C34.2696 25.6446 34.375 25.3902 34.375 25.125C34.375 24.8598 34.2696 24.6054 34.0821 24.4179C33.8946 24.2304 33.6402 24.125 33.375 24.125H25.375C25.1098 24.125 24.8554 24.2304 24.6679 24.4179C24.4804 24.6054 24.375 24.8598 24.375 25.125C24.375 25.3902 24.4804 25.6446 24.6679 25.8321C24.8554 26.0196 25.1098 26.125 25.375 26.125ZM41.375 32.125C41.375 33.1859 40.9536 34.2033 40.2034 34.9534C39.4533 35.7036 38.4359 36.125 37.375 36.125H23.375C22.3141 36.125 21.2967 35.7036 20.5466 34.9534C19.7964 34.2033 19.375 33.1859 19.375 32.125V16.125C19.375 15.5946 19.1643 15.0859 18.7892 14.7108C18.4141 14.3357 17.9054 14.125 17.375 14.125C16.8446 14.125 16.3359 14.3357 15.9608 14.7108C15.5857 15.0859 15.375 15.5946 15.375 16.125C15.375 16.8425 15.9787 17.3275 15.985 17.3325C16.1505 17.4599 16.272 17.6358 16.3324 17.8358C16.3928 18.0357 16.3891 18.2495 16.3218 18.4472C16.2545 18.6449 16.127 18.8165 15.9572 18.9381C15.7874 19.0597 15.5838 19.125 15.375 19.125C15.1588 19.1254 14.9484 19.0547 14.7762 18.9237C14.6312 18.8175 13.375 17.8263 13.375 16.125C13.375 15.0641 13.7964 14.0467 14.5466 13.2966C15.2967 12.5464 16.3141 12.125 17.375 12.125H34.375C35.4359 12.125 36.4533 12.5464 37.2034 13.2966C37.9536 14.0467 38.375 15.0641 38.375 16.125V29.125H39.375C39.5914 29.125 39.8019 29.1952 39.975 29.325C40.125 29.4325 41.375 30.4237 41.375 32.125ZM24.4075 29.81C24.4758 29.6083 24.6062 29.4334 24.78 29.3104C24.9538 29.1873 25.1621 29.1224 25.375 29.125H36.375V16.125C36.375 15.5946 36.1643 15.0859 35.7892 14.7108C35.4141 14.3357 34.9054 14.125 34.375 14.125H20.8363C21.1899 14.7321 21.3759 15.4224 21.375 16.125V32.125C21.375 32.6554 21.5857 33.1641 21.9608 33.5392C22.3359 33.9143 22.8446 34.125 23.375 34.125C23.9054 34.125 24.4141 33.9143 24.7892 33.5392C25.1643 33.1641 25.375 32.6554 25.375 32.125C25.375 31.4075 24.7713 30.9225 24.765 30.9175C24.5946 30.7956 24.4678 30.6222 24.4035 30.4227C24.3391 30.2233 24.3405 30.0085 24.4075 29.81ZM39.375 32.125C39.3625 31.7545 39.2195 31.4003 38.9713 31.125H27.2212C27.3218 31.4488 27.3728 31.7859 27.3725 32.125C27.3735 32.8273 27.1884 33.5174 26.8363 34.125H37.375C37.9054 34.125 38.4141 33.9143 38.7892 33.5392C39.1643 33.1641 39.375 32.6554 39.375 32.125Z" fill="#1065DC"/>
</g>
<defs>
<filter id="filter0_d_1_487" x="0.375" y="0.125" width="56" height="56" filterUnits="userSpaceOnUse" color-interpolation-filters="sRGB">
<feFlood flood-opacity="0" result="BackgroundImageFix"/>
<feColorMatrix in="SourceAlpha" type="matrix" values="0 0 0 0 0 0 0 0 0 0 0 0 0 0 0 0 0 0 127 0" result="hardAlpha"/>
<feOffset dy="4"/>
<feGaussianBlur stdDeviation="2"/>
<feComposite in2="hardAlpha" operator="out"/>
<feColorMatrix type="matrix" values="0 0 0 0 0.75 0 0 0 0 0.75 0 0 0 0 0.75 0 0 0 0.25 0"/>
<feBlend mode="normal" in2="BackgroundImageFix" result="effect1_dropShadow_1_487"/>
<feBlend mode="normal" in="SourceGraphic" in2="effect1_dropShadow_1_487" result="shape"/>
</filter>
</defs>
</svg>
