<svg width="57" height="57" viewBox="0 0 57 57" fill="none" xmlns="http://www.w3.org/2000/svg">
<g filter="url(#filter0_d_1_473)">
<rect x="4.875" y="0.125" width="48" height="48" rx="4" fill="white" shape-rendering="crispEdges"/>
<path d="M40.6712 27.9325L34.7825 25.2937L34.7663 25.2862C34.4605 25.1555 34.1271 25.103 33.796 25.1336C33.4649 25.1641 33.1466 25.2767 32.87 25.4612C32.8374 25.4828 32.8061 25.5061 32.7763 25.5312L29.7337 28.125C27.8062 27.1887 25.8162 25.2137 24.88 23.3112L27.4775 20.2225C27.5025 20.1912 27.5262 20.16 27.5487 20.1262C27.7293 19.8504 27.8388 19.5341 27.8676 19.2057C27.8964 18.8773 27.8435 18.5468 27.7137 18.2437V18.2287L25.0675 12.33C24.8959 11.9341 24.6009 11.6043 24.2265 11.3898C23.8521 11.1753 23.4183 11.0877 22.99 11.14C21.2962 11.3629 19.7415 12.1947 18.6162 13.4801C17.4909 14.7655 16.8719 16.4166 16.875 18.125C16.875 28.05 24.95 36.125 34.875 36.125C36.5834 36.1281 38.2345 35.5091 39.5199 34.3838C40.8053 33.2585 41.6371 31.7038 41.86 30.01C41.9124 29.5818 41.825 29.1482 41.6107 28.7738C41.3965 28.3994 41.0669 28.1043 40.6712 27.9325ZM34.875 34.125C30.633 34.1204 26.566 32.4332 23.5664 29.4336C20.5668 26.434 18.8796 22.367 18.875 18.125C18.8703 16.9044 19.3101 15.7237 20.1122 14.8036C20.9143 13.8835 22.0239 13.2868 23.2338 13.125C23.2333 13.13 23.2333 13.135 23.2338 13.14L25.8588 19.015L23.275 22.1075C23.2488 22.1377 23.225 22.1698 23.2037 22.2037C23.0156 22.4924 22.9053 22.8247 22.8834 23.1686C22.8615 23.5124 22.9288 23.8561 23.0787 24.1662C24.2112 26.4825 26.545 28.7987 28.8862 29.93C29.1987 30.0786 29.5444 30.1435 29.8894 30.1185C30.2345 30.0936 30.5672 29.9795 30.855 29.7875C30.8871 29.7659 30.918 29.7425 30.9475 29.7175L33.9862 27.125L39.8612 29.7562C39.8612 29.7562 39.8713 29.7562 39.875 29.7562C39.7151 30.9678 39.1193 32.0797 38.1991 32.8838C37.2788 33.6878 36.0971 34.1291 34.875 34.125Z" fill="#1065DC"/>
</g>
<defs>
<filter id="filter0_d_1_473" x="0.875" y="0.125" width="56" height="56" filterUnits="userSpaceOnUse" color-interpolation-filters="sRGB">
<feFlood flood-opacity="0" result="BackgroundImageFix"/>
<feColorMatrix in="SourceAlpha" type="matrix" values="0 0 0 0 0 0 0 0 0 0 0 0 0 0 0 0 0 0 127 0" result="hardAlpha"/>
<feOffset dy="4"/>
<feGaussianBlur stdDeviation="2"/>
<feComposite in2="hardAlpha" operator="out"/>
<feColorMatrix type="matrix" values="0 0 0 0 0.75 0 0 0 0 0.75 0 0 0 0 0.75 0 0 0 0.25 0"/>
<feBlend mode="normal" in2="BackgroundImageFix" result="effect1_dropShadow_1_473"/>
<feBlend mode="normal" in="SourceGraphic" in2="effect1_dropShadow_1_473" result="shape"/>
</filter>
</defs>
</svg>
