<svg width="26" height="29" viewBox="0 0 26 29" fill="none" xmlns="http://www.w3.org/2000/svg">
<path d="M13 8.12502C11.8133 8.12502 10.6533 8.47692 9.66658 9.13621C8.67988 9.79549 7.91085 10.7326 7.45672 11.8289C7.0026 12.9253 6.88378 14.1317 7.11529 15.2956C7.3468 16.4594 7.91824 17.5285 8.75736 18.3677C9.59647 19.2068 10.6656 19.7782 11.8295 20.0097C12.9933 20.2412 14.1997 20.1224 15.2961 19.6683C16.3925 19.2142 17.3295 18.4451 17.9888 17.4584C18.6481 16.4718 19 15.3117 19 14.125C18.998 12.5343 18.3652 11.0094 17.2404 9.88457C16.1157 8.75978 14.5907 8.12701 13 8.12502ZM13 18.125C12.2089 18.125 11.4355 17.8904 10.7777 17.4509C10.1199 17.0114 9.60723 16.3867 9.30448 15.6558C9.00173 14.9249 8.92252 14.1206 9.07686 13.3447C9.2312 12.5687 9.61216 11.856 10.1716 11.2966C10.731 10.7372 11.4437 10.3562 12.2196 10.2019C12.9956 10.0475 13.7998 10.1268 14.5307 10.4295C15.2616 10.7323 15.8864 11.2449 16.3259 11.9027C16.7654 12.5605 17 13.3339 17 14.125C17 15.1859 16.5786 16.2033 15.8284 16.9534C15.0783 17.7036 14.0609 18.125 13 18.125ZM24.96 6.39377L13.96 0.375022C13.6661 0.212625 13.3358 0.127441 13 0.127441C12.6642 0.127441 12.3339 0.212625 12.04 0.375022L1.04 6.39627C0.725861 6.56815 0.463629 6.82122 0.28069 7.12905C0.0977502 7.43688 0.000812822 7.78819 0 8.14627V20.1013C0.000812822 20.4594 0.0977502 20.8107 0.28069 21.1185C0.463629 21.4263 0.725861 21.6794 1.04 21.8513L12.04 27.8725C12.3339 28.0349 12.6642 28.1201 13 28.1201C13.3358 28.1201 13.6661 28.0349 13.96 27.8725L24.96 21.8513C25.2741 21.6794 25.5364 21.4263 25.7193 21.1185C25.9023 20.8107 25.9992 20.4594 26 20.1013V8.14752C25.9999 7.7888 25.9032 7.43672 25.7203 7.12817C25.5373 6.81962 25.2747 6.56596 24.96 6.39377ZM13 26.125L2 20.1025V8.14752L13 2.12502L24 8.14627V20.1013L13 26.125Z" fill="#1065DC"/>
</svg>
