<svg width="16" height="17" viewBox="0 0 16 17" fill="none" xmlns="http://www.w3.org/2000/svg">
<path d="M14.6562 7.27375L11.8375 9.73375L12.6818 13.3962C12.7265 13.5877 12.7138 13.7881 12.6452 13.9724C12.5766 14.1566 12.4552 14.3166 12.2962 14.4322C12.1372 14.5479 11.9477 14.6141 11.7512 14.6226C11.5548 14.6311 11.3602 14.5815 11.1918 14.48L7.99747 12.5425L4.80996 14.48C4.64157 14.5815 4.447 14.6311 4.25057 14.6226C4.05415 14.6141 3.86459 14.5479 3.70559 14.4322C3.54659 14.3166 3.42521 14.1566 3.35662 13.9724C3.28803 13.7881 3.27528 13.5877 3.31996 13.3962L4.16309 9.7375L1.34372 7.27375C1.1946 7.14514 1.08677 6.97536 1.03375 6.78571C0.980734 6.59607 0.98489 6.39499 1.0457 6.20769C1.10651 6.02039 1.22126 5.85522 1.37556 5.73288C1.52987 5.61054 1.71686 5.53649 1.91309 5.52L5.62934 5.19812L7.07997 1.73812C7.15572 1.55657 7.2835 1.40149 7.44721 1.29241C7.61092 1.18333 7.80324 1.12512 7.99997 1.12512C8.19669 1.12512 8.38901 1.18333 8.55272 1.29241C8.71643 1.40149 8.84421 1.55657 8.91997 1.73812L10.375 5.19812L14.09 5.52C14.2862 5.53649 14.4732 5.61054 14.6275 5.73288C14.7818 5.85522 14.8966 6.02039 14.9574 6.20769C15.0182 6.39499 15.0223 6.59607 14.9693 6.78571C14.9163 6.97536 14.8085 7.14514 14.6593 7.27375H14.6562Z" fill="#1065DC"/>
</svg>
