<svg width="32" height="33" viewBox="0 0 32 33" fill="none" xmlns="http://www.w3.org/2000/svg">
<path d="M29.8999 12.2862C29.7788 11.913 29.5506 11.5836 29.2436 11.3391C28.9367 11.0946 28.5646 10.9458 28.1737 10.9112L20.7499 10.2712L17.8399 3.35124C17.6884 2.98814 17.4329 2.67798 17.1054 2.45982C16.778 2.24165 16.3934 2.12524 15.9999 2.12524C15.6065 2.12524 15.2218 2.24165 14.8944 2.45982C14.567 2.67798 14.3114 2.98814 14.1599 3.35124L11.2587 10.2712L3.82618 10.915C3.43372 10.948 3.05974 11.0961 2.75113 11.3408C2.44251 11.5854 2.21301 11.9158 2.0914 12.2904C1.96978 12.665 1.96147 13.0671 2.0675 13.4464C2.17353 13.8257 2.38919 14.1653 2.68743 14.4225L8.32618 19.35L6.63618 26.6675C6.54682 27.0504 6.57232 27.4512 6.70949 27.8197C6.84666 28.1882 7.08943 28.5081 7.40742 28.7394C7.72542 28.9707 8.10455 29.1032 8.4974 29.1201C8.89025 29.1371 9.27939 29.038 9.61618 28.835L15.9912 24.96L22.3799 28.835C22.7167 29.038 23.1059 29.1371 23.4987 29.1201C23.8916 29.1032 24.2707 28.9707 24.5887 28.7394C24.9067 28.5081 25.1494 28.1882 25.2866 27.8197C25.4238 27.4512 25.4493 27.0504 25.3599 26.6675L23.6712 19.3425L29.3087 14.4225C29.6069 14.1644 29.8221 13.8239 29.9273 13.4438C30.0325 13.0637 30.023 12.6609 29.8999 12.2862ZM27.9974 12.9112L22.3599 17.8312C22.0856 18.0699 21.8814 18.3789 21.7696 18.7249C21.6577 19.0709 21.6422 19.4409 21.7249 19.795L23.4187 27.125L17.0349 23.25C16.7235 23.0603 16.3658 22.96 16.0012 22.96C15.6365 22.96 15.2789 23.0603 14.9674 23.25L8.59243 27.125L10.2749 19.8C10.3576 19.4459 10.3422 19.0759 10.2303 18.7299C10.1184 18.3839 9.9143 18.0749 9.63993 17.8362L3.99993 12.9187C3.99947 12.915 3.99947 12.9112 3.99993 12.9075L11.4299 12.265C11.7927 12.233 12.1398 12.1026 12.4339 11.8878C12.728 11.6731 12.9578 11.3821 13.0987 11.0462L15.9999 4.13499L18.8999 11.0462C19.0408 11.3821 19.2706 11.6731 19.5647 11.8878C19.8588 12.1026 20.2059 12.233 20.5687 12.265L27.9999 12.9075C27.9999 12.9075 27.9999 12.915 27.9999 12.9162L27.9974 12.9112Z" fill="#1065DC"/>
</svg>
