<svg width="56" height="64" viewBox="0 0 56 64" fill="none" xmlns="http://www.w3.org/2000/svg">
<path d="M32.625 44.6875L32.625 58.5625C32.625 59.7891 33.1123 60.9655 33.9796 61.8329C34.847 62.7002 36.0234 63.1875 37.25 63.1875L51.125 63.1875C52.3516 63.1875 53.528 62.7002 54.3954 61.8329C55.2627 60.9655 55.75 59.7891 55.75 58.5625L55.75 44.6875C55.75 43.4609 55.2627 42.2845 54.3954 41.4171C53.528 40.5498 52.3516 40.0625 51.125 40.0625L46.5 40.0625L46.5 37.75C46.5 35.2967 45.5254 32.944 43.7907 31.2093C42.056 29.4745 39.7033 28.5 37.25 28.5L30.3125 28.5L30.3125 19.25L32.625 19.25C33.8516 19.25 35.028 18.7627 35.8954 17.8954C36.7627 17.028 37.25 15.8516 37.25 14.625L37.25 5.375C37.25 4.14837 36.7627 2.97199 35.8954 2.10463C35.028 1.23727 33.8516 0.749999 32.625 0.749999L23.375 0.749999C22.1484 0.749999 20.972 1.23727 20.1046 2.10463C19.2373 2.97199 18.75 4.14837 18.75 5.375L18.75 14.625C18.75 15.8516 19.2373 17.028 20.1046 17.8954C20.972 18.7627 22.1484 19.25 23.375 19.25L25.6875 19.25L25.6875 28.5L18.75 28.5C16.2967 28.5 13.944 29.4745 12.2093 31.2093C10.4746 32.944 9.5 35.2967 9.5 37.75L9.5 40.0625L4.875 40.0625C3.64837 40.0625 2.47199 40.5498 1.60463 41.4171C0.737274 42.2845 0.249998 43.4609 0.249998 44.6875L0.249997 58.5625C0.249997 59.7891 0.737274 60.9655 1.60463 61.8329C2.47199 62.7002 3.64837 63.1875 4.875 63.1875L18.75 63.1875C19.9766 63.1875 21.153 62.7002 22.0204 61.8329C22.8877 60.9655 23.375 59.7891 23.375 58.5625L23.375 44.6875C23.375 43.4609 22.8877 42.2845 22.0204 41.4171C21.153 40.5498 19.9766 40.0625 18.75 40.0625L14.125 40.0625L14.125 37.75C14.125 36.5234 14.6123 35.347 15.4796 34.4796C16.347 33.6123 17.5234 33.125 18.75 33.125L37.25 33.125C38.4766 33.125 39.653 33.6123 40.5204 34.4796C41.3877 35.347 41.875 36.5234 41.875 37.75L41.875 40.0625L37.25 40.0625C36.0234 40.0625 34.847 40.5498 33.9796 41.4171C33.1123 42.2845 32.625 43.4609 32.625 44.6875ZM23.375 14.625L23.375 5.375L32.625 5.375L32.625 14.625L23.375 14.625ZM18.75 44.6875L18.75 58.5625L4.875 58.5625L4.875 44.6875L18.75 44.6875ZM51.125 44.6875L51.125 58.5625L37.25 58.5625L37.25 44.6875L51.125 44.6875Z" fill="#1065DC"/>
</svg>
