<svg width="56" height="56" viewBox="0 0 56 56" fill="none" xmlns="http://www.w3.org/2000/svg">
<path d="M39.5625 35.0625C39.5625 40.1645 34.3767 44.3125 28 44.3125C21.6233 44.3125 16.4375 40.1645 16.4375 35.0625C16.4375 34.4492 16.6811 33.861 17.1148 33.4273C17.5485 32.9936 18.1367 32.75 18.75 32.75C19.3633 32.75 19.9515 32.9936 20.3852 33.4273C20.8189 33.861 21.0625 34.4492 21.0625 35.0625C21.0625 37.5687 24.2422 39.6875 28 39.6875C31.7578 39.6875 34.9375 37.5687 34.9375 35.0625C34.9375 32.3222 32.4487 31.3047 27.1675 29.7842C22.6148 28.4719 16.952 26.8387 16.952 21.1875C16.952 15.915 21.7013 11.9375 28 11.9375C32.5441 11.9375 36.4348 14.0477 38.1519 17.4297C38.3 17.7016 38.3921 18.0004 38.4226 18.3086C38.453 18.6167 38.4213 18.9278 38.3293 19.2234C38.2373 19.5191 38.0869 19.7932 37.8869 20.0296C37.687 20.266 37.4416 20.4599 37.1653 20.5996C36.889 20.7394 36.5875 20.8223 36.2786 20.8434C35.9697 20.8644 35.6597 20.8232 35.367 20.7222C35.0743 20.6212 34.8049 20.4625 34.5747 20.2554C34.3445 20.0483 34.1582 19.7971 34.027 19.5167C33.0991 17.7014 30.7895 16.5625 28 16.5625C24.3376 16.5625 21.577 18.5513 21.577 21.1875C21.577 23.2109 24.1786 24.107 28.448 25.3384C33.1395 26.6797 39.5625 28.5441 39.5625 35.0625ZM55.75 5V51.25C55.75 52.4766 55.2627 53.653 54.3954 54.5204C53.528 55.3877 52.3516 55.875 51.125 55.875H4.875C3.64837 55.875 2.47199 55.3877 1.60463 54.5204C0.737275 53.653 0.25 52.4766 0.25 51.25V5C0.25 3.77337 0.737275 2.59699 1.60463 1.72963C2.47199 0.862275 3.64837 0.375 4.875 0.375H51.125C52.3516 0.375 53.528 0.862275 54.3954 1.72963C55.2627 2.59699 55.75 3.77337 55.75 5ZM51.125 51.25V5H4.875V51.25H51.125Z" fill="#1065DC"/>
</svg>
