<svg width="66" height="66" viewBox="0 0 66 66" fill="none" xmlns="http://www.w3.org/2000/svg">
<path d="M39.9375 23.875H26.0625C25.4492 23.875 24.861 24.1186 24.4273 24.5523C23.9936 24.986 23.75 25.5742 23.75 26.1875V40.0625C23.75 40.6758 23.9936 41.264 24.4273 41.6977C24.861 42.1314 25.4492 42.375 26.0625 42.375H39.9375C40.5508 42.375 41.139 42.1314 41.5727 41.6977C42.0064 41.264 42.25 40.6758 42.25 40.0625V26.1875C42.25 25.5742 42.0064 24.986 41.5727 24.5523C41.139 24.1186 40.5508 23.875 39.9375 23.875ZM37.625 37.75H28.375V28.5H37.625V37.75ZM63.0625 37.75H58.4375V28.5H63.0625C63.6758 28.5 64.264 28.2564 64.6977 27.8227C65.1314 27.389 65.375 26.8008 65.375 26.1875C65.375 25.5742 65.1314 24.986 64.6977 24.5523C64.264 24.1186 63.6758 23.875 63.0625 23.875H58.4375V12.3125C58.4375 11.0859 57.9502 9.90949 57.0829 9.04213C56.2155 8.17478 55.0391 7.6875 53.8125 7.6875H42.25V3.0625C42.25 2.44919 42.0064 1.86099 41.5727 1.42732C41.139 0.993638 40.5508 0.75 39.9375 0.75C39.3242 0.75 38.736 0.993638 38.3023 1.42732C37.8686 1.86099 37.625 2.44919 37.625 3.0625V7.6875H28.375V3.0625C28.375 2.44919 28.1314 1.86099 27.6977 1.42732C27.264 0.993638 26.6758 0.75 26.0625 0.75C25.4492 0.75 24.861 0.993638 24.4273 1.42732C23.9936 1.86099 23.75 2.44919 23.75 3.0625V7.6875H12.1875C10.9609 7.6875 9.78449 8.17478 8.91713 9.04213C8.04978 9.90949 7.5625 11.0859 7.5625 12.3125V23.875H2.9375C2.32419 23.875 1.73599 24.1186 1.30232 24.5523C0.868638 24.986 0.625 25.5742 0.625 26.1875C0.625 26.8008 0.868638 27.389 1.30232 27.8227C1.73599 28.2564 2.32419 28.5 2.9375 28.5H7.5625V37.75H2.9375C2.32419 37.75 1.73599 37.9936 1.30232 38.4273C0.868638 38.861 0.625 39.4492 0.625 40.0625C0.625 40.6758 0.868638 41.264 1.30232 41.6977C1.73599 42.1314 2.32419 42.375 2.9375 42.375H7.5625V53.9375C7.5625 55.1641 8.04978 56.3405 8.91713 57.2079C9.78449 58.0752 10.9609 58.5625 12.1875 58.5625H23.75V63.1875C23.75 63.8008 23.9936 64.389 24.4273 64.8227C24.861 65.2564 25.4492 65.5 26.0625 65.5C26.6758 65.5 27.264 65.2564 27.6977 64.8227C28.1314 64.389 28.375 63.8008 28.375 63.1875V58.5625H37.625V63.1875C37.625 63.8008 37.8686 64.389 38.3023 64.8227C38.736 65.2564 39.3242 65.5 39.9375 65.5C40.5508 65.5 41.139 65.2564 41.5727 64.8227C42.0064 64.389 42.25 63.8008 42.25 63.1875V58.5625H53.8125C55.0391 58.5625 56.2155 58.0752 57.0829 57.2079C57.9502 56.3405 58.4375 55.1641 58.4375 53.9375V42.375H63.0625C63.6758 42.375 64.264 42.1314 64.6977 41.6977C65.1314 41.264 65.375 40.6758 65.375 40.0625C65.375 39.4492 65.1314 38.861 64.6977 38.4273C64.264 37.9936 63.6758 37.75 63.0625 37.75ZM53.8125 53.9375H12.1875V12.3125H53.8125V40.0249C53.8125 40.0249 53.8125 40.0509 53.8125 40.0625C53.8125 40.0741 53.8125 40.0885 53.8125 40.1001V53.9375Z" fill="white"/>
</svg>
