<svg width="16" height="14" viewBox="0 0 16 14" fill="none" xmlns="http://www.w3.org/2000/svg">
<path d="M5.026 13.125C11.064 13.125 14.367 8.12196 14.367 3.79096C14.367 3.65096 14.367 3.50896 14.361 3.36896C15.0041 2.90345 15.5591 2.32711 16 1.66696C15.3993 1.93181 14.7628 2.10637 14.111 2.18496C14.7975 1.7746 15.3117 1.12893 15.558 0.367961C14.913 0.750085 14.207 1.01833 13.471 1.16096C12.9762 0.633984 12.3214 0.284878 11.6081 0.167718C10.8948 0.050558 10.1627 0.171882 9.52534 0.512898C8.88796 0.853914 8.38081 1.39559 8.08245 2.05402C7.78409 2.71245 7.71118 3.45089 7.875 4.15496C6.56974 4.08951 5.29282 3.75043 4.12704 3.1597C2.96127 2.56898 1.93268 1.7398 1.108 0.725961C0.68934 1.44904 0.561574 2.30436 0.750646 3.11823C0.939718 3.93209 1.43145 4.64349 2.126 5.10796C1.60554 5.09028 1.09652 4.95052 0.64 4.69996V4.74496C0.640897 5.50244 0.903307 6.23638 1.38287 6.82272C1.86244 7.40906 2.52975 7.81183 3.272 7.96296C2.99026 8.04058 2.69923 8.07927 2.407 8.07796C2.20098 8.07859 1.99538 8.0595 1.793 8.02096C2.00279 8.67302 2.41127 9.24313 2.96125 9.65144C3.51122 10.0597 4.17513 10.2858 4.86 10.298C3.69656 11.2118 2.2594 11.7074 0.78 11.705C0.519321 11.7061 0.258823 11.691 0 11.66C1.50151 12.6172 3.2453 13.1255 5.026 13.125Z" fill="white"/>
</svg>
