<svg width="70" height="43" viewBox="0 0 70 43" fill="none" xmlns="http://www.w3.org/2000/svg">
<path d="M67.375 19.125H60.9838L67.2045 3.80474C67.332 3.52104 67.4011 3.21452 67.4074 2.90353C67.4138 2.59254 67.3573 2.28346 67.2414 1.99479C67.1255 1.70613 66.9526 1.44381 66.733 1.22353C66.5133 1.00326 66.2515 0.829561 65.9632 0.71283C65.6749 0.5961 65.366 0.538738 65.0549 0.544177C64.7439 0.549616 64.4372 0.617745 64.1532 0.744486C63.8691 0.871228 63.6135 1.05398 63.4017 1.28179C63.1899 1.50961 63.0263 1.77782 62.9205 2.07036L55.983 19.125H44.0708L37.1333 2.07036C36.96 1.64444 36.6636 1.27987 36.2821 1.02321C35.9005 0.766551 35.4512 0.629463 34.9913 0.629463C34.5315 0.629463 34.0821 0.766551 33.7006 1.02321C33.319 1.27987 33.0227 1.64444 32.8494 2.07036L25.9119 19.125H14.0083L7.07078 2.07036C6.82547 1.52484 6.37832 1.09559 5.82324 0.872749C5.26816 0.649909 4.64833 0.650816 4.0939 0.87528C3.53948 1.09974 3.09359 1.5303 2.84988 2.07654C2.60616 2.62278 2.58358 3.2422 2.78687 3.80474L9.0075 19.125H2.625C2.01169 19.125 1.42349 19.3687 0.989815 19.8024C0.556138 20.236 0.3125 20.8242 0.3125 21.4375C0.3125 22.0509 0.556138 22.6391 0.989815 23.0727C1.42349 23.5064 2.01169 23.75 2.625 23.75H10.8951L17.8326 40.8047C18.0059 41.2306 18.3022 41.5952 18.6838 41.8519C19.0653 42.1085 19.5147 42.2456 19.9745 42.2456C20.4344 42.2456 20.8837 42.1085 21.2653 41.8519C21.6468 41.5952 21.9432 41.2306 22.1165 40.8047L29.054 23.75H40.9749L47.9124 40.8047C48.0857 41.2306 48.3821 41.5952 48.7636 41.8519C49.1452 42.1085 49.5945 42.2456 50.0544 42.2456C50.5142 42.2456 50.9636 42.1085 51.3451 41.8519C51.7267 41.5952 52.023 41.2306 52.1963 40.8047L59.1338 23.75H67.375C67.9883 23.75 68.5765 23.5064 69.0102 23.0727C69.4439 22.6391 69.6875 22.0509 69.6875 21.4375C69.6875 20.8242 69.4439 20.236 69.0102 19.8024C68.5765 19.3687 67.9883 19.125 67.375 19.125ZM19.9688 33.795L15.8872 23.75H24.0503L19.9688 33.795ZM30.9184 19.125L35 9.08302L39.0816 19.125H30.9184ZM50.0312 33.795L45.9497 23.75H54.1128L50.0312 33.795Z" fill="#1065DC"/>
</svg>
