<svg width="16" height="12" viewBox="0 0 16 12" fill="none" xmlns="http://www.w3.org/2000/svg">
<path d="M8.051 0.124023H8.14C8.962 0.127023 13.127 0.157024 14.25 0.459024C14.5895 0.551192 14.8989 0.730846 15.1472 0.980032C15.3955 1.22922 15.574 1.53921 15.665 1.87902C15.766 2.25902 15.837 2.76202 15.885 3.28102L15.895 3.38502L15.917 3.64502L15.925 3.74902C15.99 4.66302 15.998 5.51902 15.999 5.70602V5.78102C15.998 5.97502 15.989 6.88902 15.917 7.84102L15.909 7.94602L15.9 8.05002C15.85 8.62202 15.776 9.19002 15.665 9.60802C15.5743 9.94798 15.3958 10.2581 15.1475 10.5073C14.8991 10.7566 14.5896 10.9361 14.25 11.028C13.09 11.34 8.681 11.362 8.07 11.363H7.928C7.619 11.363 6.341 11.357 5.001 11.311L4.831 11.305L4.744 11.301L4.573 11.294L4.402 11.287C3.292 11.238 2.235 11.159 1.748 11.027C1.40849 10.9352 1.09907 10.7558 0.850724 10.5068C0.602384 10.2577 0.423847 9.94779 0.333 9.60802C0.222 9.19102 0.148 8.62202 0.098 8.05002L0.09 7.94502L0.082 7.84102C0.0326476 7.16342 0.00529987 6.4844 0 5.80502L0 5.68202C0.002 5.46702 0.01 4.72402 0.064 3.90402L0.071 3.80102L0.074 3.74902L0.082 3.64502L0.104 3.38502L0.114 3.28102C0.162 2.76202 0.233 2.25802 0.334 1.87902C0.424694 1.53907 0.603162 1.22893 0.851513 0.979706C1.09986 0.730477 1.40937 0.550916 1.749 0.459024C2.236 0.329024 3.293 0.249023 4.403 0.199023L4.573 0.192023L4.745 0.186024L4.831 0.183024L5.002 0.176024C5.95371 0.145398 6.90581 0.128396 7.858 0.125023H8.051V0.124023ZM6.4 3.33402V8.15202L10.557 5.74402L6.4 3.33402Z" fill="white"/>
</svg>
